<svg width="229" height="161" viewBox="0 0 229 161" fill="none" xmlns="http://www.w3.org/2000/svg">
<path d="M229 0H0V123.276H229V0Z" fill="#3F3D56"/>
<path d="M43.4171 17.3799H41.3977V20.6134H43.4171V17.3799Z" fill="#37D7FF"/>
<path d="M50.2831 16.5716H48.2637V19.8051H50.2831V16.5716Z" fill="#37D7FF"/>
<path d="M53.918 16.5716H51.8986V19.8051H53.918V16.5716Z" fill="#37D7FF"/>
<path d="M53.918 26.272H51.8986V29.5055H53.918V26.272Z" fill="#37D7FF"/>
<path d="M57.9568 21.4218H55.9374V24.6553H57.9568V21.4218Z" fill="#37D7FF"/>
<path d="M57.9568 26.6762H55.9374V29.9097H57.9568V26.6762Z" fill="#37D7FF"/>
<path d="M53.918 36.7808H51.8986V40.0143H53.918V36.7808Z" fill="#37D7FF"/>
<path d="M57.9568 42.0352H55.9374V45.2687H57.9568V42.0352Z" fill="#37D7FF"/>
<path d="M53.918 61.8403H51.8986V65.0738H53.918V61.8403Z" fill="#37D7FF"/>
<path d="M50.2831 42.0352H48.2637V45.2687H50.2831V42.0352Z" fill="#37D7FF"/>
<path d="M43.4171 22.6344H41.3977V25.8678H43.4171V22.6344Z" fill="#37D7FF"/>
<path d="M43.4171 73.1575H41.3977V76.391H43.4171V73.1575Z" fill="#37D7FF"/>
<path d="M43.4171 83.6663H41.3977V86.8998H43.4171V83.6663Z" fill="#37D7FF"/>
<path d="M43.4171 88.9207H41.3977V92.1542H43.4171V88.9207Z" fill="#37D7FF"/>
<path d="M43.4171 28.2929H40.59V28.6971H43.4171V28.2929Z" fill="#37D7FF"/>
<path d="M54.3219 33.1432H51.4947V33.5473H54.3219V33.1432Z" fill="#37D7FF"/>
<path d="M43.4171 54.1608H40.59V54.565H43.4171V54.1608Z" fill="#37D7FF"/>
<path d="M43.4171 58.6068H40.59V59.011H43.4171V58.6068Z" fill="#37D7FF"/>
<path d="M54.3219 84.4746H51.4947V84.8788H54.3219V84.4746Z" fill="#37D7FF"/>
<path d="M51.0908 94.1751H48.2637V94.5793H51.0908V94.1751Z" fill="#37D7FF"/>
<path d="M41.3977 31.9307V32.739H42.2054V34.3558H41.3977V35.164H43.4171V31.9307H41.3977Z" fill="#37D7FF"/>
<path d="M48.2638 26.2721V27.0804H49.0714V28.6972H48.2638V29.5054H50.2832V26.2721H48.2638Z" fill="#37D7FF"/>
<path d="M55.9375 31.5263V32.3349H56.7451V33.9516H55.9375V34.7599H57.9569V31.5263H55.9375Z" fill="#37D7FF"/>
<path d="M55.9375 47.2898V48.098H56.7451V49.7148H55.9375V50.5231H57.9569V47.2898H55.9375Z" fill="#37D7FF"/>
<path d="M55.9375 52.544V53.3525H56.7451V54.9693H55.9375V55.7776H57.9569V52.544H55.9375Z" fill="#37D7FF"/>
<path d="M55.9375 36.3767V37.1849H56.7451V38.8017H55.9375V39.6102H57.9569V36.3767H55.9375Z" fill="#37D7FF"/>
<path d="M51.8984 21.4218V22.2303H52.7064V23.8468H51.8984V24.6553H53.9181V21.4218H51.8984Z" fill="#37D7FF"/>
<path d="M53.918 47.2897H51.8986V50.5231H53.918V47.2897Z" fill="#37D7FF"/>
<path d="M53.918 56.9901H51.8986V60.2236H53.918V56.9901Z" fill="#37D7FF"/>
<path d="M51.8984 52.1398V52.9481H52.7064V54.5649H51.8984V55.3734H53.9181V52.1398H51.8984Z" fill="#37D7FF"/>
<path d="M48.2638 31.5263V32.3349H49.0714V33.9516H48.2638V34.7599H50.2832V31.5263H48.2638Z" fill="#37D7FF"/>
<path d="M48.2638 36.7808V37.5894H49.0714V39.2059H48.2638V40.0144H50.2832V36.7808H48.2638Z" fill="#37D7FF"/>
<path d="M50.2831 52.544H48.2637V55.7775H50.2831V52.544Z" fill="#37D7FF"/>
<path d="M48.2638 47.2898V48.098H49.0714V49.7148H48.2638V50.5231H50.2832V47.2898H48.2638Z" fill="#37D7FF"/>
<path d="M50.2831 63.0529H48.2637V66.2864H50.2831V63.0529Z" fill="#37D7FF"/>
<path d="M48.2638 57.7984V58.6067H49.0714V60.2235H48.2638V61.032H50.2832V57.7984H48.2638Z" fill="#37D7FF"/>
<path d="M50.2831 73.5617H48.2637V76.7951H50.2831V73.5617Z" fill="#37D7FF"/>
<path d="M53.918 72.7533H51.8986V75.9868H53.918V72.7533Z" fill="#37D7FF"/>
<path d="M48.2638 68.3072V69.1157H49.0714V70.7325H48.2638V71.5407H50.2832V68.3072H48.2638Z" fill="#37D7FF"/>
<path d="M55.9375 68.3072V69.1157H56.7451V70.7325H55.9375V71.5407H57.9569V68.3072H55.9375Z" fill="#37D7FF"/>
<path d="M78.5547 21.4218H76.5353V24.6553H78.5547V21.4218Z" fill="#37D7FF"/>
<path d="M78.5547 26.6762H76.5353V29.9097H78.5547V26.6762Z" fill="#37D7FF"/>
<path d="M78.5547 42.0352H76.5353V45.2687H78.5547V42.0352Z" fill="#37D7FF"/>
<path d="M76.5352 31.5263V32.3349H77.3431V33.9516H76.5352V34.7599H78.5546V31.5263H76.5352Z" fill="#37D7FF"/>
<path d="M76.5352 47.2898V48.098H77.3431V49.7148H76.5352V50.5231H78.5546V47.2898H76.5352Z" fill="#37D7FF"/>
<path d="M76.5352 52.544V53.3525H77.3431V54.9693H76.5352V55.7776H78.5546V52.544H76.5352Z" fill="#37D7FF"/>
<path d="M76.5352 36.3767V37.1849H77.3431V38.8017H76.5352V39.6102H78.5546V36.3767H76.5352Z" fill="#37D7FF"/>
<path d="M76.5352 68.3072V69.1157H77.3431V70.7325H76.5352V71.5407H78.5546V68.3072H76.5352Z" fill="#37D7FF"/>
<path d="M50.2831 84.0705H48.2637V87.304H50.2831V84.0705Z" fill="#37D7FF"/>
<path d="M53.918 78.0077H51.8986V81.2412H53.918V78.0077Z" fill="#37D7FF"/>
<path d="M50.2831 97.8128H48.2637V101.046H50.2831V97.8128Z" fill="#37D7FF"/>
<path d="M53.918 88.1123H51.8986V91.3458H53.918V88.1123Z" fill="#37D7FF"/>
<path d="M48.2638 78.8161V79.6244H49.0714V81.2412H48.2638V82.0497H50.2832V78.8161H48.2638Z" fill="#37D7FF"/>
<path d="M48.2638 103.471V104.28H49.0714V105.896H48.2638V106.705H50.2832V103.471H48.2638Z" fill="#37D7FF"/>
<path d="M72.4964 16.5716H70.4771V19.8051H72.4964V16.5716Z" fill="#37D7FF"/>
<path d="M72.4964 42.0352H70.4771V45.2687H72.4964V42.0352Z" fill="#37D7FF"/>
<path d="M73.3042 94.1751H70.4771V94.5793H73.3042V94.1751Z" fill="#37D7FF"/>
<path d="M70.4771 26.2721V27.0804H71.285V28.6972H70.4771V29.5054H72.4964V26.2721H70.4771Z" fill="#37D7FF"/>
<path d="M70.4771 31.5263V32.3349H71.285V33.9516H70.4771V34.7599H72.4964V31.5263H70.4771Z" fill="#37D7FF"/>
<path d="M70.4771 36.7808V37.5894H71.285V39.2059H70.4771V40.0144H72.4964V36.7808H70.4771Z" fill="#37D7FF"/>
<path d="M72.4964 52.544H70.4771V55.7775H72.4964V52.544Z" fill="#37D7FF"/>
<path d="M70.4771 47.2898V48.098H71.285V49.7148H70.4771V50.5231H72.4964V47.2898H70.4771Z" fill="#37D7FF"/>
<path d="M72.4964 63.0529H70.4771V66.2864H72.4964V63.0529Z" fill="#37D7FF"/>
<path d="M70.4771 57.7984V58.6067H71.285V60.2235H70.4771V61.032H72.4964V57.7984H70.4771Z" fill="#37D7FF"/>
<path d="M72.4964 73.5617H70.4771V76.7951H72.4964V73.5617Z" fill="#37D7FF"/>
<path d="M70.4771 68.3072V69.1157H71.285V70.7325H70.4771V71.5407H72.4964V68.3072H70.4771Z" fill="#37D7FF"/>
<path d="M72.4964 84.0705H70.4771V87.304H72.4964V84.0705Z" fill="#37D7FF"/>
<path d="M72.4964 97.8128H70.4771V101.046H72.4964V97.8128Z" fill="#37D7FF"/>
<path d="M70.4771 78.8161V79.6244H71.285V81.2412H70.4771V82.0497H72.4964V78.8161H70.4771Z" fill="#37D7FF"/>
<path d="M70.4771 103.471V104.28H71.285V105.896H70.4771V106.705H72.4964V103.471H70.4771Z" fill="#37D7FF"/>
<path d="M82.1896 16.5716H80.1702V19.8051H82.1896V16.5716Z" fill="#37D7FF"/>
<path d="M82.1896 42.0352H80.1702V45.2687H82.1896V42.0352Z" fill="#37D7FF"/>
<path d="M82.9973 94.1751H80.1702V94.5793H82.9973V94.1751Z" fill="#37D7FF"/>
<path d="M80.1702 26.2721V27.0804H80.9781V28.6972H80.1702V29.5054H82.1896V26.2721H80.1702Z" fill="#37D7FF"/>
<path d="M80.1702 31.5263V32.3349H80.9781V33.9516H80.1702V34.7599H82.1896V31.5263H80.1702Z" fill="#37D7FF"/>
<path d="M80.1702 36.7808V37.5894H80.9781V39.2059H80.1702V40.0144H82.1896V36.7808H80.1702Z" fill="#37D7FF"/>
<path d="M82.1896 52.544H80.1702V55.7775H82.1896V52.544Z" fill="#37D7FF"/>
<path d="M80.1702 47.2898V48.098H80.9781V49.7148H80.1702V50.5231H82.1896V47.2898H80.1702Z" fill="#37D7FF"/>
<path d="M82.1896 63.0529H80.1702V66.2864H82.1896V63.0529Z" fill="#37D7FF"/>
<path d="M80.1702 57.7984V58.6067H80.9781V60.2235H80.1702V61.032H82.1896V57.7984H80.1702Z" fill="#37D7FF"/>
<path d="M82.1896 73.5617H80.1702V76.7951H82.1896V73.5617Z" fill="#37D7FF"/>
<path d="M80.1702 68.3072V69.1157H80.9781V70.7325H80.1702V71.5407H82.1896V68.3072H80.1702Z" fill="#37D7FF"/>
<path d="M82.1896 84.0705H80.1702V87.304H82.1896V84.0705Z" fill="#37D7FF"/>
<path d="M82.1896 97.8128H80.1702V101.046H82.1896V97.8128Z" fill="#37D7FF"/>
<path d="M80.1702 78.8161V79.6244H80.9781V81.2412H80.1702V82.0497H82.1896V78.8161H80.1702Z" fill="#37D7FF"/>
<path d="M80.1702 103.471V104.28H80.9781V105.896H80.1702V106.705H82.1896V103.471H80.1702Z" fill="#37D7FF"/>
<path d="M51.8984 97.8128V98.6211H52.7064V100.238H51.8984V101.046H53.9181V97.8128H51.8984Z" fill="#37D7FF"/>
<path d="M51.8984 103.067V103.876H52.7064V105.492H51.8984V106.301H53.9181V103.067H51.8984Z" fill="#37D7FF"/>
<path d="M41.3977 42.0353V42.8435H42.2054V44.4603H41.3977V45.2688H43.4171V42.0353H41.3977Z" fill="#37D7FF"/>
<path d="M41.3977 62.6488V63.457H42.2054V65.0738H41.3977V65.8821H43.4171V62.6488H41.3977Z" fill="#37D7FF"/>
<path d="M41.3977 67.903V68.7115H42.2054V70.3283H41.3977V71.1366H43.4171V67.903H41.3977Z" fill="#37D7FF"/>
<path d="M41.3977 78.412V79.2202H42.2054V80.837H41.3977V81.6453H43.4171V78.412H41.3977Z" fill="#37D7FF"/>
<path d="M41.3977 93.3666V94.1751H42.2054V95.7919H41.3977V96.6002H43.4171V93.3666H41.3977Z" fill="#37D7FF"/>
<path d="M41.3977 97.8128V98.6211H42.2054V100.238H41.3977V101.046H43.4171V97.8128H41.3977Z" fill="#37D7FF"/>
<path d="M64.4189 17.3799H62.3995V20.6134H64.4189V17.3799Z" fill="#37D7FF"/>
<path d="M64.4189 22.6344H62.3995V25.8678H64.4189V22.6344Z" fill="#37D7FF"/>
<path d="M64.4189 28.2929H61.5917V28.6971H64.4189V28.2929Z" fill="#37D7FF"/>
<path d="M64.4189 54.1608H61.5917V54.565H64.4189V54.1608Z" fill="#37D7FF"/>
<path d="M64.4189 58.6068H61.5917V59.011H64.4189V58.6068Z" fill="#37D7FF"/>
<path d="M62.3995 31.9307V32.739H63.2071V34.3558H62.3995V35.164H64.4189V31.9307H62.3995Z" fill="#37D7FF"/>
<path d="M62.3995 42.0353V42.8435H63.2071V44.4603H62.3995V45.2688H64.4189V42.0353H62.3995Z" fill="#37D7FF"/>
<path d="M62.3995 62.6488V63.457H63.2071V65.0738H62.3995V65.8821H64.4189V62.6488H62.3995Z" fill="#37D7FF"/>
<path d="M87.4401 52.544H85.4207V55.7775H87.4401V52.544Z" fill="#37D7FF"/>
<path d="M87.4401 57.7984H85.4207V61.0319H87.4401V57.7984Z" fill="#37D7FF"/>
<path d="M87.44 63.4571H84.6129V63.8613H87.44V63.4571Z" fill="#37D7FF"/>
<path d="M87.44 89.3249H84.6129V89.7291H87.44V89.3249Z" fill="#37D7FF"/>
<path d="M87.44 93.7709H84.6129V94.1751H87.44V93.7709Z" fill="#37D7FF"/>
<path d="M85.4207 67.0948V67.903H86.2283V69.5198H85.4207V70.3283H87.44V67.0948H85.4207Z" fill="#37D7FF"/>
<path d="M85.4207 77.1993V78.0078H86.2283V79.6243H85.4207V80.4329H87.44V77.1993H85.4207Z" fill="#37D7FF"/>
<path d="M85.4207 97.8128V98.6211H86.2283V100.238H85.4207V101.046H87.44V97.8128H85.4207Z" fill="#37D7FF"/>
<path d="M93.9021 17.3799H91.8827V20.6134H93.9021V17.3799Z" fill="#37D7FF"/>
<path d="M100.768 16.5716H98.7487V19.8051H100.768V16.5716Z" fill="#37D7FF"/>
<path d="M104.403 16.5716H102.384V19.8051H104.403V16.5716Z" fill="#37D7FF"/>
<path d="M104.403 26.272H102.384V29.5055H104.403V26.272Z" fill="#37D7FF"/>
<path d="M108.442 21.4218H106.422V24.6553H108.442V21.4218Z" fill="#37D7FF"/>
<path d="M108.442 26.6762H106.422V29.9097H108.442V26.6762Z" fill="#37D7FF"/>
<path d="M104.403 36.7808H102.384V40.0143H104.403V36.7808Z" fill="#37D7FF"/>
<path d="M108.442 42.0352H106.422V45.2687H108.442V42.0352Z" fill="#37D7FF"/>
<path d="M104.403 61.8403H102.384V65.0738H104.403V61.8403Z" fill="#37D7FF"/>
<path d="M100.768 42.0352H98.7487V45.2687H100.768V42.0352Z" fill="#37D7FF"/>
<path d="M93.9021 22.6344H91.8827V25.8678H93.9021V22.6344Z" fill="#37D7FF"/>
<path d="M93.9021 73.1575H91.8827V76.391H93.9021V73.1575Z" fill="#37D7FF"/>
<path d="M93.9021 83.6663H91.8827V86.8998H93.9021V83.6663Z" fill="#37D7FF"/>
<path d="M93.9021 88.9207H91.8827V92.1542H93.9021V88.9207Z" fill="#37D7FF"/>
<path d="M93.9021 28.2929H91.075V28.6971H93.9021V28.2929Z" fill="#37D7FF"/>
<path d="M104.807 33.1432H101.98V33.5473H104.807V33.1432Z" fill="#37D7FF"/>
<path d="M93.9021 54.1608H91.075V54.565H93.9021V54.1608Z" fill="#37D7FF"/>
<path d="M93.9021 58.6068H91.075V59.011H93.9021V58.6068Z" fill="#37D7FF"/>
<path d="M104.807 84.4746H101.98V84.8788H104.807V84.4746Z" fill="#37D7FF"/>
<path d="M101.576 94.1751H98.7487V94.5793H101.576V94.1751Z" fill="#37D7FF"/>
<path d="M91.8826 31.9307V32.739H92.6905V34.3558H91.8826V35.164H93.902V31.9307H91.8826Z" fill="#37D7FF"/>
<path d="M98.7487 26.2721V27.0804H99.5564V28.6972H98.7487V29.5054H100.768V26.2721H98.7487Z" fill="#37D7FF"/>
<path d="M106.422 31.5263V32.3349H107.23V33.9516H106.422V34.7599H108.442V31.5263H106.422Z" fill="#37D7FF"/>
<path d="M106.422 47.2898V48.098H107.23V49.7148H106.422V50.5231H108.442V47.2898H106.422Z" fill="#37D7FF"/>
<path d="M106.422 52.544V53.3525H107.23V54.9693H106.422V55.7776H108.442V52.544H106.422Z" fill="#37D7FF"/>
<path d="M106.422 36.3767V37.1849H107.23V38.8017H106.422V39.6102H108.442V36.3767H106.422Z" fill="#37D7FF"/>
<path d="M102.384 21.4218V22.2303H103.191V23.8468H102.384V24.6553H104.403V21.4218H102.384Z" fill="#37D7FF"/>
<path d="M104.403 47.2897H102.384V50.5231H104.403V47.2897Z" fill="#37D7FF"/>
<path d="M104.403 56.9901H102.384V60.2236H104.403V56.9901Z" fill="#37D7FF"/>
<path d="M102.384 52.1398V52.9481H103.191V54.5649H102.384V55.3734H104.403V52.1398H102.384Z" fill="#37D7FF"/>
<path d="M98.7487 31.5263V32.3349H99.5564V33.9516H98.7487V34.7599H100.768V31.5263H98.7487Z" fill="#37D7FF"/>
<path d="M98.7487 36.7808V37.5894H99.5564V39.2059H98.7487V40.0144H100.768V36.7808H98.7487Z" fill="#37D7FF"/>
<path d="M100.768 52.544H98.7487V55.7775H100.768V52.544Z" fill="#37D7FF"/>
<path d="M98.7487 47.2898V48.098H99.5564V49.7148H98.7487V50.5231H100.768V47.2898H98.7487Z" fill="#37D7FF"/>
<path d="M100.768 63.0529H98.7487V66.2864H100.768V63.0529Z" fill="#37D7FF"/>
<path d="M98.7487 57.7984V58.6067H99.5564V60.2235H98.7487V61.032H100.768V57.7984H98.7487Z" fill="#37D7FF"/>
<path d="M100.768 73.5617H98.7487V76.7951H100.768V73.5617Z" fill="#37D7FF"/>
<path d="M104.403 72.7533H102.384V75.9868H104.403V72.7533Z" fill="#37D7FF"/>
<path d="M98.7487 68.3072V69.1157H99.5564V70.7325H98.7487V71.5407H100.768V68.3072H98.7487Z" fill="#37D7FF"/>
<path d="M106.422 68.3072V69.1157H107.23V70.7325H106.422V71.5407H108.442V68.3072H106.422Z" fill="#37D7FF"/>
<path d="M129.04 21.4218H127.02V24.6553H129.04V21.4218Z" fill="#37D7FF"/>
<path d="M129.04 26.6762H127.02V29.9097H129.04V26.6762Z" fill="#37D7FF"/>
<path d="M129.04 42.0352H127.02V45.2687H129.04V42.0352Z" fill="#37D7FF"/>
<path d="M127.02 31.5263V32.3349H127.828V33.9516H127.02V34.7599H129.04V31.5263H127.02Z" fill="#37D7FF"/>
<path d="M127.02 47.2898V48.098H127.828V49.7148H127.02V50.5231H129.04V47.2898H127.02Z" fill="#37D7FF"/>
<path d="M127.02 52.544V53.3525H127.828V54.9693H127.02V55.7776H129.04V52.544H127.02Z" fill="#37D7FF"/>
<path d="M127.02 36.3767V37.1849H127.828V38.8017H127.02V39.6102H129.04V36.3767H127.02Z" fill="#37D7FF"/>
<path d="M127.02 68.3072V69.1157H127.828V70.7325H127.02V71.5407H129.04V68.3072H127.02Z" fill="#37D7FF"/>
<path d="M100.768 84.0705H98.7487V87.304H100.768V84.0705Z" fill="#37D7FF"/>
<path d="M104.403 78.0077H102.384V81.2412H104.403V78.0077Z" fill="#37D7FF"/>
<path d="M100.768 97.8128H98.7487V101.046H100.768V97.8128Z" fill="#37D7FF"/>
<path d="M104.403 88.1123H102.384V91.3458H104.403V88.1123Z" fill="#37D7FF"/>
<path d="M98.7487 78.8161V79.6244H99.5564V81.2412H98.7487V82.0497H100.768V78.8161H98.7487Z" fill="#37D7FF"/>
<path d="M98.7487 103.471V104.28H99.5564V105.896H98.7487V106.705H100.768V103.471H98.7487Z" fill="#37D7FF"/>
<path d="M122.981 16.5716H120.962V19.8051H122.981V16.5716Z" fill="#37D7FF"/>
<path d="M122.981 42.0352H120.962V45.2687H122.981V42.0352Z" fill="#37D7FF"/>
<path d="M123.789 94.1751H120.962V94.5793H123.789V94.1751Z" fill="#37D7FF"/>
<path d="M120.962 26.2721V27.0804H121.77V28.6972H120.962V29.5054H122.981V26.2721H120.962Z" fill="#37D7FF"/>
<path d="M120.962 31.5263V32.3349H121.77V33.9516H120.962V34.7599H122.981V31.5263H120.962Z" fill="#37D7FF"/>
<path d="M120.962 36.7808V37.5894H121.77V39.2059H120.962V40.0144H122.981V36.7808H120.962Z" fill="#37D7FF"/>
<path d="M122.981 52.544H120.962V55.7775H122.981V52.544Z" fill="#37D7FF"/>
<path d="M120.962 47.2898V48.098H121.77V49.7148H120.962V50.5231H122.981V47.2898H120.962Z" fill="#37D7FF"/>
<path d="M122.981 63.0529H120.962V66.2864H122.981V63.0529Z" fill="#37D7FF"/>
<path d="M120.962 57.7984V58.6067H121.77V60.2235H120.962V61.032H122.981V57.7984H120.962Z" fill="#37D7FF"/>
<path d="M122.981 73.5617H120.962V76.7951H122.981V73.5617Z" fill="#37D7FF"/>
<path d="M120.962 68.3072V69.1157H121.77V70.7325H120.962V71.5407H122.981V68.3072H120.962Z" fill="#37D7FF"/>
<path d="M122.981 84.0705H120.962V87.304H122.981V84.0705Z" fill="#37D7FF"/>
<path d="M122.981 97.8128H120.962V101.046H122.981V97.8128Z" fill="#37D7FF"/>
<path d="M120.962 78.8161V79.6244H121.77V81.2412H120.962V82.0497H122.981V78.8161H120.962Z" fill="#37D7FF"/>
<path d="M120.962 103.471V104.28H121.77V105.896H120.962V106.705H122.981V103.471H120.962Z" fill="#37D7FF"/>
<path d="M132.675 16.5716H130.655V19.8051H132.675V16.5716Z" fill="#37D7FF"/>
<path d="M132.675 42.0352H130.655V45.2687H132.675V42.0352Z" fill="#37D7FF"/>
<path d="M133.482 94.1751H130.655V94.5793H133.482V94.1751Z" fill="#37D7FF"/>
<path d="M130.655 26.2721V27.0804H131.463V28.6972H130.655V29.5054H132.674V26.2721H130.655Z" fill="#37D7FF"/>
<path d="M130.655 31.5263V32.3349H131.463V33.9516H130.655V34.7599H132.674V31.5263H130.655Z" fill="#37D7FF"/>
<path d="M130.655 36.7808V37.5894H131.463V39.2059H130.655V40.0144H132.674V36.7808H130.655Z" fill="#37D7FF"/>
<path d="M132.675 52.544H130.655V55.7775H132.675V52.544Z" fill="#37D7FF"/>
<path d="M130.655 47.2898V48.098H131.463V49.7148H130.655V50.5231H132.674V47.2898H130.655Z" fill="#37D7FF"/>
<path d="M132.675 63.0529H130.655V66.2864H132.675V63.0529Z" fill="#37D7FF"/>
<path d="M130.655 57.7984V58.6067H131.463V60.2235H130.655V61.032H132.674V57.7984H130.655Z" fill="#37D7FF"/>
<path d="M132.675 73.5617H130.655V76.7951H132.675V73.5617Z" fill="#37D7FF"/>
<path d="M130.655 68.3072V69.1157H131.463V70.7325H130.655V71.5407H132.674V68.3072H130.655Z" fill="#37D7FF"/>
<path d="M132.675 84.0705H130.655V87.304H132.675V84.0705Z" fill="#37D7FF"/>
<path d="M132.675 97.8128H130.655V101.046H132.675V97.8128Z" fill="#37D7FF"/>
<path d="M130.655 78.8161V79.6244H131.463V81.2412H130.655V82.0497H132.674V78.8161H130.655Z" fill="#37D7FF"/>
<path d="M130.655 103.471V104.28H131.463V105.896H130.655V106.705H132.674V103.471H130.655Z" fill="#37D7FF"/>
<path d="M102.384 97.8128V98.6211H103.191V100.238H102.384V101.046H104.403V97.8128H102.384Z" fill="#37D7FF"/>
<path d="M102.384 103.067V103.876H103.191V105.492H102.384V106.301H104.403V103.067H102.384Z" fill="#37D7FF"/>
<path d="M91.8826 42.0353V42.8435H92.6905V44.4603H91.8826V45.2688H93.902V42.0353H91.8826Z" fill="#37D7FF"/>
<path d="M91.8826 62.6488V63.457H92.6905V65.0738H91.8826V65.8821H93.902V62.6488H91.8826Z" fill="#37D7FF"/>
<path d="M91.8826 67.903V68.7115H92.6905V70.3283H91.8826V71.1366H93.902V67.903H91.8826Z" fill="#37D7FF"/>
<path d="M91.8826 78.412V79.2202H92.6905V80.837H91.8826V81.6453H93.902V78.412H91.8826Z" fill="#37D7FF"/>
<path d="M91.8826 93.3666V94.1751H92.6905V95.7919H91.8826V96.6002H93.902V93.3666H91.8826Z" fill="#37D7FF"/>
<path d="M91.8826 97.8128V98.6211H92.6905V100.238H91.8826V101.046H93.902V97.8128H91.8826Z" fill="#37D7FF"/>
<path d="M114.904 17.3799H112.884V20.6134H114.904V17.3799Z" fill="#37D7FF"/>
<path d="M114.904 22.6344H112.884V25.8678H114.904V22.6344Z" fill="#37D7FF"/>
<path d="M114.904 28.2929H112.077V28.6971H114.904V28.2929Z" fill="#37D7FF"/>
<path d="M114.904 54.1608H112.077V54.565H114.904V54.1608Z" fill="#37D7FF"/>
<path d="M114.904 58.6068H112.077V59.011H114.904V58.6068Z" fill="#37D7FF"/>
<path d="M112.884 31.9307V32.739H113.692V34.3558H112.884V35.164H114.904V31.9307H112.884Z" fill="#37D7FF"/>
<path d="M112.884 42.0353V42.8435H113.692V44.4603H112.884V45.2688H114.904V42.0353H112.884Z" fill="#37D7FF"/>
<path d="M112.884 62.6488V63.457H113.692V65.0738H112.884V65.8821H114.904V62.6488H112.884Z" fill="#37D7FF"/>
<path d="M137.925 52.544H135.906V55.7775H137.925V52.544Z" fill="#37D7FF"/>
<path d="M137.925 57.7984H135.906V61.0319H137.925V57.7984Z" fill="#37D7FF"/>
<path d="M137.925 63.4571H135.098V63.8613H137.925V63.4571Z" fill="#37D7FF"/>
<path d="M137.925 89.3249H135.098V89.7291H137.925V89.3249Z" fill="#37D7FF"/>
<path d="M137.925 93.7709H135.098V94.1751H137.925V93.7709Z" fill="#37D7FF"/>
<path d="M135.906 67.0948V67.903H136.714V69.5198H135.906V70.3283H137.925V67.0948H135.906Z" fill="#37D7FF"/>
<path d="M135.906 77.1993V78.0078H136.714V79.6243H135.906V80.4329H137.925V77.1993H135.906Z" fill="#37D7FF"/>
<path d="M135.906 97.8128V98.6211H136.714V100.238H135.906V101.046H137.925V97.8128H135.906Z" fill="#37D7FF"/>
<path d="M144.387 17.3799H142.368V20.6134H144.387V17.3799Z" fill="#37D7FF"/>
<path d="M151.253 16.5716H149.234V19.8051H151.253V16.5716Z" fill="#37D7FF"/>
<path d="M154.888 16.5716H152.869V19.8051H154.888V16.5716Z" fill="#37D7FF"/>
<path d="M154.888 26.272H152.869V29.5055H154.888V26.272Z" fill="#37D7FF"/>
<path d="M158.927 21.4218H156.907V24.6553H158.927V21.4218Z" fill="#37D7FF"/>
<path d="M158.927 26.6762H156.907V29.9097H158.927V26.6762Z" fill="#37D7FF"/>
<path d="M154.888 36.7808H152.869V40.0143H154.888V36.7808Z" fill="#37D7FF"/>
<path d="M158.927 42.0352H156.907V45.2687H158.927V42.0352Z" fill="#37D7FF"/>
<path d="M154.888 61.8403H152.869V65.0738H154.888V61.8403Z" fill="#37D7FF"/>
<path d="M151.253 42.0352H149.234V45.2687H151.253V42.0352Z" fill="#37D7FF"/>
<path d="M144.387 22.6344H142.368V25.8678H144.387V22.6344Z" fill="#37D7FF"/>
<path d="M144.387 73.1575H142.368V76.391H144.387V73.1575Z" fill="#37D7FF"/>
<path d="M144.387 83.6663H142.368V86.8998H144.387V83.6663Z" fill="#37D7FF"/>
<path d="M144.387 88.9207H142.368V92.1542H144.387V88.9207Z" fill="#37D7FF"/>
<path d="M144.387 28.2929H141.56V28.6971H144.387V28.2929Z" fill="#37D7FF"/>
<path d="M155.292 33.1432H152.465V33.5473H155.292V33.1432Z" fill="#37D7FF"/>
<path d="M144.387 54.1608H141.56V54.565H144.387V54.1608Z" fill="#37D7FF"/>
<path d="M144.387 58.6068H141.56V59.011H144.387V58.6068Z" fill="#37D7FF"/>
<path d="M155.292 84.4746H152.465V84.8788H155.292V84.4746Z" fill="#37D7FF"/>
<path d="M152.061 94.1751H149.234V94.5793H152.061V94.1751Z" fill="#37D7FF"/>
<path d="M142.368 31.9307V32.739H143.175V34.3558H142.368V35.164H144.387V31.9307H142.368Z" fill="#37D7FF"/>
<path d="M149.234 26.2721V27.0804H150.041V28.6972H149.234V29.5054H151.253V26.2721H149.234Z" fill="#37D7FF"/>
<path d="M156.907 31.5263V32.3349H157.715V33.9516H156.907V34.7599H158.927V31.5263H156.907Z" fill="#37D7FF"/>
<path d="M156.907 47.2898V48.098H157.715V49.7148H156.907V50.5231H158.927V47.2898H156.907Z" fill="#37D7FF"/>
<path d="M156.907 52.544V53.3525H157.715V54.9693H156.907V55.7776H158.927V52.544H156.907Z" fill="#37D7FF"/>
<path d="M156.907 36.3767V37.1849H157.715V38.8017H156.907V39.6102H158.927V36.3767H156.907Z" fill="#37D7FF"/>
<path d="M152.869 21.4218V22.2303H153.676V23.8468H152.869V24.6553H154.888V21.4218H152.869Z" fill="#37D7FF"/>
<path d="M154.888 47.2897H152.869V50.5231H154.888V47.2897Z" fill="#37D7FF"/>
<path d="M154.888 56.9901H152.869V60.2236H154.888V56.9901Z" fill="#37D7FF"/>
<path d="M152.869 52.1398V52.9481H153.676V54.5649H152.869V55.3734H154.888V52.1398H152.869Z" fill="#37D7FF"/>
<path d="M149.234 31.5263V32.3349H150.041V33.9516H149.234V34.7599H151.253V31.5263H149.234Z" fill="#37D7FF"/>
<path d="M149.234 36.7808V37.5894H150.041V39.2059H149.234V40.0144H151.253V36.7808H149.234Z" fill="#37D7FF"/>
<path d="M151.253 52.544H149.234V55.7775H151.253V52.544Z" fill="#37D7FF"/>
<path d="M149.234 47.2898V48.098H150.041V49.7148H149.234V50.5231H151.253V47.2898H149.234Z" fill="#37D7FF"/>
<path d="M151.253 63.0529H149.234V66.2864H151.253V63.0529Z" fill="#37D7FF"/>
<path d="M149.234 57.7984V58.6067H150.041V60.2235H149.234V61.032H151.253V57.7984H149.234Z" fill="#37D7FF"/>
<path d="M151.253 73.5617H149.234V76.7951H151.253V73.5617Z" fill="#37D7FF"/>
<path d="M154.888 72.7533H152.869V75.9868H154.888V72.7533Z" fill="#37D7FF"/>
<path d="M149.234 68.3072V69.1157H150.041V70.7325H149.234V71.5407H151.253V68.3072H149.234Z" fill="#37D7FF"/>
<path d="M156.907 68.3072V69.1157H157.715V70.7325H156.907V71.5407H158.927V68.3072H156.907Z" fill="#37D7FF"/>
<path d="M179.525 21.4218H177.505V24.6553H179.525V21.4218Z" fill="#37D7FF"/>
<path d="M179.525 26.6762H177.505V29.9097H179.525V26.6762Z" fill="#37D7FF"/>
<path d="M179.525 42.0352H177.505V45.2687H179.525V42.0352Z" fill="#37D7FF"/>
<path d="M177.505 31.5263V32.3349H178.313V33.9516H177.505V34.7599H179.525V31.5263H177.505Z" fill="#37D7FF"/>
<path d="M177.505 47.2898V48.098H178.313V49.7148H177.505V50.5231H179.525V47.2898H177.505Z" fill="#37D7FF"/>
<path d="M177.505 52.544V53.3525H178.313V54.9693H177.505V55.7776H179.525V52.544H177.505Z" fill="#37D7FF"/>
<path d="M177.505 36.3767V37.1849H178.313V38.8017H177.505V39.6102H179.525V36.3767H177.505Z" fill="#37D7FF"/>
<path d="M177.505 68.3072V69.1157H178.313V70.7325H177.505V71.5407H179.525V68.3072H177.505Z" fill="#37D7FF"/>
<path d="M151.253 84.0705H149.234V87.304H151.253V84.0705Z" fill="#37D7FF"/>
<path d="M154.888 78.0077H152.869V81.2412H154.888V78.0077Z" fill="#37D7FF"/>
<path d="M151.253 97.8128H149.234V101.046H151.253V97.8128Z" fill="#37D7FF"/>
<path d="M154.888 88.1123H152.869V91.3458H154.888V88.1123Z" fill="#37D7FF"/>
<path d="M149.234 78.8161V79.6244H150.041V81.2412H149.234V82.0497H151.253V78.8161H149.234Z" fill="#37D7FF"/>
<path d="M149.234 103.471V104.28H150.041V105.896H149.234V106.705H151.253V103.471H149.234Z" fill="#37D7FF"/>
<path d="M173.467 16.5716H171.447V19.8051H173.467V16.5716Z" fill="#37D7FF"/>
<path d="M173.467 42.0352H171.447V45.2687H173.467V42.0352Z" fill="#37D7FF"/>
<path d="M174.274 94.1751H171.447V94.5793H174.274V94.1751Z" fill="#37D7FF"/>
<path d="M171.447 26.2721V27.0804H172.255V28.6972H171.447V29.5054H173.467V26.2721H171.447Z" fill="#37D7FF"/>
<path d="M171.447 31.5263V32.3349H172.255V33.9516H171.447V34.7599H173.467V31.5263H171.447Z" fill="#37D7FF"/>
<path d="M171.447 36.7808V37.5894H172.255V39.2059H171.447V40.0144H173.467V36.7808H171.447Z" fill="#37D7FF"/>
<path d="M173.467 52.544H171.447V55.7775H173.467V52.544Z" fill="#37D7FF"/>
<path d="M171.447 47.2898V48.098H172.255V49.7148H171.447V50.5231H173.467V47.2898H171.447Z" fill="#37D7FF"/>
<path d="M173.467 63.0529H171.447V66.2864H173.467V63.0529Z" fill="#37D7FF"/>
<path d="M171.447 57.7984V58.6067H172.255V60.2235H171.447V61.032H173.467V57.7984H171.447Z" fill="#37D7FF"/>
<path d="M173.467 73.5617H171.447V76.7951H173.467V73.5617Z" fill="#37D7FF"/>
<path d="M171.447 68.3072V69.1157H172.255V70.7325H171.447V71.5407H173.467V68.3072H171.447Z" fill="#37D7FF"/>
<path d="M173.467 84.0705H171.447V87.304H173.467V84.0705Z" fill="#37D7FF"/>
<path d="M173.467 97.8128H171.447V101.046H173.467V97.8128Z" fill="#37D7FF"/>
<path d="M171.447 78.8161V79.6244H172.255V81.2412H171.447V82.0497H173.467V78.8161H171.447Z" fill="#37D7FF"/>
<path d="M171.447 103.471V104.28H172.255V105.896H171.447V106.705H173.467V103.471H171.447Z" fill="#37D7FF"/>
<path d="M183.16 16.5716H181.14V19.8051H183.16V16.5716Z" fill="#37D7FF"/>
<path d="M183.16 42.0352H181.14V45.2687H183.16V42.0352Z" fill="#37D7FF"/>
<path d="M183.967 94.1751H181.14V94.5793H183.967V94.1751Z" fill="#37D7FF"/>
<path d="M181.14 26.2721V27.0804H181.948V28.6972H181.14V29.5054H183.16V26.2721H181.14Z" fill="#37D7FF"/>
<path d="M181.14 31.5263V32.3349H181.948V33.9516H181.14V34.7599H183.16V31.5263H181.14Z" fill="#37D7FF"/>
<path d="M181.14 36.7808V37.5894H181.948V39.2059H181.14V40.0144H183.16V36.7808H181.14Z" fill="#37D7FF"/>
<path d="M183.16 52.544H181.14V55.7775H183.16V52.544Z" fill="#37D7FF"/>
<path d="M181.14 47.2898V48.098H181.948V49.7148H181.14V50.5231H183.16V47.2898H181.14Z" fill="#37D7FF"/>
<path d="M183.16 63.0529H181.14V66.2864H183.16V63.0529Z" fill="#37D7FF"/>
<path d="M181.14 57.7984V58.6067H181.948V60.2235H181.14V61.032H183.16V57.7984H181.14Z" fill="#37D7FF"/>
<path d="M183.16 73.5617H181.14V76.7951H183.16V73.5617Z" fill="#37D7FF"/>
<path d="M181.14 68.3072V69.1157H181.948V70.7325H181.14V71.5407H183.16V68.3072H181.14Z" fill="#37D7FF"/>
<path d="M183.16 84.0705H181.14V87.304H183.16V84.0705Z" fill="#37D7FF"/>
<path d="M183.16 97.8128H181.14V101.046H183.16V97.8128Z" fill="#37D7FF"/>
<path d="M181.14 78.8161V79.6244H181.948V81.2412H181.14V82.0497H183.16V78.8161H181.14Z" fill="#37D7FF"/>
<path d="M181.14 103.471V104.28H181.948V105.896H181.14V106.705H183.16V103.471H181.14Z" fill="#37D7FF"/>
<path d="M152.869 97.8128V98.6211H153.676V100.238H152.869V101.046H154.888V97.8128H152.869Z" fill="#37D7FF"/>
<path d="M152.869 103.067V103.876H153.676V105.492H152.869V106.301H154.888V103.067H152.869Z" fill="#37D7FF"/>
<path d="M142.368 42.0353V42.8435H143.175V44.4603H142.368V45.2688H144.387V42.0353H142.368Z" fill="#37D7FF"/>
<path d="M142.368 62.6488V63.457H143.175V65.0738H142.368V65.8821H144.387V62.6488H142.368Z" fill="#37D7FF"/>
<path d="M142.368 67.903V68.7115H143.175V70.3283H142.368V71.1366H144.387V67.903H142.368Z" fill="#37D7FF"/>
<path d="M142.368 78.412V79.2202H143.175V80.837H142.368V81.6453H144.387V78.412H142.368Z" fill="#37D7FF"/>
<path d="M142.368 93.3666V94.1751H143.175V95.7919H142.368V96.6002H144.387V93.3666H142.368Z" fill="#37D7FF"/>
<path d="M142.368 97.8128V98.6211H143.175V100.238H142.368V101.046H144.387V97.8128H142.368Z" fill="#37D7FF"/>
<path d="M165.389 17.3799H163.37V20.6134H165.389V17.3799Z" fill="#37D7FF"/>
<path d="M165.389 22.6344H163.37V25.8678H165.389V22.6344Z" fill="#37D7FF"/>
<path d="M165.389 28.2929H162.562V28.6971H165.389V28.2929Z" fill="#37D7FF"/>
<path d="M165.389 54.1608H162.562V54.565H165.389V54.1608Z" fill="#37D7FF"/>
<path d="M165.389 58.6068H162.562V59.011H165.389V58.6068Z" fill="#37D7FF"/>
<path d="M163.369 31.9307V32.739H164.177V34.3558H163.369V35.164H165.389V31.9307H163.369Z" fill="#37D7FF"/>
<path d="M163.369 42.0353V42.8435H164.177V44.4603H163.369V45.2688H165.389V42.0353H163.369Z" fill="#37D7FF"/>
<path d="M163.369 62.6488V63.457H164.177V65.0738H163.369V65.8821H165.389V62.6488H163.369Z" fill="#37D7FF"/>
<path d="M188.41 52.544H186.391V55.7775H188.41V52.544Z" fill="#37D7FF"/>
<path d="M188.41 57.7984H186.391V61.0319H188.41V57.7984Z" fill="#37D7FF"/>
<path d="M188.41 63.4571H185.583V63.8613H188.41V63.4571Z" fill="#37D7FF"/>
<path d="M188.41 89.3249H185.583V89.7291H188.41V89.3249Z" fill="#37D7FF"/>
<path d="M188.41 93.7709H185.583V94.1751H188.41V93.7709Z" fill="#37D7FF"/>
<path d="M186.391 67.0948V67.903H187.198V69.5198H186.391V70.3283H188.41V67.0948H186.391Z" fill="#37D7FF"/>
<path d="M186.391 77.1993V78.0078H187.198V79.6243H186.391V80.4329H188.41V77.1993H186.391Z" fill="#37D7FF"/>
<path d="M186.391 97.8128V98.6211H187.198V100.238H186.391V101.046H188.41V97.8128H186.391Z" fill="#37D7FF"/>
<path d="M194.592 81.1004V94.7198L192.76 103.101C192.76 103.101 193.022 108.339 192.76 109.911C192.498 111.482 193.022 114.101 194.592 114.101C196.162 114.101 196.947 118.03 196.947 118.03C196.947 118.03 197.471 119.601 198.779 119.863C200.088 120.125 200.088 119.863 200.088 119.863L201.135 122.482L222.857 136.888L218.67 147.364C218.67 147.364 212.127 145.007 211.603 144.221C211.08 143.435 206.631 145.269 206.631 143.435C206.631 141.602 205.846 136.888 204.275 136.626C202.705 136.364 189.619 130.34 189.619 130.34C189.619 130.34 182.815 122.744 182.291 119.863C181.768 116.982 179.412 108.863 179.412 108.863L172.87 119.863V141.864L173.916 153.65L162.401 152.078C162.401 152.078 163.448 144.745 162.401 143.697C161.354 142.65 159.784 130.078 160.831 128.506C161.878 126.935 160.307 119.863 160.831 118.816C161.354 117.768 161.092 110.173 162.401 108.077C163.71 105.982 171.561 84.5052 171.561 84.5052L194.592 81.1004Z" fill="#2F2E41"/>
<path d="M172.346 153.126C172.346 153.126 176.272 159.674 173.655 160.46C171.038 161.245 166.065 160.46 165.542 160.46C165.018 160.46 155.597 160.722 155.597 160.722C155.597 160.722 149.315 159.412 149.315 157.579C149.315 155.745 153.241 155.745 154.55 155.483C155.858 155.221 163.971 152.078 163.971 152.078L172.346 153.126Z" fill="#2F2E41"/>
<path d="M221.655 137.183C221.655 137.183 229.219 136.181 228.9 138.896C228.58 141.612 225.883 145.866 225.675 146.347C225.534 146.672 223.881 150.793 222.829 153.42C222.068 155.345 220.925 157.096 219.469 158.567C218.441 159.596 217.319 160.421 216.584 160.102C214.903 159.374 216.463 155.769 216.743 154.463C217.023 153.157 217.366 144.457 217.366 144.457L221.655 137.183Z" fill="#2F2E41"/>
<path d="M169.075 37.7539L160.7 18.3725C160.7 18.3725 161.485 16.5391 163.317 16.801C163.317 16.801 165.803 10.3842 170.514 10.3842C170.514 10.3842 177.581 6.45548 179.674 10.3842C179.674 10.3842 184.123 14.3128 183.862 17.9796C183.6 21.6464 183.338 24.2655 183.338 24.2655C183.338 24.2655 187.526 24.7893 186.741 26.8846C185.955 28.9799 185.694 28.9799 186.741 29.7656L187.787 30.5514C187.787 30.5514 209.51 50.1948 197.471 79.0051L196.424 83.4576V87.6482C196.424 87.6482 169.991 87.9101 169.991 87.6482C169.991 87.3862 170.514 85.8148 169.467 84.7671C168.421 83.7195 168.421 82.148 168.421 82.148C168.421 82.148 169.467 76.9098 168.944 75.3383C168.421 73.7668 168.159 66.9571 169.206 65.3857C170.253 63.8142 169.729 51.2424 169.729 51.2424L167.374 46.7899L168.159 44.1708L168.944 41.5517L169.075 37.7539Z" fill="#8985A8"/>
<path opacity="0.1" d="M171.299 90.2673C171.299 90.2673 174.44 81.6242 174.178 80.0527C173.917 78.4812 174.702 75.3383 174.702 75.3383L175.749 54.1234C175.749 54.1234 171.299 35.2658 181.245 32.1228C181.245 32.1228 183.761 33.2217 185.823 36.7579C187.862 37.6667 190.336 39.9669 190.928 45.7422C191.975 55.9568 187.264 82.148 184.909 86.6005C182.553 91.053 180.983 94.1959 180.983 94.1959L178.521 93.101C178.419 93.3028 178.366 93.4102 178.366 93.4102L171.299 90.2673Z" fill="black"/>
<path d="M169.86 35.3967C169.426 35.3967 169.075 35.0449 169.075 34.611C169.075 34.1771 169.426 33.8253 169.86 33.8253C170.294 33.8253 170.645 34.1771 170.645 34.611C170.645 35.0449 170.294 35.3967 169.86 35.3967Z" fill="#F2F2F2"/>
<path d="M169.598 34.611H170.122V46.9209H169.598V34.611Z" fill="#3F3D56"/>
<path d="M179.282 91.184L177.188 95.6365C177.188 95.6365 172.477 94.065 172.477 93.2793C172.477 92.4935 174.571 89.0887 174.571 89.0887L179.282 91.184Z" fill="#FFB8B8"/>
<path d="M182.291 32.1228C182.291 32.1228 188.311 34.7419 189.358 44.9565C190.405 55.1711 185.694 81.3623 183.338 85.8148C180.983 90.2673 179.413 93.4102 179.413 93.4102L172.346 90.2673C172.346 90.2673 175.487 81.6242 175.225 80.0527C174.963 78.4812 175.749 75.3383 175.749 75.3383L176.795 54.1234C176.795 54.1234 172.346 35.2658 182.291 32.1228Z" fill="#8985A8"/>
</svg>