<svg width="199" height="156" viewBox="0 0 199 156" fill="none" xmlns="http://www.w3.org/2000/svg">
<g opacity="0.7">
<path opacity="0.7" d="M125.741 64.517C125.759 59.2528 124.504 54.0629 122.085 49.393C120.936 47.2001 119.889 45.8367 119.073 45.0006C118.766 44.6731 118.365 44.4502 117.925 44.3631C117.485 44.2759 117.03 44.3289 116.621 44.5145C116.295 44.6301 116 44.821 115.761 45.0719C114.67 46.2062 113.685 47.7056 112.825 49.3023C110.28 54.0813 108.959 59.4214 108.981 64.8411V68.095H106.903V30.285C106.903 22.36 105.138 14.5409 101.679 7.59897C100.04 4.31274 98.5449 2.271 97.3942 1.01571C97.1154 0.696597 96.772 0.440922 96.387 0.265764C96.002 0.0906064 95.5842 0 95.1615 0C94.7389 0 94.3211 0.0906064 93.936 0.265764C93.551 0.440922 93.2076 0.696597 92.9289 1.01571C91.3716 2.71608 89.967 4.96307 88.7388 7.35266C85.1016 14.4372 83.254 22.4767 83.254 30.6371V68.095H81.4579V64.6856C81.4802 59.2658 80.1593 53.9257 77.6142 49.1467C76.7538 47.5522 75.7687 46.0528 74.6782 44.9163C74.3643 44.5842 73.9535 44.3609 73.505 44.2786C73.0566 44.1963 72.5937 44.2592 72.1831 44.4583L72.2584 44.4994C71.995 44.6163 71.7569 44.7836 71.5572 44.992C70.7506 45.8281 69.7031 47.1914 68.5459 49.3844C66.1268 54.0543 64.872 59.2441 64.8893 64.5084V121.038H71.2991L70.6 125.685V139.58H75.8397V125.685L75.1406 121.038H81.4579V69.5577H83.254V120.806H88.3732L87.6376 125.683V139.58H92.8794V125.685L92.1438 120.809H99.0418L98.3062 125.685V139.58H103.548V125.685L102.812 120.809H106.899V69.5577H108.977V121.115H110.661V121.038H116.23L115.531 125.685V139.58H120.773V125.685L120.074 121.038H125.741V64.517Z" fill="url(#paint0_linear)"/>
</g>
<path d="M76.8829 122.976H71.9207L72.8069 116.924H75.9967L76.8829 122.976Z" fill="#535461"/>
<g opacity="0.1">
<path opacity="0.1" d="M72.5596 119.326H76.2441L75.9968 117.635H72.8069L72.5596 119.326Z" fill="black"/>
</g>
<path d="M119.42 122.976H114.458L115.344 116.924H118.534L119.42 122.976Z" fill="#535461"/>
<g opacity="0.1">
<path opacity="0.1" d="M115.096 119.326H118.781L118.534 117.635H115.344L115.096 119.326Z" fill="black"/>
</g>
<path d="M93.0129 122.976H88.0485L88.9347 116.924H92.1267L93.0129 122.976Z" fill="#535461"/>
<g opacity="0.1">
<path opacity="0.1" d="M88.6873 119.326H92.374L92.1266 117.635H88.9346L88.6873 119.326Z" fill="black"/>
</g>
<path d="M103.113 122.976H98.1513L99.0375 116.924H102.227L103.113 122.976Z" fill="#535461"/>
<g opacity="0.1">
<path opacity="0.1" d="M98.7902 119.326H102.477L102.227 117.635H99.0375L98.7902 119.326Z" fill="black"/>
</g>
<path d="M112.33 66.8958H76.8829V68.3197H112.33V66.8958Z" fill="#535461"/>
<path d="M117.811 44.3978C117.624 44.1901 117.395 44.0241 117.14 43.9105C116.885 43.7969 116.609 43.7382 116.33 43.7382C116.051 43.7382 115.775 43.7969 115.52 43.9105C115.265 44.0241 115.036 44.1901 114.849 44.3978C113.817 45.5019 112.885 46.9624 112.07 48.5159C109.658 53.1875 108.41 58.3772 108.433 63.6399V118.451H124.12V63.413C124.139 58.2946 122.952 53.2444 120.655 48.6757C119.566 46.5411 118.575 45.2123 117.811 44.3978Z" fill="#E0E0E0"/>
<path d="M72.8284 44.3978C73.0157 44.1901 73.2442 44.0241 73.4993 43.9105C73.7544 43.7969 74.0303 43.7382 74.3093 43.7382C74.5883 43.7382 74.8642 43.7969 75.1193 43.9105C75.3743 44.0241 75.6029 44.1901 75.7902 44.3978C76.8227 45.5019 77.754 46.9624 78.5692 48.5159C80.9816 53.1875 82.2297 58.3772 82.2064 63.6399V118.451H66.5154V63.413C66.4957 58.2946 67.6831 53.2444 69.9805 48.6757C71.0668 46.5411 72.0583 45.2123 72.8284 44.3978Z" fill="#E0E0E0"/>
<path d="M66.6037 64.5819L70.3248 64.5992V69.2098H66.6037V64.5819Z" fill="#535461"/>
<path d="M78.4789 64.5819L82.2001 64.5992V69.2098H78.4789V64.5819Z" fill="#535461"/>
<path d="M108.431 64.5819L112.154 64.5992V69.2098H108.431V64.5819Z" fill="#535461"/>
<path d="M120.306 64.5819L124.029 64.5992V69.2098H120.306V64.5819Z" fill="#535461"/>
<g opacity="0.1">
<path opacity="0.1" d="M78.5629 48.4446C77.7498 46.8911 76.8163 45.4306 75.7838 44.3265C75.4921 44.0028 75.1029 43.7839 74.6757 43.7032C74.2485 43.6224 73.8068 43.6843 73.4178 43.8793C73.6419 43.9916 73.8444 44.143 74.0158 44.3265C75.0482 45.4306 75.9796 46.8911 76.7948 48.4446C79.2071 53.1162 80.4552 58.3059 80.432 63.5686V118.376H82.2044V63.575C82.2273 58.3099 80.9777 53.1178 78.5629 48.4446V48.4446Z" fill="black"/>
</g>
<g opacity="0.1">
<path opacity="0.1" d="M113.481 48.5958C114.294 47.0424 115.228 45.5818 116.26 44.4778C116.453 44.2688 116.687 44.1012 116.946 43.9851C116.563 43.8165 116.136 43.7733 115.727 43.8617C115.318 43.9501 114.947 44.1657 114.666 44.4778C113.634 45.5818 112.702 47.0424 111.887 48.5958C109.475 53.2674 108.227 58.4572 108.25 63.7198V118.527H109.846V63.7284C109.821 58.4631 111.068 53.2702 113.481 48.5958V48.5958Z" fill="black"/>
</g>
<path d="M76.8829 122.976H71.9207V136.505H76.8829V122.976Z" fill="url(#paint1_linear)"/>
<path d="M93.0107 122.976H88.0485V136.505H93.0107V122.976Z" fill="url(#paint2_linear)"/>
<path d="M103.113 122.976H98.1513V136.505H103.113V122.976Z" fill="url(#paint3_linear)"/>
<path d="M119.42 122.976H114.458V136.505H119.42V122.976Z" fill="url(#paint4_linear)"/>
<path d="M97.2845 1.42405C97.0253 1.11455 96.7018 0.865743 96.3368 0.695051C95.9717 0.524358 95.5739 0.435913 95.1713 0.435913C94.7686 0.435913 94.3708 0.524358 94.0057 0.695051C93.6407 0.865743 93.3172 1.11455 93.058 1.42405C91.5846 3.07905 90.2618 5.26771 89.0916 7.5968C85.6502 14.4977 83.8993 22.3297 83.8993 30.272V118.227H106.288V29.9177C106.288 22.2001 104.617 14.5776 101.341 7.83447C99.7904 4.63466 98.3751 2.64693 97.2845 1.42405Z" fill="#EEEEEE"/>
<path d="M98.4138 11.1941H91.4642C90.1575 11.1941 89.0981 12.2582 89.0981 13.5708V14.1952C89.0981 15.5078 90.1575 16.5718 91.4642 16.5718H98.4138C99.7206 16.5718 100.78 15.5078 100.78 14.1952V13.5708C100.78 12.2582 99.7206 11.1941 98.4138 11.1941Z" fill="#37D7FF"/>
<g opacity="0.7">
<path opacity="0.7" d="M147.251 135.027C146.516 130.578 144.139 126.57 140.594 123.802C137.048 121.034 132.595 119.71 128.121 120.094C123.647 120.477 119.481 122.54 116.453 125.871C113.426 129.202 111.76 133.557 111.786 138.067C111.786 138.156 111.786 138.242 111.786 138.331C111.126 138.431 110.472 138.572 109.829 138.752C109.005 135.456 107.181 132.499 104.61 130.29C102.039 128.081 98.8475 126.73 95.4781 126.424C92.1086 126.117 88.7277 126.871 85.8035 128.58C82.8792 130.289 80.5563 132.869 79.1565 135.963C77.7136 135.404 76.1982 135.056 74.6567 134.93V134.93C74.4109 133.528 73.9986 132.161 73.4285 130.857C73.161 126.745 71.3597 122.885 68.3841 120.048C65.4085 117.21 61.4774 115.604 57.3749 115.55C53.2725 115.495 49.3004 116.996 46.2511 119.753C43.2018 122.511 41.2994 126.321 40.9236 130.425C40.0791 132.222 39.5396 134.147 39.3276 136.123C35.5939 137.683 32.5699 140.58 30.8416 144.253C29.1133 147.925 28.8039 152.111 29.9732 156H160.66C161.341 153.732 161.524 151.342 161.198 148.996C160.871 146.65 160.042 144.403 158.768 142.409C157.493 140.416 155.803 138.724 153.815 137.449C151.827 136.175 149.587 135.349 147.251 135.027V135.027Z" fill="url(#paint5_linear)"/>
</g>
<path d="M58.6581 147.818C67.3097 147.818 74.3233 140.773 74.3233 132.082C74.3233 123.392 67.3097 116.347 58.6581 116.347C50.0064 116.347 42.9928 123.392 42.9928 132.082C42.9928 140.773 50.0064 147.818 58.6581 147.818Z" fill="url(#paint6_linear)"/>
<path d="M58.5806 155.214C68.0543 155.214 75.7343 147.499 75.7343 137.983C75.7343 128.467 68.0543 120.752 58.5806 120.752C49.1069 120.752 41.4269 128.467 41.4269 137.983C41.4269 147.499 49.1069 155.214 58.5806 155.214Z" fill="url(#paint7_linear)"/>
<path d="M128.292 155.214C137.766 155.214 145.446 147.499 145.446 137.983C145.446 128.467 137.766 120.752 128.292 120.752C118.819 120.752 111.139 128.467 111.139 137.983C111.139 147.499 118.819 155.214 128.292 155.214Z" fill="url(#paint8_linear)"/>
<path d="M127.43 155.213C136.082 155.213 143.095 148.168 143.095 139.478C143.095 130.788 136.082 123.743 127.43 123.743C118.778 123.743 111.765 130.788 111.765 139.478C111.765 148.168 118.778 155.213 127.43 155.213Z" fill="url(#paint9_linear)"/>
<path d="M109.728 142.468C109.73 144.957 109.144 147.41 108.018 149.626C106.891 151.842 105.257 153.758 103.249 155.216H84.8736C82.6987 153.637 80.9639 151.523 79.8353 149.078C78.7068 146.632 78.2223 143.936 78.4284 141.249C78.6344 138.561 79.5241 135.972 81.0121 133.728C82.5001 131.485 84.5366 129.663 86.9266 128.438C89.3166 127.212 91.9799 126.623 94.6614 126.727C97.3429 126.832 99.9528 127.626 102.241 129.034C104.529 130.443 106.419 132.417 107.73 134.77C109.04 137.122 109.727 139.773 109.726 142.468H109.728Z" fill="url(#paint10_linear)"/>
<path d="M129.155 153.798C129.155 154.269 129.134 154.735 129.092 155.196C129.094 155.203 129.094 155.209 129.092 155.216H97.8868C97.8438 154.749 97.8223 154.276 97.8223 153.801C97.8196 150.035 99.1625 146.394 101.607 143.539C104.051 140.684 107.434 138.805 111.141 138.244C111.915 138.127 112.698 138.068 113.481 138.067C113.881 138.067 114.279 138.082 114.673 138.11C117.48 138.326 120.179 139.297 122.483 140.922C124.788 142.547 126.615 144.766 127.772 147.345C127.836 147.487 127.899 147.632 127.957 147.777C128.748 149.685 129.155 151.731 129.155 153.798V153.798Z" fill="url(#paint11_linear)"/>
<path d="M158.763 150.65C158.764 152.196 158.538 153.734 158.091 155.214H128.107C127.383 152.794 127.245 150.235 127.705 147.751C127.731 147.615 127.757 147.477 127.787 147.343C128.542 143.825 130.474 140.672 133.261 138.412C136.049 136.151 139.523 134.917 143.106 134.917C143.598 134.917 144.082 134.939 144.562 134.986C144.777 135.004 144.992 135.029 145.207 135.058C148.962 135.571 152.404 137.433 154.896 140.3C157.389 143.167 158.762 146.844 158.763 150.65V150.65Z" fill="url(#paint12_linear)"/>
<path d="M62.5319 155.216C62.5835 155.051 62.6287 154.887 62.6739 154.721C63.387 152.042 63.3831 149.221 62.6625 146.544C61.942 143.867 60.5303 141.428 58.5704 139.475C56.6104 137.522 54.1717 136.124 51.5009 135.421C48.8302 134.719 46.0221 134.737 43.3607 135.475C42.7375 135.646 42.126 135.858 41.5302 136.11C37.9426 137.609 35.0369 140.393 33.3765 143.922C31.7162 147.451 31.4193 151.473 32.5436 155.209H62.5319V155.216Z" fill="url(#paint13_linear)"/>
<g opacity="0.7">
<path opacity="0.7" d="M152.809 122.852C154.396 122.852 155.682 121.56 155.682 119.966C155.682 118.372 154.396 117.079 152.809 117.079C151.222 117.079 149.935 118.372 149.935 119.966C149.935 121.56 151.222 122.852 152.809 122.852Z" fill="url(#paint14_linear)"/>
</g>
<path d="M152.809 122.641C154.279 122.641 155.471 121.443 155.471 119.966C155.471 118.489 154.279 117.291 152.809 117.291C151.338 117.291 150.146 118.489 150.146 119.966C150.146 121.443 151.338 122.641 152.809 122.641Z" fill="url(#paint15_linear)"/>
<g opacity="0.7">
<path opacity="0.7" d="M165.968 150.966C167.699 150.966 169.102 149.556 169.102 147.818C169.102 146.079 167.699 144.67 165.968 144.67C164.237 144.67 162.834 146.079 162.834 147.818C162.834 149.556 164.237 150.966 165.968 150.966Z" fill="url(#paint16_linear)"/>
</g>
<path d="M165.968 150.808C167.612 150.808 168.945 149.469 168.945 147.818C168.945 146.166 167.612 144.828 165.968 144.828C164.324 144.828 162.991 146.166 162.991 147.818C162.991 149.469 164.324 150.808 165.968 150.808Z" fill="url(#paint17_linear)"/>
<g opacity="0.7">
<path opacity="0.7" d="M31.8704 133.338C33.7722 133.338 35.314 131.789 35.314 129.879C35.314 127.968 33.7722 126.42 31.8704 126.42C29.9685 126.42 28.4267 127.968 28.4267 129.879C28.4267 131.789 29.9685 133.338 31.8704 133.338Z" fill="url(#paint18_linear)"/>
</g>
<path d="M31.8704 133.182C33.6867 133.182 35.1592 131.703 35.1592 129.879C35.1592 128.054 33.6867 126.575 31.8704 126.575C30.054 126.575 28.5816 128.054 28.5816 129.879C28.5816 131.703 30.054 133.182 31.8704 133.182Z" fill="url(#paint19_linear)"/>
<path opacity="0.25" d="M155.472 65.2063C156.077 65.2063 156.569 64.713 156.569 64.1044C156.569 63.4958 156.077 63.0025 155.472 63.0025C154.866 63.0025 154.375 63.4958 154.375 64.1044C154.375 64.713 154.866 65.2063 155.472 65.2063Z" fill="#535461"/>
<path opacity="0.25" d="M9.20818 94.158C9.81402 94.158 10.3052 93.6646 10.3052 93.0561C10.3052 92.4475 9.81402 91.9541 9.20818 91.9541C8.60234 91.9541 8.11121 92.4475 8.11121 93.0561C8.11121 93.6646 8.60234 94.158 9.20818 94.158Z" fill="#535461"/>
<path opacity="0.25" d="M62.1039 48.2112C62.7097 48.2112 63.2008 47.7179 63.2008 47.1093C63.2008 46.5008 62.7097 46.0074 62.1039 46.0074C61.498 46.0074 61.0069 46.5008 61.0069 47.1093C61.0069 47.7179 61.498 48.2112 62.1039 48.2112Z" fill="#535461"/>
<path opacity="0.25" d="M58.501 22.8764C59.1069 22.8764 59.598 22.383 59.598 21.7745C59.598 21.1659 59.1069 20.6726 58.501 20.6726C57.8952 20.6726 57.4041 21.1659 57.4041 21.7745C57.4041 22.383 57.8952 22.8764 58.501 22.8764Z" fill="#535461"/>
<path opacity="0.25" d="M27.4824 73.0729C28.0883 73.0729 28.5794 72.5796 28.5794 71.971C28.5794 71.3625 28.0883 70.8691 27.4824 70.8691C26.8766 70.8691 26.3855 71.3625 26.3855 71.971C26.3855 72.5796 26.8766 73.0729 27.4824 73.0729Z" fill="#535461"/>
<path opacity="0.25" d="M182.653 73.2652H181.676V72.2865H181.279V73.2652H180.302V73.6671H181.279V74.6458H181.676V73.6671H182.653V73.2652Z" fill="#535461"/>
<path opacity="0.25" d="M199 39.3442H198.024V38.3655H197.626V39.3442H196.649V39.7461H197.626V40.7248H198.024V39.7461H199V39.3442Z" fill="#535461"/>
<path opacity="0.25" d="M129.389 20.3939H128.413V19.413H128.015V20.3939H127.038V20.7936H128.015V21.7745H128.413V20.7936H129.389V20.3939Z" fill="#535461"/>
<path opacity="0.25" d="M171.999 67.7579H171.023V66.7792H170.625V67.7579H169.651V68.1598H170.625V69.1385H171.023V68.1598H171.999V67.7579Z" fill="#535461"/>
<path opacity="0.25" d="M136.281 100.331H135.307V99.3519H134.909V100.331H133.932V100.733H134.909V101.711H135.307V100.733H136.281V100.331Z" fill="#535461"/>
<path opacity="0.25" d="M36.3357 33.1391H35.3592V32.1603H34.9613V33.1391H33.9847V33.5388H34.9613V34.5197H35.3592V33.5388H36.3357V33.1391Z" fill="#535461"/>
<path opacity="0.25" d="M2.35097 45.8864H1.37445V44.9077H0.976524V45.8864H0V46.2862H0.976524V47.267H1.37445V46.2862H2.35097V45.8864Z" fill="#535461"/>
<path opacity="0.25" d="M49.807 86.0126H48.8305V85.0317H48.4325V86.0126H47.4582V86.4123H48.4325V87.3932H48.8305V86.4123H49.807V86.0126Z" fill="#535461"/>
<path d="M165.968 150.808C167.612 150.808 168.945 149.469 168.945 147.818C168.945 146.166 167.612 144.828 165.968 144.828C164.324 144.828 162.991 146.166 162.991 147.818C162.991 149.469 164.324 150.808 165.968 150.808Z" fill="url(#paint20_linear)"/>
<g opacity="0.4">
<path opacity="0.4" d="M57.8515 64.8822C57.488 64.3992 57.0325 63.9938 56.5115 63.6895C55.9139 63.3401 55.2441 63.1338 54.5543 63.0865C53.8644 63.0391 53.173 63.1522 52.5337 63.4168C51.8944 63.6813 51.3243 64.0904 50.8679 64.6121C50.4114 65.1338 50.0808 65.7541 49.9017 66.425C49.7225 67.0958 49.6997 67.7991 49.835 68.4803C49.9703 69.1614 50.2601 69.8021 50.6818 70.3525C51.1035 70.9029 51.6458 71.3483 52.2666 71.6541C52.8875 71.9599 53.5701 72.1179 54.2616 72.1158C54.3562 72.1158 54.453 72.1158 54.5455 72.1158C55.356 72.0637 56.1374 71.7922 56.8068 71.3302C57.4761 70.8681 58.0085 70.2327 58.3475 69.4913C58.6864 68.7499 58.8193 67.9302 58.7319 67.1191C58.6446 66.308 58.3404 65.5358 57.8515 64.8843V64.8822Z" fill="url(#paint21_linear)"/>
</g>
<path opacity="0.2" d="M58.5119 67.6045C58.5118 68.6906 58.0999 69.7359 57.3599 70.5278C56.6199 71.3197 55.6074 71.7987 54.5283 71.8673C54.4401 71.8673 54.3498 71.8673 54.2595 71.8673C53.6075 71.8667 52.9645 71.7154 52.38 71.4254C51.7956 71.1353 51.2853 70.7141 50.8887 70.1943C50.4921 69.6746 50.2198 69.0702 50.0928 68.4279C49.9659 67.7856 49.9876 67.1226 50.1564 66.4901C50.3251 65.8575 50.6364 65.2725 51.0662 64.7801C51.4959 64.2877 52.0327 63.9011 52.6349 63.6502C53.2371 63.3994 53.8886 63.291 54.5392 63.3334C55.1897 63.3758 55.8219 63.5679 56.3867 63.8948V63.8948C56.879 64.1821 57.3097 64.5647 57.6536 65.0205V65.0205C58.2142 65.7639 58.5158 66.6719 58.5119 67.6045V67.6045Z" fill="#37D7FF"/>
<path opacity="0.1" d="M53.2119 64.8951C52.9884 64.9896 52.7726 65.1016 52.5666 65.23C52.4316 65.3041 52.3153 65.4083 52.2267 65.5347C52.1858 65.5992 52.164 65.6742 52.164 65.7507C52.164 65.8273 52.1858 65.9023 52.2267 65.9668C52.2893 66.0284 52.3643 66.0758 52.4467 66.1056C52.5291 66.1354 52.617 66.147 52.7042 66.1396C52.8601 66.1717 53.0217 66.162 53.1727 66.1116C53.3237 66.0612 53.4589 65.9717 53.5646 65.8523L53.9303 65.5196C54.0572 65.4029 54.197 65.2452 54.1454 65.0874C54.1165 65.0278 54.0729 64.9766 54.0186 64.9387C53.9644 64.9009 53.9014 64.8777 53.8356 64.8714C53.5215 64.8096 53.1956 64.8674 52.9215 65.0334" fill="#F55F44"/>
<path opacity="0.1" d="M51.6848 69.5144C51.8084 69.5144 51.9085 69.4138 51.9085 69.2897C51.9085 69.1657 51.8084 69.065 51.6848 69.065C51.5613 69.065 51.4611 69.1657 51.4611 69.2897C51.4611 69.4138 51.5613 69.5144 51.6848 69.5144Z" fill="#F55F44"/>
<path opacity="0.1" d="M56.2362 68.6913C56.69 68.6913 57.0578 68.3218 57.0578 67.866C57.0578 67.4101 56.69 67.0406 56.2362 67.0406C55.7824 67.0406 55.4145 67.4101 55.4145 67.866C55.4145 68.3218 55.7824 68.6913 56.2362 68.6913Z" fill="#F55F44"/>
<path opacity="0.1" d="M57.6536 65.0399C57.6509 65.2551 57.5867 65.465 57.4686 65.6446C57.3506 65.8243 57.1836 65.966 56.9877 66.0531C56.7917 66.1402 56.575 66.1689 56.3633 66.1358C56.1515 66.1027 55.9537 66.0092 55.7934 65.8664C55.633 65.7237 55.5168 65.5377 55.4587 65.3305C55.4005 65.1234 55.4029 64.9038 55.4654 64.6979C55.5279 64.492 55.6479 64.3085 55.8113 64.1692C55.9746 64.0299 56.1743 63.9407 56.3867 63.9121V63.9121C56.8792 64.2 57.3098 64.5834 57.6536 65.0399V65.0399Z" fill="#F55F44"/>
<path opacity="0.1" d="M57.7375 70.0654C57.3718 70.5885 56.8938 71.0222 56.3386 71.3345C55.7835 71.6468 55.1655 71.8296 54.5304 71.8695C54.5304 71.8111 54.5304 71.7506 54.5304 71.6901C54.5292 71.3134 54.6327 70.9439 54.8292 70.623C55.0256 70.3021 55.3073 70.0427 55.6426 69.8739C55.9778 69.7051 56.3533 69.6335 56.7269 69.6674C57.1004 69.7012 57.457 69.8391 57.7568 70.0654H57.7375Z" fill="#F55F44"/>
<g opacity="0.1">
<path opacity="0.1" d="M106.168 33.2795H84.0134V34.1437H106.168V33.2795Z" fill="black"/>
</g>
<defs>
<linearGradient id="paint0_linear" x1="95.3164" y1="139.58" x2="95.3164" y2="0.00672191" gradientUnits="userSpaceOnUse">
<stop stop-color="#808080" stop-opacity="0.25"/>
<stop offset="0.54" stop-color="#808080" stop-opacity="0.12"/>
<stop offset="1" stop-color="#808080" stop-opacity="0.1"/>
</linearGradient>
<linearGradient id="paint1_linear" x1="74.4007" y1="122.976" x2="74.4007" y2="136.507" gradientUnits="userSpaceOnUse">
<stop stop-color="#E0E0E0"/>
<stop offset="0.31" stop-color="#FCCC63"/>
<stop offset="0.77" stop-color="#F55F44"/>
</linearGradient>
<linearGradient id="paint2_linear" x1="2176.59" y1="8473.37" x2="2176.59" y2="9320.73" gradientUnits="userSpaceOnUse">
<stop stop-color="#E0E0E0"/>
<stop offset="0.31" stop-color="#FCCC63"/>
<stop offset="0.77" stop-color="#F55F44"/>
</linearGradient>
<linearGradient id="paint3_linear" x1="2419.76" y1="8473.37" x2="2419.76" y2="9320.73" gradientUnits="userSpaceOnUse">
<stop stop-color="#E0E0E0"/>
<stop offset="0.31" stop-color="#FCCC63"/>
<stop offset="0.77" stop-color="#F55F44"/>
</linearGradient>
<linearGradient id="paint4_linear" x1="2812.26" y1="8473.37" x2="2812.26" y2="9320.73" gradientUnits="userSpaceOnUse">
<stop stop-color="#E0E0E0"/>
<stop offset="0.31" stop-color="#FCCC63"/>
<stop offset="0.77" stop-color="#F55F44"/>
</linearGradient>
<linearGradient id="paint5_linear" x1="76707.8" y1="33894.8" x2="76707.8" y2="26319.8" gradientUnits="userSpaceOnUse">
<stop stop-color="#808080" stop-opacity="0.25"/>
<stop offset="0.54" stop-color="#808080" stop-opacity="0.12"/>
<stop offset="1" stop-color="#808080" stop-opacity="0.1"/>
</linearGradient>
<linearGradient id="paint6_linear" x1="58.6581" y1="116.347" x2="58.6581" y2="147.818" gradientUnits="userSpaceOnUse">
<stop stop-color="#F2F2F2"/>
<stop offset="0.31" stop-color="#E6E6E6"/>
<stop offset="0.77" stop-color="#CCCCCC"/>
</linearGradient>
<linearGradient id="paint7_linear" x1="9385.04" y1="21035.5" x2="9385.04" y2="26532.1" gradientUnits="userSpaceOnUse">
<stop stop-color="#F2F2F2"/>
<stop offset="0.31" stop-color="#E6E6E6"/>
<stop offset="0.77" stop-color="#CCCCCC"/>
</linearGradient>
<linearGradient id="paint8_linear" x1="20573.8" y1="21035.5" x2="20573.8" y2="26532.1" gradientUnits="userSpaceOnUse">
<stop stop-color="#F2F2F2"/>
<stop offset="0.31" stop-color="#E6E6E6"/>
<stop offset="0.77" stop-color="#CCCCCC"/>
</linearGradient>
<linearGradient id="paint9_linear" x1="18673.2" y1="19659.3" x2="18673.2" y2="24243.3" gradientUnits="userSpaceOnUse">
<stop stop-color="#F2F2F2"/>
<stop offset="0.31" stop-color="#E6E6E6"/>
<stop offset="0.77" stop-color="#CCCCCC"/>
</linearGradient>
<linearGradient id="paint10_linear" x1="18093.3" y1="20063.8" x2="18093.3" y2="23821" gradientUnits="userSpaceOnUse">
<stop stop-color="#F2F2F2"/>
<stop offset="0.31" stop-color="#E6E6E6"/>
<stop offset="0.77" stop-color="#CCCCCC"/>
</linearGradient>
<linearGradient id="paint11_linear" x1="20934.9" y1="13033.4" x2="20934.9" y2="14394.8" gradientUnits="userSpaceOnUse">
<stop stop-color="#F2F2F2"/>
<stop offset="0.31" stop-color="#E6E6E6"/>
<stop offset="0.77" stop-color="#CCCCCC"/>
</linearGradient>
<linearGradient id="paint12_linear" x1="25270.8" y1="15101.7" x2="25270.8" y2="17008.7" gradientUnits="userSpaceOnUse">
<stop stop-color="#F2F2F2"/>
<stop offset="0.31" stop-color="#E6E6E6"/>
<stop offset="0.77" stop-color="#CCCCCC"/>
</linearGradient>
<linearGradient id="paint13_linear" x1="11261.9" y1="15110.4" x2="11261.9" y2="17018.6" gradientUnits="userSpaceOnUse">
<stop stop-color="#F2F2F2"/>
<stop offset="0.31" stop-color="#E6E6E6"/>
<stop offset="0.77" stop-color="#CCCCCC"/>
</linearGradient>
<linearGradient id="paint14_linear" x1="4232.98" y1="3676.91" x2="4232.98" y2="3522.66" gradientUnits="userSpaceOnUse">
<stop stop-color="#808080" stop-opacity="0.25"/>
<stop offset="0.54" stop-color="#808080" stop-opacity="0.12"/>
<stop offset="1" stop-color="#808080" stop-opacity="0.1"/>
</linearGradient>
<linearGradient id="paint15_linear" x1="3933.69" y1="3278.3" x2="3933.69" y2="3410.76" gradientUnits="userSpaceOnUse">
<stop stop-color="#F2F2F2"/>
<stop offset="0.31" stop-color="#E6E6E6"/>
<stop offset="0.77" stop-color="#CCCCCC"/>
</linearGradient>
<linearGradient id="paint16_linear" x1="4999.15" y1="4846.14" x2="4999.15" y2="4662.74" gradientUnits="userSpaceOnUse">
<stop stop-color="#808080" stop-opacity="0.25"/>
<stop offset="0.54" stop-color="#808080" stop-opacity="0.12"/>
<stop offset="1" stop-color="#808080" stop-opacity="0.1"/>
</linearGradient>
<linearGradient id="paint17_linear" x1="165.968" y1="144.828" x2="165.968" y2="150.808" gradientUnits="userSpaceOnUse">
<stop stop-color="#F2F2F2"/>
<stop offset="0.31" stop-color="#E0E0E0"/>
<stop offset="0.77" stop-color="#B3B3B3"/>
</linearGradient>
<linearGradient id="paint18_linear" x1="1048.92" y1="4728.09" x2="1048.92" y2="4506.57" gradientUnits="userSpaceOnUse">
<stop stop-color="#808080" stop-opacity="0.25"/>
<stop offset="0.54" stop-color="#808080" stop-opacity="0.12"/>
<stop offset="1" stop-color="#808080" stop-opacity="0.1"/>
</linearGradient>
<linearGradient id="paint19_linear" x1="1003.18" y1="4314.51" x2="1003.18" y2="4516.62" gradientUnits="userSpaceOnUse">
<stop stop-color="#F2F2F2"/>
<stop offset="0.31" stop-color="#E6E6E6"/>
<stop offset="0.77" stop-color="#CCCCCC"/>
</linearGradient>
<linearGradient id="paint20_linear" x1="4756.99" y1="4440.84" x2="4756.99" y2="4606.38" gradientUnits="userSpaceOnUse">
<stop stop-color="#F2F2F2"/>
<stop offset="0.31" stop-color="#E6E6E6"/>
<stop offset="0.77" stop-color="#CCCCCC"/>
</linearGradient>
<linearGradient id="paint21_linear" x1="3560.66" y1="4101.99" x2="3560.66" y2="3723.76" gradientUnits="userSpaceOnUse">
<stop stop-color="#808080" stop-opacity="0.25"/>
<stop offset="0.54" stop-color="#808080" stop-opacity="0.12"/>
<stop offset="1" stop-color="#808080" stop-opacity="0.1"/>
</linearGradient>
</defs>
</svg>