<svg width="276" height="165" viewBox="0 0 276 165" fill="none" xmlns="http://www.w3.org/2000/svg">
<path d="M276 0H0V165H276V0Z" fill="#3F3D56"/>
<path d="M52 23H49V28H52V23Z" fill="#37D7FF"/>
<path d="M60 23H57V27H60V23Z" fill="#37D7FF"/>
<path d="M65 23H62V27H65V23Z" fill="#37D7FF"/>
<path d="M65 35H62V39H65V35Z" fill="#37D7FF"/>
<path d="M70 29H67V33H70V29Z" fill="#37D7FF"/>
<path d="M70 36H67V40H70V36Z" fill="#37D7FF"/>
<path d="M65 49H62V53H65V49Z" fill="#37D7FF"/>
<path d="M70 56H67V61H70V56Z" fill="#37D7FF"/>
<path d="M65 83H62V87H65V83Z" fill="#37D7FF"/>
<path d="M60 56H57V61H60V56Z" fill="#37D7FF"/>
<path d="M52 30H49V35H52V30Z" fill="#37D7FF"/>
<path d="M52 97H49V102H52V97Z" fill="#37D7FF"/>
<path d="M52 111H49V116H52V111Z" fill="#37D7FF"/>
<path d="M52 119H49V123H52V119Z" fill="#37D7FF"/>
<path d="M52 37H49V38H52V37Z" fill="#37D7FF"/>
<path d="M52 72H49V73H52V72Z" fill="#37D7FF"/>
<path d="M52 78H49V79H52V78Z" fill="#37D7FF"/>
<path d="M61 126H57V127H61V126Z" fill="#37D7FF"/>
<path d="M49 43V43.9999H50.1998V46.0001H49V47H52V43H49Z" fill="#37D7FF"/>
<path d="M57 35V35.9999H58.1998V38.0001H57V39H60V35H57Z" fill="#37D7FF"/>
<path d="M67 42V43.0002H68.1998V45.0002H67V46H70V42H67Z" fill="#37D7FF"/>
<path d="M67 63V64.2499H68.1998V66.7501H67V68H70V63H67Z" fill="#37D7FF"/>
<path d="M67 70V71.2502H68.1998V73.7502H67V75H70V70H67Z" fill="#37D7FF"/>
<path d="M67 49V49.9998H68.1998V51.9998H67V53H70V49H67Z" fill="#37D7FF"/>
<path d="M62 29V30.0002H63.2001V31.9998H62V33H65V29H62Z" fill="#37D7FF"/>
<path d="M65 63H62V68H65V63Z" fill="#37D7FF"/>
<path d="M65 76H62V80H65V76Z" fill="#37D7FF"/>
<path d="M62 70V70.9998H63.2001V72.9998H62V74H65V70H62Z" fill="#37D7FF"/>
<path d="M57 42V43.0002H58.1998V45.0002H57V46H60V42H57Z" fill="#37D7FF"/>
<path d="M57 49V50.0002H58.1998V51.9998H57V53H60V49H57Z" fill="#37D7FF"/>
<path d="M60 70H57V75H60V70Z" fill="#37D7FF"/>
<path d="M57 63V64.2499H58.1998V66.7501H57V68H60V63H57Z" fill="#37D7FF"/>
<path d="M60 85H57V89H60V85Z" fill="#37D7FF"/>
<path d="M57 77V77.9998H58.1998V79.9998H57V81H60V77H57Z" fill="#37D7FF"/>
<path d="M60 98H57V103H60V98Z" fill="#37D7FF"/>
<path d="M65 97H62V102H65V97Z" fill="#37D7FF"/>
<path d="M57 91V92.0002H58.1998V94.0002H57V95H60V91H57Z" fill="#37D7FF"/>
<path d="M67 91V92.0002H68.1998V94.0002H67V95H70V91H67Z" fill="#37D7FF"/>
<path d="M94 29H93V33H94V29Z" fill="#37D7FF"/>
<path d="M94 36H93V40H94V36Z" fill="#37D7FF"/>
<path d="M94 56H93V61H94V56Z" fill="#37D7FF"/>
<path d="M93 42V43.0002H93.4001V45.0002H93V46H94V42H93Z" fill="#37D7FF"/>
<path d="M93 63V64.2499H93.4001V66.7501H93V68H94V63H93Z" fill="#37D7FF"/>
<path d="M93 70V71.2502H93.4001V73.7502H93V75H94V70H93Z" fill="#37D7FF"/>
<path d="M93 49V49.9998H93.4001V51.9998H93V53H94V49H93Z" fill="#37D7FF"/>
<path d="M93 91V92.0002H93.4001V94.0002H93V95H94V91H93Z" fill="#37D7FF"/>
<path d="M60 113H57V117H60V113Z" fill="#37D7FF"/>
<path d="M65 104H62V109H65V104Z" fill="#37D7FF"/>
<path d="M60 131H57V135H60V131Z" fill="#37D7FF"/>
<path d="M65 118H62V122H65V118Z" fill="#37D7FF"/>
<path d="M57 105V106.25H58.1998V108.75H57V110H60V105H57Z" fill="#37D7FF"/>
<path d="M57 138V139H58.1998V141H57V142H60V138H57Z" fill="#37D7FF"/>
<path d="M87 23H85V27H87V23Z" fill="#37D7FF"/>
<path d="M87 56H85V61H87V56Z" fill="#37D7FF"/>
<path d="M89 126H85V127H89V126Z" fill="#37D7FF"/>
<path d="M85 35V35.9999H85.8002V38.0001H85V39H87V35H85Z" fill="#37D7FF"/>
<path d="M85 42V43.0002H85.8002V45.0002H85V46H87V42H85Z" fill="#37D7FF"/>
<path d="M85 49V50.0002H85.8002V51.9998H85V53H87V49H85Z" fill="#37D7FF"/>
<path d="M87 70H85V75H87V70Z" fill="#37D7FF"/>
<path d="M85 63V64.2499H85.8002V66.7501H85V68H87V63H85Z" fill="#37D7FF"/>
<path d="M87 85H85V89H87V85Z" fill="#37D7FF"/>
<path d="M85 77V77.9998H85.8002V79.9998H85V81H87V77H85Z" fill="#37D7FF"/>
<path d="M87 98H85V103H87V98Z" fill="#37D7FF"/>
<path d="M85 91V92.0002H85.8002V94.0002H85V95H87V91H85Z" fill="#37D7FF"/>
<path d="M87 113H85V117H87V113Z" fill="#37D7FF"/>
<path d="M87 131H85V135H87V131Z" fill="#37D7FF"/>
<path d="M85 105V106.25H85.8002V108.75H85V110H87V105H85Z" fill="#37D7FF"/>
<path d="M85 138V139H85.8002V141H85V142H87V138H85Z" fill="#37D7FF"/>
<path d="M99 23H97V27H99V23Z" fill="#37D7FF"/>
<path d="M99 56H97V61H99V56Z" fill="#37D7FF"/>
<path d="M101 126H97V127H101V126Z" fill="#37D7FF"/>
<path d="M97 35V35.9999H97.8002V38.0001H97V39H99V35H97Z" fill="#37D7FF"/>
<path d="M97 42V43.0002H97.8002V45.0002H97V46H99V42H97Z" fill="#37D7FF"/>
<path d="M97 49V50.0002H97.8002V51.9998H97V53H99V49H97Z" fill="#37D7FF"/>
<path d="M99 70H97V75H99V70Z" fill="#37D7FF"/>
<path d="M97 63V64.2499H97.8002V66.7501H97V68H99V63H97Z" fill="#37D7FF"/>
<path d="M99 85H97V89H99V85Z" fill="#37D7FF"/>
<path d="M97 77V77.9998H97.8002V79.9998H97V81H99V77H97Z" fill="#37D7FF"/>
<path d="M99 98H97V103H99V98Z" fill="#37D7FF"/>
<path d="M97 91V92.0002H97.8002V94.0002H97V95H99V91H97Z" fill="#37D7FF"/>
<path d="M99 113H97V117H99V113Z" fill="#37D7FF"/>
<path d="M99 131H97V135H99V131Z" fill="#37D7FF"/>
<path d="M97 105V106.25H97.8002V108.75H97V110H99V105H97Z" fill="#37D7FF"/>
<path d="M97 138V139H97.8002V141H97V142H99V138H97Z" fill="#37D7FF"/>
<path d="M62 131V132H63.2001V134H62V135H65V131H62Z" fill="#37D7FF"/>
<path d="M62 137V138.25H63.2001V140.75H62V142H65V137H62Z" fill="#37D7FF"/>
<path d="M49 56V57.2498H50.1998V59.7498H49V61H52V56H49Z" fill="#37D7FF"/>
<path d="M49 84V84.9999H50.1998V87.0001H49V88H52V84H49Z" fill="#37D7FF"/>
<path d="M49 91V92.0002H50.1998V94.0002H49V95H52V91H49Z" fill="#37D7FF"/>
<path d="M49 105V106H50.1998V108H49V109H52V105H49Z" fill="#37D7FF"/>
<path d="M49 125V126H50.1998V128H49V129H52V125H49Z" fill="#37D7FF"/>
<path d="M49 131V132H50.1998V134H49V135H52V131H49Z" fill="#37D7FF"/>
<path d="M77 23H75V28H77V23Z" fill="#37D7FF"/>
<path d="M77 30H75V35H77V30Z" fill="#37D7FF"/>
<path d="M77 37H75V38H77V37Z" fill="#37D7FF"/>
<path d="M77 72H75V73H77V72Z" fill="#37D7FF"/>
<path d="M77 78H75V79H77V78Z" fill="#37D7FF"/>
<path d="M75 43V43.9999H75.7999V46.0001H75V47H77V43H75Z" fill="#37D7FF"/>
<path d="M75 56V57.2498H75.7999V59.7498H75V61H77V56H75Z" fill="#37D7FF"/>
<path d="M75 84V84.9999H75.7999V87.0001H75V88H77V84H75Z" fill="#37D7FF"/>
<path d="M105 70H103V75H105V70Z" fill="#37D7FF"/>
<path d="M105 77H103V81H105V77Z" fill="#37D7FF"/>
<path d="M105 125H102V126H105V125Z" fill="#37D7FF"/>
<path d="M103 89V90.2498H103.8V92.7498H103V94H105V89H103Z" fill="#37D7FF"/>
<path d="M103 103V104H103.8V106H103V107H105V103H103Z" fill="#37D7FF"/>
<path d="M103 131V132H103.8V134H103V135H105V131H103Z" fill="#37D7FF"/>
<path d="M113 23H111V28H113V23Z" fill="#37D7FF"/>
<path d="M121 23H119V27H121V23Z" fill="#37D7FF"/>
<path d="M126 23H123V27H126V23Z" fill="#37D7FF"/>
<path d="M126 35H123V39H126V35Z" fill="#37D7FF"/>
<path d="M131 29H128V33H131V29Z" fill="#37D7FF"/>
<path d="M131 36H128V40H131V36Z" fill="#37D7FF"/>
<path d="M126 49H123V53H126V49Z" fill="#37D7FF"/>
<path d="M131 56H128V61H131V56Z" fill="#37D7FF"/>
<path d="M126 83H123V87H126V83Z" fill="#37D7FF"/>
<path d="M121 56H119V61H121V56Z" fill="#37D7FF"/>
<path d="M113 30H111V35H113V30Z" fill="#37D7FF"/>
<path d="M113 97H111V102H113V97Z" fill="#37D7FF"/>
<path d="M113 111H111V116H113V111Z" fill="#37D7FF"/>
<path d="M113 119H111V123H113V119Z" fill="#37D7FF"/>
<path d="M113 37H110V38H113V37Z" fill="#37D7FF"/>
<path d="M113 72H110V73H113V72Z" fill="#37D7FF"/>
<path d="M113 78H110V79H113V78Z" fill="#37D7FF"/>
<path d="M123 126H119V127H123V126Z" fill="#37D7FF"/>
<path d="M111 43V43.9999H111.8V46.0001H111V47H113V43H111Z" fill="#37D7FF"/>
<path d="M119 35V35.9999H119.8V38.0001H119V39H121V35H119Z" fill="#37D7FF"/>
<path d="M128 42V43.0002H129.2V45.0002H128V46H131V42H128Z" fill="#37D7FF"/>
<path d="M128 63V64.2499H129.2V66.7501H128V68H131V63H128Z" fill="#37D7FF"/>
<path d="M128 70V71.2502H129.2V73.7502H128V75H131V70H128Z" fill="#37D7FF"/>
<path d="M128 49V49.9998H129.2V51.9998H128V53H131V49H128Z" fill="#37D7FF"/>
<path d="M123 29V30.0002H124.2V31.9998H123V33H126V29H123Z" fill="#37D7FF"/>
<path d="M126 63H123V68H126V63Z" fill="#37D7FF"/>
<path d="M126 76H123V80H126V76Z" fill="#37D7FF"/>
<path d="M123 70V70.9998H124.2V72.9998H123V74H126V70H123Z" fill="#37D7FF"/>
<path d="M119 42V43.0002H119.8V45.0002H119V46H121V42H119Z" fill="#37D7FF"/>
<path d="M119 49V50.0002H119.8V51.9998H119V53H121V49H119Z" fill="#37D7FF"/>
<path d="M121 70H119V75H121V70Z" fill="#37D7FF"/>
<path d="M119 63V64.2499H119.8V66.7501H119V68H121V63H119Z" fill="#37D7FF"/>
<path d="M121 85H119V89H121V85Z" fill="#37D7FF"/>
<path d="M119 77V77.9998H119.8V79.9998H119V81H121V77H119Z" fill="#37D7FF"/>
<path d="M121 98H119V103H121V98Z" fill="#37D7FF"/>
<path d="M126 97H123V102H126V97Z" fill="#37D7FF"/>
<path d="M119 91V92.0002H119.8V94.0002H119V95H121V91H119Z" fill="#37D7FF"/>
<path d="M128 91V92.0002H129.2V94.0002H128V95H131V91H128Z" fill="#37D7FF"/>
<path d="M155 29H153V33H155V29Z" fill="#37D7FF"/>
<path d="M155 36H153V40H155V36Z" fill="#37D7FF"/>
<path d="M155 56H153V61H155V56Z" fill="#37D7FF"/>
<path d="M153 42V43.0002H153.8V45.0002H153V46H155V42H153Z" fill="#37D7FF"/>
<path d="M153 63V64.2499H153.8V66.7501H153V68H155V63H153Z" fill="#37D7FF"/>
<path d="M153 70V71.2502H153.8V73.7502H153V75H155V70H153Z" fill="#37D7FF"/>
<path d="M153 49V49.9998H153.8V51.9998H153V53H155V49H153Z" fill="#37D7FF"/>
<path d="M153 91V92.0002H153.8V94.0002H153V95H155V91H153Z" fill="#37D7FF"/>
<path d="M121 113H119V117H121V113Z" fill="#37D7FF"/>
<path d="M126 104H123V109H126V104Z" fill="#37D7FF"/>
<path d="M121 131H119V135H121V131Z" fill="#37D7FF"/>
<path d="M126 118H123V122H126V118Z" fill="#37D7FF"/>
<path d="M119 105V106.25H119.8V108.75H119V110H121V105H119Z" fill="#37D7FF"/>
<path d="M119 138V139H119.8V141H119V142H121V138H119Z" fill="#37D7FF"/>
<path d="M148 23H146V27H148V23Z" fill="#37D7FF"/>
<path d="M148 56H146V61H148V56Z" fill="#37D7FF"/>
<path d="M149 126H146V127H149V126Z" fill="#37D7FF"/>
<path d="M146 35V35.9999H146.8V38.0001H146V39H148V35H146Z" fill="#37D7FF"/>
<path d="M146 42V43.0002H146.8V45.0002H146V46H148V42H146Z" fill="#37D7FF"/>
<path d="M146 49V50.0002H146.8V51.9998H146V53H148V49H146Z" fill="#37D7FF"/>
<path d="M148 70H146V75H148V70Z" fill="#37D7FF"/>
<path d="M146 63V64.2499H146.8V66.7501H146V68H148V63H146Z" fill="#37D7FF"/>
<path d="M148 85H146V89H148V85Z" fill="#37D7FF"/>
<path d="M146 77V77.9998H146.8V79.9998H146V81H148V77H146Z" fill="#37D7FF"/>
<path d="M148 98H146V103H148V98Z" fill="#37D7FF"/>
<path d="M146 91V92.0002H146.8V94.0002H146V95H148V91H146Z" fill="#37D7FF"/>
<path d="M148 113H146V117H148V113Z" fill="#37D7FF"/>
<path d="M148 131H146V135H148V131Z" fill="#37D7FF"/>
<path d="M146 105V106.25H146.8V108.75H146V110H148V105H146Z" fill="#37D7FF"/>
<path d="M146 138V139H146.8V141H146V142H148V138H146Z" fill="#37D7FF"/>
<path d="M161 23H158V27H161V23Z" fill="#37D7FF"/>
<path d="M161 56H158V61H161V56Z" fill="#37D7FF"/>
<path d="M161 126H158V127H161V126Z" fill="#37D7FF"/>
<path d="M158 35V35.9999H159.2V38.0001H158V39H161V35H158Z" fill="#37D7FF"/>
<path d="M158 42V43.0002H159.2V45.0002H158V46H161V42H158Z" fill="#37D7FF"/>
<path d="M158 49V50.0002H159.2V51.9998H158V53H161V49H158Z" fill="#37D7FF"/>
<path d="M161 70H158V75H161V70Z" fill="#37D7FF"/>
<path d="M158 63V64.2499H159.2V66.7501H158V68H161V63H158Z" fill="#37D7FF"/>
<path d="M161 85H158V89H161V85Z" fill="#37D7FF"/>
<path d="M158 77V77.9998H159.2V79.9998H158V81H161V77H158Z" fill="#37D7FF"/>
<path d="M161 98H158V103H161V98Z" fill="#37D7FF"/>
<path d="M158 91V92.0002H159.2V94.0002H158V95H161V91H158Z" fill="#37D7FF"/>
<path d="M161 113H158V117H161V113Z" fill="#37D7FF"/>
<path d="M161 131H158V135H161V131Z" fill="#37D7FF"/>
<path d="M158 105V106.25H159.2V108.75H158V110H161V105H158Z" fill="#37D7FF"/>
<path d="M158 138V139H159.2V141H158V142H161V138H158Z" fill="#37D7FF"/>
<path d="M123 131V132H124.2V134H123V135H126V131H123Z" fill="#37D7FF"/>
<path d="M123 137V138.25H124.2V140.75H123V142H126V137H123Z" fill="#37D7FF"/>
<path d="M111 56V57.2498H111.8V59.7498H111V61H113V56H111Z" fill="#37D7FF"/>
<path d="M111 84V84.9999H111.8V87.0001H111V88H113V84H111Z" fill="#37D7FF"/>
<path d="M111 91V92.0002H111.8V94.0002H111V95H113V91H111Z" fill="#37D7FF"/>
<path d="M111 105V106H111.8V108H111V109H113V105H111Z" fill="#37D7FF"/>
<path d="M111 125V126H111.8V128H111V129H113V125H111Z" fill="#37D7FF"/>
<path d="M111 131V132H111.8V134H111V135H113V131H111Z" fill="#37D7FF"/>
<path d="M139 23H136V28H139V23Z" fill="#37D7FF"/>
<path d="M139 30H136V35H139V30Z" fill="#37D7FF"/>
<path d="M139 37H135V38H139V37Z" fill="#37D7FF"/>
<path d="M139 72H135V73H139V72Z" fill="#37D7FF"/>
<path d="M139 78H135V79H139V78Z" fill="#37D7FF"/>
<path d="M136 43V43.9999H137.2V46.0001H136V47H139V43H136Z" fill="#37D7FF"/>
<path d="M136 56V57.2498H137.2V59.7498H136V61H139V56H136Z" fill="#37D7FF"/>
<path d="M136 84V84.9999H137.2V87.0001H136V88H139V84H136Z" fill="#37D7FF"/>
<path d="M167 70H164V75H167V70Z" fill="#37D7FF"/>
<path d="M167 77H164V81H167V77Z" fill="#37D7FF"/>
<path d="M167 125H163V126H167V125Z" fill="#37D7FF"/>
<path d="M164 89V90.2498H165.2V92.7498H164V94H167V89H164Z" fill="#37D7FF"/>
<path d="M164 103V104H165.2V106H164V107H167V103H164Z" fill="#37D7FF"/>
<path d="M164 131V132H165.2V134H164V135H167V131H164Z" fill="#37D7FF"/>
<path d="M174 23H172V28H174V23Z" fill="#37D7FF"/>
<path d="M183 23H180V27H183V23Z" fill="#37D7FF"/>
<path d="M187 23H184V27H187V23Z" fill="#37D7FF"/>
<path d="M187 35H184V39H187V35Z" fill="#37D7FF"/>
<path d="M192 29H189V33H192V29Z" fill="#37D7FF"/>
<path d="M192 36H189V40H192V36Z" fill="#37D7FF"/>
<path d="M187 49H184V53H187V49Z" fill="#37D7FF"/>
<path d="M192 56H189V61H192V56Z" fill="#37D7FF"/>
<path d="M187 83H184V87H187V83Z" fill="#37D7FF"/>
<path d="M183 56H180V61H183V56Z" fill="#37D7FF"/>
<path d="M174 30H172V35H174V30Z" fill="#37D7FF"/>
<path d="M174 97H172V102H174V97Z" fill="#37D7FF"/>
<path d="M174 111H172V116H174V111Z" fill="#37D7FF"/>
<path d="M174 119H172V123H174V119Z" fill="#37D7FF"/>
<path d="M174 37H171V38H174V37Z" fill="#37D7FF"/>
<path d="M174 72H171V73H174V72Z" fill="#37D7FF"/>
<path d="M174 78H171V79H174V78Z" fill="#37D7FF"/>
<path d="M183 126H180V127H183V126Z" fill="#37D7FF"/>
<path d="M172 43V43.9999H172.8V46.0001H172V47H174V43H172Z" fill="#37D7FF"/>
<path d="M180 35V35.9999H181.2V38.0001H180V39H183V35H180Z" fill="#37D7FF"/>
<path d="M189 42V43.0002H190.2V45.0002H189V46H192V42H189Z" fill="#37D7FF"/>
<path d="M189 63V64.2499H190.2V66.7501H189V68H192V63H189Z" fill="#37D7FF"/>
<path d="M189 70V71.2502H190.2V73.7502H189V75H192V70H189Z" fill="#37D7FF"/>
<path d="M189 49V49.9998H190.2V51.9998H189V53H192V49H189Z" fill="#37D7FF"/>
<path d="M184 29V30.0002H185.2V31.9998H184V33H187V29H184Z" fill="#37D7FF"/>
<path d="M187 63H184V68H187V63Z" fill="#37D7FF"/>
<path d="M187 76H184V80H187V76Z" fill="#37D7FF"/>
<path d="M184 70V70.9998H185.2V72.9998H184V74H187V70H184Z" fill="#37D7FF"/>
<path d="M180 42V43.0002H181.2V45.0002H180V46H183V42H180Z" fill="#37D7FF"/>
<path d="M180 49V50.0002H181.2V51.9998H180V53H183V49H180Z" fill="#37D7FF"/>
<path d="M183 70H180V75H183V70Z" fill="#37D7FF"/>
<path d="M180 63V64.2499H181.2V66.7501H180V68H183V63H180Z" fill="#37D7FF"/>
<path d="M183 85H180V89H183V85Z" fill="#37D7FF"/>
<path d="M180 77V77.9998H181.2V79.9998H180V81H183V77H180Z" fill="#37D7FF"/>
<path d="M183 98H180V103H183V98Z" fill="#37D7FF"/>
<path d="M187 97H184V102H187V97Z" fill="#37D7FF"/>
<path d="M180 91V92.0002H181.2V94.0002H180V95H183V91H180Z" fill="#37D7FF"/>
<path d="M189 91V92.0002H190.2V94.0002H189V95H192V91H189Z" fill="#37D7FF"/>
<path d="M217 29H215V33H217V29Z" fill="#37D7FF"/>
<path d="M217 36H215V40H217V36Z" fill="#37D7FF"/>
<path d="M217 56H215V61H217V56Z" fill="#37D7FF"/>
<path d="M215 42V43.0002H215.8V45.0002H215V46H217V42H215Z" fill="#37D7FF"/>
<path d="M215 63V64.2499H215.8V66.7501H215V68H217V63H215Z" fill="#37D7FF"/>
<path d="M215 70V71.2502H215.8V73.7502H215V75H217V70H215Z" fill="#37D7FF"/>
<path d="M215 49V49.9998H215.8V51.9998H215V53H217V49H215Z" fill="#37D7FF"/>
<path d="M215 91V92.0002H215.8V94.0002H215V95H217V91H215Z" fill="#37D7FF"/>
<path d="M183 113H180V117H183V113Z" fill="#37D7FF"/>
<path d="M187 104H184V109H187V104Z" fill="#37D7FF"/>
<path d="M183 131H180V135H183V131Z" fill="#37D7FF"/>
<path d="M187 118H184V122H187V118Z" fill="#37D7FF"/>
<path d="M180 105V106.25H181.2V108.75H180V110H183V105H180Z" fill="#37D7FF"/>
<path d="M180 138V139H181.2V141H180V142H183V138H180Z" fill="#37D7FF"/>
<path d="M209 23H207V27H209V23Z" fill="#37D7FF"/>
<path d="M209 56H207V61H209V56Z" fill="#37D7FF"/>
<path d="M210 126H207V127H210V126Z" fill="#37D7FF"/>
<path d="M207 35V35.9999H207.8V38.0001H207V39H209V35H207Z" fill="#37D7FF"/>
<path d="M207 42V43.0002H207.8V45.0002H207V46H209V42H207Z" fill="#37D7FF"/>
<path d="M207 49V50.0002H207.8V51.9998H207V53H209V49H207Z" fill="#37D7FF"/>
<path d="M209 70H207V75H209V70Z" fill="#37D7FF"/>
<path d="M207 63V64.2499H207.8V66.7501H207V68H209V63H207Z" fill="#37D7FF"/>
<path d="M209 85H207V89H209V85Z" fill="#37D7FF"/>
<path d="M207 77V77.9998H207.8V79.9998H207V81H209V77H207Z" fill="#37D7FF"/>
<path d="M209 98H207V103H209V98Z" fill="#37D7FF"/>
<path d="M207 91V92.0002H207.8V94.0002H207V95H209V91H207Z" fill="#37D7FF"/>
<path d="M209 113H207V117H209V113Z" fill="#37D7FF"/>
<path d="M209 131H207V135H209V131Z" fill="#37D7FF"/>
<path d="M207 105V106.25H207.8V108.75H207V110H209V105H207Z" fill="#37D7FF"/>
<path d="M207 138V139H207.8V141H207V142H209V138H207Z" fill="#37D7FF"/>
<path d="M221 23H219V27H221V23Z" fill="#37D7FF"/>
<path d="M221 56H219V61H221V56Z" fill="#37D7FF"/>
<path d="M222 126H219V127H222V126Z" fill="#37D7FF"/>
<path d="M219 35V35.9999H219.8V38.0001H219V39H221V35H219Z" fill="#37D7FF"/>
<path d="M219 42V43.0002H219.8V45.0002H219V46H221V42H219Z" fill="#37D7FF"/>
<path d="M219 49V50.0002H219.8V51.9998H219V53H221V49H219Z" fill="#37D7FF"/>
<path d="M221 70H219V75H221V70Z" fill="#37D7FF"/>
<path d="M219 63V64.2499H219.8V66.7501H219V68H221V63H219Z" fill="#37D7FF"/>
<path d="M221 85H219V89H221V85Z" fill="#37D7FF"/>
<path d="M219 77V77.9998H219.8V79.9998H219V81H221V77H219Z" fill="#37D7FF"/>
<path d="M221 98H219V103H221V98Z" fill="#37D7FF"/>
<path d="M219 91V92.0002H219.8V94.0002H219V95H221V91H219Z" fill="#37D7FF"/>
<path d="M221 113H219V117H221V113Z" fill="#37D7FF"/>
<path d="M221 131H219V135H221V131Z" fill="#37D7FF"/>
<path d="M219 105V106.25H219.8V108.75H219V110H221V105H219Z" fill="#37D7FF"/>
<path d="M219 138V139H219.8V141H219V142H221V138H219Z" fill="#37D7FF"/>
<path d="M184 131V132H185.2V134H184V135H187V131H184Z" fill="#37D7FF"/>
<path d="M184 137V138.25H185.2V140.75H184V142H187V137H184Z" fill="#37D7FF"/>
<path d="M172 56V57.2498H172.8V59.7498H172V61H174V56H172Z" fill="#37D7FF"/>
<path d="M172 84V84.9999H172.8V87.0001H172V88H174V84H172Z" fill="#37D7FF"/>
<path d="M172 91V92.0002H172.8V94.0002H172V95H174V91H172Z" fill="#37D7FF"/>
<path d="M172 105V106H172.8V108H172V109H174V105H172Z" fill="#37D7FF"/>
<path d="M172 125V126H172.8V128H172V129H174V125H172Z" fill="#37D7FF"/>
<path d="M172 131V132H172.8V134H172V135H174V131H172Z" fill="#37D7FF"/>
<path d="M200 23H197V28H200V23Z" fill="#37D7FF"/>
<path d="M200 30H197V35H200V30Z" fill="#37D7FF"/>
<path d="M200 37H196V38H200V37Z" fill="#37D7FF"/>
<path d="M200 72H196V73H200V72Z" fill="#37D7FF"/>
<path d="M200 78H196V79H200V78Z" fill="#37D7FF"/>
<path d="M197 43V43.9999H198.2V46.0001H197V47H200V43H197Z" fill="#37D7FF"/>
<path d="M197 56V57.2498H198.2V59.7498H197V61H200V56H197Z" fill="#37D7FF"/>
<path d="M197 84V84.9999H198.2V87.0001H197V88H200V84H197Z" fill="#37D7FF"/>
<path d="M227 70H225V75H227V70Z" fill="#37D7FF"/>
<path d="M227 77H225V81H227V77Z" fill="#37D7FF"/>
<path d="M227 125H224V126H227V125Z" fill="#37D7FF"/>
<path d="M225 89V90.2498H225.8V92.7498H225V94H227V89H225Z" fill="#37D7FF"/>
<path d="M225 103V104H225.8V106H225V107H227V103H225Z" fill="#37D7FF"/>
<path d="M225 131V132H225.8V134H225V135H227V131H225Z" fill="#37D7FF"/>
<path d="M237.544 81V95.2671L235.634 104.047C235.634 104.047 235.907 109.534 235.634 111.18C235.362 112.827 235.907 115.57 237.544 115.57C239.18 115.57 239.998 119.686 239.998 119.686C239.998 119.686 240.544 121.332 241.908 121.606C243.271 121.881 243.271 121.606 243.271 121.606L244.362 124.35L267 139.44L262.636 150.415C262.636 150.415 255.818 147.946 255.272 147.123C254.727 146.3 250.09 148.22 250.09 146.3C250.09 144.379 249.272 139.44 247.635 139.166C245.999 138.892 232.362 132.581 232.362 132.581C232.362 132.581 225.27 124.625 224.725 121.606C224.179 118.588 221.725 110.083 221.725 110.083L214.906 121.606V144.653L215.997 157L203.996 155.354C203.996 155.354 205.087 147.671 203.996 146.574C202.905 145.477 201.269 132.307 202.36 130.661C203.451 129.014 201.814 121.606 202.36 120.509C202.905 119.412 202.633 111.455 203.996 109.26C205.36 107.065 213.542 84.5668 213.542 84.5668L237.544 81Z" fill="#2F2E41"/>
<path d="M213.725 157.08C213.725 157.08 217.769 163.83 215.073 164.64C212.377 165.45 207.255 164.64 206.715 164.64C206.176 164.64 196.471 164.91 196.471 164.91C196.471 164.91 190 163.56 190 161.67C190 159.78 194.044 159.78 195.392 159.51C196.74 159.24 205.098 156 205.098 156L213.725 157.08Z" fill="#2F2E41"/>
<path d="M265.244 140.187C265.244 140.187 273.331 139.149 272.989 141.962C272.648 144.775 269.764 149.181 269.542 149.679C269.391 150.017 267.624 154.286 266.498 157.006C265.685 159 264.463 160.814 262.907 162.338C261.807 163.404 260.608 164.258 259.821 163.928C258.024 163.173 259.692 159.439 259.992 158.086C260.291 156.734 260.658 147.722 260.658 147.722L265.244 140.187Z" fill="#2F2E41"/>
<path d="M211.498 36.5412L203 16.2109C203 16.2109 203.797 14.2878 205.656 14.5625C205.656 14.5625 208.178 7.83156 212.959 7.83156C212.959 7.83156 220.129 3.71056 222.253 7.83156C222.253 7.83156 226.768 11.9526 226.502 15.7988C226.237 19.6451 225.971 22.3924 225.971 22.3924C225.971 22.3924 230.22 22.9419 229.424 25.1398C228.627 27.3376 228.361 27.3376 229.424 28.1618L230.486 28.986C230.486 28.986 252.528 49.591 240.312 79.8117L239.249 84.4822V88.8779C239.249 88.8779 212.427 89.1526 212.427 88.8779C212.427 88.6032 212.959 86.9548 211.896 85.8558C210.834 84.7569 210.834 83.1085 210.834 83.1085C210.834 83.1085 211.896 77.6138 211.365 75.9654C210.834 74.317 210.569 67.174 211.631 65.5256C212.693 63.8772 212.162 50.69 212.162 50.69L209.772 46.0195L210.569 43.2722L211.365 40.5248L211.498 36.5412Z" fill="#8985A8"/>
<path opacity="0.1" d="M213 91.8861C213 91.8861 216.176 82.8355 215.911 81.1899C215.647 79.5443 216.44 76.2532 216.44 76.2532L217.499 54.038C217.499 54.038 213 34.2911 223.057 31C223.057 31 225.601 32.1507 227.686 35.8536C229.748 36.8053 232.25 39.2139 232.849 45.2616C233.907 55.9578 229.144 83.384 226.762 88.0464C224.38 92.7089 222.792 96 222.792 96L220.303 94.8534C220.2 95.0647 220.146 95.1772 220.146 95.1772L213 91.8861Z" fill="black"/>
<path d="M211 34C210.448 34 210 33.5523 210 33C210 32.4477 210.448 32 211 32C211.552 32 212 32.4477 212 33C212 33.5523 211.552 34 211 34Z" fill="#F2F2F2"/>
<path d="M211 33H212V46H211V33Z" fill="#3F3D56"/>
<path d="M221 92.6L219.154 96C219.154 96 215 94.8 215 94.2C215 93.6 216.846 91 216.846 91L221 92.6Z" fill="#FFB8B8"/>
<path d="M224.431 31C224.431 31 230.745 33.735 231.843 44.4017C232.941 55.0684 228 82.4188 225.529 87.0684C223.059 91.7179 221.412 95 221.412 95L214 91.7179C214 91.7179 217.294 82.6923 217.02 81.0513C216.745 79.4103 217.569 76.1282 217.569 76.1282L218.667 53.9744C218.667 53.9744 214 34.2821 224.431 31Z" fill="#8985A8"/>
</svg>