<svg width="282" height="179" viewBox="0 0 282 179" fill="none" xmlns="http://www.w3.org/2000/svg">
<path opacity="0.1" d="M276.037 57.2805C273.243 50.9058 269.477 45.0034 264.873 39.7841L109.969 38.2892L237.507 20.6732C229.256 17.4433 220.49 15.7331 211.631 15.6251C199.345 5.86534 183.567 0 166.355 0C150.911 0 136.63 4.73413 124.987 12.7323C114.706 7.54143 103.346 4.849 91.8297 4.87366C57.412 4.87366 28.7334 28.3201 22.2992 59.4109L276.037 57.2805Z" fill="#37D7FF"/>
<path opacity="0.1" d="M174.077 84.3622L190.976 86.9411L191.538 87.0258L191.922 87.0881L192.627 87.1927L195.434 87.6213L225.545 92.2134L235.392 93.7084L279.208 100.396C273.392 121.844 256.857 139.166 235.392 146.828C234.472 147.16 233.545 147.472 232.61 147.762C225.946 161.187 214.802 172.18 201.024 178.993H136.045C131.309 176.657 126.847 173.801 122.743 170.479C121.912 169.814 121.107 169.132 120.326 168.433C120.019 168.16 119.717 167.887 119.42 167.613C119.025 167.972 118.624 168.326 118.219 168.675C117.273 169.492 116.303 170.285 115.31 171.054C111.314 174.148 107.001 176.809 102.444 178.993H38.9738C35.8968 177.516 32.9292 175.821 30.0935 173.922C13.0677 162.533 1.53195 144.164 0 123.16L30.0685 120.018L38.5229 119.133L64.0554 116.465L85.0344 114.272L55.4391 109.932L37.2774 107.273L30.0685 106.214L1.89563 102.085C3.31254 96.6299 5.42653 91.3799 8.18534 86.4652L30.0685 84.2028L48.1281 82.339L66.2499 80.4703L97.1853 77.2909L97.6088 77.2436L189.947 67.713L194.084 67.2695L235.392 63.0038L276.648 58.7456C279.84 66.5572 281.48 74.9164 281.475 83.3556C281.475 83.6945 281.475 84.0259 281.475 84.3523L174.077 84.3622Z" fill="#37D7FF"/>
<path d="M235.397 53.1219V173.416C235.397 174.149 235.253 174.875 234.973 175.552C234.693 176.23 234.282 176.845 233.765 177.364C233.247 177.882 232.632 178.293 231.955 178.574C231.278 178.855 230.552 179 229.82 179H35.6583C34.2674 179 32.9268 178.479 31.8996 177.541C30.8724 176.603 30.2327 175.315 30.1059 173.929C30.0888 173.759 30.0805 173.588 30.081 173.416V53.1219C30.081 52.9998 30.081 52.8728 30.0935 52.7631H235.38C235.387 52.8728 235.397 52.9949 235.397 53.1219Z" fill="#4C4C78"/>
<path d="M229.82 47.7873H35.6583C34.6787 47.787 33.7164 48.0448 32.8681 48.5347C32.0197 49.0246 31.3153 49.7293 30.8258 50.578C30.3959 51.3206 30.1451 52.1533 30.0934 53.0098H235.38C235.289 51.5958 234.664 50.2693 233.632 49.2994C232.599 48.3294 231.236 47.7889 229.82 47.7873V47.7873Z" fill="#37D7FF"/>
<path d="M35.6458 51.9733C36.4162 51.9733 37.0407 51.3486 37.0407 50.578C37.0407 49.8074 36.4162 49.1826 35.6458 49.1826C34.8754 49.1826 34.2509 49.8074 34.2509 50.578C34.2509 51.3486 34.8754 51.9733 35.6458 51.9733Z" fill="#EDEDF4"/>
<path d="M39.8282 51.9733C40.5986 51.9733 41.2231 51.3486 41.2231 50.578C41.2231 49.8074 40.5986 49.1826 39.8282 49.1826C39.0578 49.1826 38.4332 49.8074 38.4332 50.578C38.4332 51.3486 39.0578 51.9733 39.8282 51.9733Z" fill="#EDEDF4"/>
<path d="M44.013 51.9733C44.7835 51.9733 45.408 51.3486 45.408 50.578C45.408 49.8074 44.7835 49.1826 44.013 49.1826C43.2426 49.1826 42.6181 49.8074 42.6181 50.578C42.6181 51.3486 43.2426 51.9733 44.013 51.9733Z" fill="#EDEDF4"/>
<path d="M66.2475 57.4574H37.2775V60.126H66.2475V57.4574Z" fill="#37D7FF"/>
<path opacity="0.5" d="M66.2475 70.4713H37.2775V73.1398H66.2475V70.4713Z" fill="#37D7FF"/>
<path opacity="0.5" d="M66.2475 79.668H37.2775V82.3365H66.2475V79.668Z" fill="#37D7FF"/>
<path opacity="0.5" d="M66.2475 88.8671H37.2775V91.5357H66.2475V88.8671Z" fill="#37D7FF"/>
<path opacity="0.5" d="M66.2475 98.0663H37.2775V100.735H66.2475V98.0663Z" fill="#37D7FF"/>
<path opacity="0.5" d="M66.2475 107.265H37.2775V109.934H66.2475V107.265Z" fill="#37D7FF"/>
<path opacity="0.5" d="M66.2475 116.465H37.2775V119.133H66.2475V116.465Z" fill="#37D7FF"/>
<path opacity="0.5" d="M66.2475 125.664H37.2775V128.332H66.2475V125.664Z" fill="#37D7FF"/>
<g opacity="0.5">
<path opacity="0.5" d="M127.391 129.857H108.522V133.861H127.391V129.857Z" fill="#DCE0ED"/>
<path opacity="0.5" d="M170.719 129.857H151.85V133.861H170.719V129.857Z" fill="#DCE0ED"/>
<path opacity="0.5" d="M214.044 129.857H195.175V133.861H214.044V129.857Z" fill="#DCE0ED"/>
</g>
<path d="M107.187 157.819C107.187 151.973 111.942 147.483 117.786 147.483H117.86V144.815H117.776C110.465 144.815 104.519 150.498 104.519 157.811C104.519 159.703 104.924 161.572 105.707 163.294C106.491 165.016 107.634 166.55 109.06 167.793L110.943 165.906C109.766 164.913 108.82 163.675 108.171 162.278C107.522 160.881 107.186 159.359 107.187 157.819V157.819Z" fill="#37D7FF"/>
<path opacity="0.5" d="M118.134 144.815V147.476C119.838 147.485 121.515 147.905 123.021 148.701C124.528 149.496 125.821 150.643 126.791 152.044C127.76 153.446 128.378 155.06 128.591 156.751C128.804 158.442 128.607 160.159 128.015 161.758C127.424 163.356 126.456 164.788 125.194 165.933C123.931 167.077 122.412 167.9 120.764 168.333C119.116 168.765 117.388 168.793 115.726 168.416C114.065 168.038 112.519 167.265 111.22 166.163L109.336 168.047C110.946 169.455 112.873 170.453 114.952 170.955C117.031 171.457 119.201 171.449 121.276 170.93C123.351 170.411 125.27 169.397 126.868 167.976C128.466 166.554 129.697 164.766 130.454 162.766C131.212 160.765 131.474 158.611 131.219 156.486C130.963 154.362 130.198 152.332 128.987 150.568C127.777 148.804 126.157 147.359 124.267 146.358C122.377 145.356 120.273 144.826 118.134 144.815Z" fill="#37D7FF"/>
<path opacity="0.5" d="M205.044 147.351C210.888 147.351 215.377 152.105 215.377 157.951V158.035H218.035C218.035 158.008 218.035 157.98 218.035 157.951C218.035 150.64 212.353 144.69 205.042 144.69C203.153 144.691 201.287 145.098 199.568 145.881C197.849 146.665 196.318 147.807 195.078 149.232L196.961 151.118C197.953 149.94 199.19 148.991 200.586 148.341C201.983 147.69 203.504 147.352 205.044 147.351V147.351Z" fill="#37D7FF"/>
<path d="M218.037 158.302H215.38C215.37 160.006 214.949 161.683 214.154 163.19C213.358 164.697 212.212 165.99 210.811 166.959C209.409 167.929 207.795 168.546 206.105 168.759C204.415 168.972 202.698 168.774 201.1 168.182C199.503 167.591 198.071 166.622 196.927 165.36C195.783 164.097 194.96 162.577 194.528 160.929C194.096 159.28 194.068 157.552 194.445 155.89C194.823 154.228 195.595 152.682 196.697 151.383L194.814 149.499C193.406 151.11 192.409 153.037 191.908 155.117C191.407 157.197 191.416 159.367 191.935 161.443C192.454 163.518 193.468 165.437 194.889 167.036C196.311 168.634 198.098 169.865 200.098 170.623C202.098 171.381 204.252 171.643 206.376 171.388C208.499 171.133 210.529 170.367 212.293 169.156C214.056 167.946 215.501 166.326 216.503 164.436C217.505 162.546 218.035 160.441 218.047 158.302H218.037Z" fill="#37D7FF"/>
<path opacity="0.5" d="M166.522 145.604L165.993 148.251C169.884 149.823 172.37 153.638 172.37 158.085C172.37 159.996 171.853 161.871 170.874 163.512C169.895 165.154 168.491 166.5 166.811 167.408C165.13 168.317 163.235 168.754 161.327 168.674C159.418 168.594 157.566 167.999 155.968 166.953C154.369 165.906 153.083 164.447 152.245 162.73C151.408 161.012 151.05 159.1 151.209 157.196C151.369 155.292 152.04 153.466 153.151 151.912C154.263 150.358 155.774 149.133 157.524 148.368L156.333 145.988C154.16 146.967 152.29 148.513 150.921 150.466C149.552 152.418 148.734 154.703 148.555 157.081C148.375 159.458 148.839 161.84 149.899 163.976C150.959 166.112 152.575 167.923 154.577 169.217C156.579 170.512 158.893 171.242 161.275 171.332C163.657 171.422 166.019 170.867 168.113 169.727C170.207 168.587 171.954 166.903 173.172 164.853C174.389 162.803 175.031 160.462 175.031 158.078C175.031 152.347 171.633 147.448 166.522 145.604Z" fill="#37D7FF"/>
<path d="M162.105 147.329C163.374 147.328 164.63 147.589 165.794 148.096L166.322 145.45C164.977 144.932 163.547 144.666 162.105 144.668C160.23 144.666 158.376 145.066 156.667 145.839L157.855 148.221C159.195 147.631 160.642 147.327 162.105 147.329V147.329Z" fill="#37D7FF"/>
<g opacity="0.1">
<path opacity="0.1" d="M37.8304 105.78C37.7283 105.965 36.9959 106.403 36.1042 106.887C36.022 106.239 35.9622 105.746 35.9497 105.596C35.8949 105.038 37.0831 102.551 37.0831 102.551C37.0831 102.551 39.3524 99.504 39.3001 99.048C39.2478 98.592 40.1769 97.2715 40.1769 97.2715L42.232 93.9327C42.1203 94.1875 42.0812 94.4683 42.119 94.744C42.1568 95.0197 42.27 95.2795 42.4462 95.4949C43.0664 96.3072 42.5483 97.9317 42.5483 97.9317L42.6729 99.9799L42.6853 100.182C42.6106 100.254 42.2818 100.57 41.5494 101.231C40.8719 101.841 40.9939 102.026 41.0687 102.075C40.9167 102.349 41.106 102.397 41.106 102.397C41.1658 102.397 41.2256 102.397 41.2829 102.384L41.121 102.534C39.8481 103.717 38.0147 105.447 37.8304 105.78Z" fill="url(#paint0_linear)"/>
</g>
<g opacity="0.1">
<path opacity="0.1" d="M24.7603 71.1839L24.3194 71.0593C24.4557 71.1322 24.6061 71.1747 24.7603 71.1839V71.1839Z" fill="black"/>
<path opacity="0.1" d="M24.7603 71.1839L25.2584 71.3259C25.1709 71.2658 25.0764 71.2164 24.977 71.1789C24.905 71.1868 24.8325 71.1885 24.7603 71.1839Z" fill="black"/>
<path opacity="0.1" d="M40.7449 82.8C40.0399 82.9395 39.2951 83.0317 38.6101 82.8124C37.7433 82.5334 37.0956 81.7884 36.6771 80.9786C36.3088 80.2586 36.0869 79.4727 36.0245 78.6663C35.9024 77.0592 36.4056 75.335 35.6932 73.8898C35.5649 73.5958 35.3537 73.3455 35.0854 73.1698C34.7715 72.9829 34.3904 72.9629 34.0442 72.8533C33.4463 72.6664 32.9656 72.2254 32.5072 71.7969L30.8582 70.2595C30.4881 69.8739 30.054 69.5553 29.5754 69.3177C28.6985 68.9464 27.6648 69.1582 26.8353 69.6216C26.3147 69.9132 25.7368 70.3093 25.1813 70.3691C25.2809 70.4061 25.3755 70.4555 25.4628 70.5161L24.9646 70.3741C24.8112 70.3661 24.6616 70.3244 24.5262 70.252L24.9646 70.3741C25.0367 70.3803 25.1092 70.3803 25.1813 70.3741C24.4788 70.1025 23.5696 70.3741 22.8971 69.978C22.5292 69.7382 22.2548 69.3793 22.1199 68.9614C21.9295 68.4449 21.8721 67.8888 21.953 67.3443C21.648 68.1223 21.6356 68.9847 21.9181 69.7711C22.053 70.1891 22.3274 70.548 22.6953 70.7877C23.3678 71.1739 24.2746 70.9123 24.9795 71.1839C25.535 71.1216 26.1129 70.7279 26.6335 70.4364C27.4655 69.9705 28.4993 69.7587 29.3736 70.1324C29.8524 70.3686 30.2859 70.6874 30.6539 71.0743L32.303 72.6116C32.7638 73.0377 33.2446 73.4787 33.8424 73.6681C34.1886 73.7777 34.5698 73.7976 34.8836 73.982C35.1519 74.1578 35.3631 74.4081 35.4914 74.7021C36.2038 76.1498 35.7007 77.8715 35.8227 79.4786C35.8833 80.2853 36.1053 81.0716 36.4753 81.7909C36.8913 82.6031 37.539 83.3481 38.4083 83.6272C39.0934 83.8465 39.8382 83.7543 40.5431 83.6147C42.2619 83.2725 43.9162 82.6621 45.4453 81.8058C45.3332 81.6339 45.2212 81.4595 45.1116 81.2826C43.7336 81.989 42.2639 82.4997 40.7449 82.8Z" fill="black"/>
<path opacity="0.1" d="M42.5483 71.4156C42.405 71.7565 42.2884 72.1081 42.1996 72.4671C42.1847 72.5468 42.1747 72.6241 42.1672 72.7038C42.3515 72.2935 42.4797 71.8602 42.5483 71.4156Z" fill="black"/>
</g>
<path d="M65 161.773L64.9973 161.774L53.1721 168.358L40.2231 161.884L40 161.773L40.672 148.333L52.3656 140L52.4946 140.081L64.5968 147.661L65 161.773Z" fill="#37D7FF"/>
<path opacity="0.3" d="M64.9973 161.774L53.1721 168.358L40.2231 161.884L51.6935 153.843L64.9973 161.774Z" fill="black"/>
<path opacity="0.1" d="M65 161.773L51.6935 153.843L52.4946 140.081L64.5968 147.661L65 161.773Z" fill="black"/>
<path d="M40.4999 152.48L40.4342 152.387L52.2583 144.042L64.7487 151.872L64.6882 151.969L52.2619 144.178L40.4999 152.48Z" fill="#F2F2F2"/>
<path d="M40.2708 157.046L40.2068 156.952L51.9709 148.965L52.0017 148.983L64.7593 156.213L64.7031 156.312L51.9763 149.099L40.2708 157.046Z" fill="#F2F2F2"/>
<path d="M44.7593 164.186L44.6993 164.089L56.5555 156.743V142.66H56.6694V156.806L44.7593 164.186Z" fill="#F2F2F2"/>
<path d="M49.4128 166.512L49.3524 166.416L60.7685 159.256V145.299H60.8823V159.319L49.4128 166.512Z" fill="#F2F2F2"/>
<path d="M60.7255 164.187L47.4485 156.811L47.4504 156.775L48.1493 142.961L48.263 142.967L47.5659 156.746L60.7808 164.088L60.7255 164.187Z" fill="#F2F2F2"/>
<path d="M56.5483 166.514L43.4203 159.635L43.4224 159.599L44.1963 145.778L44.31 145.784L43.5382 159.568L56.6012 166.413L56.5483 166.514Z" fill="#F2F2F2"/>
<path d="M93.144 64H90V66.1429H93.144V64Z" fill="#37D7FF"/>
<path d="M101.528 64H98.384V65.7143H101.528V64Z" fill="#37D7FF"/>
<path d="M106.768 64H103.624V65.7143H106.768V64Z" fill="#37D7FF"/>
<path d="M106.768 69.1429H103.624V70.8572H106.768V69.1429Z" fill="#37D7FF"/>
<path d="M112.008 66.5714H108.864V68.2857H112.008V66.5714Z" fill="#37D7FF"/>
<path d="M112.008 69.5714H108.864V71.2857H112.008V69.5714Z" fill="#37D7FF"/>
<path d="M106.768 75.1429H103.624V76.8572H106.768V75.1429Z" fill="#37D7FF"/>
<path d="M112.008 78.1429H108.864V80.2857H112.008V78.1429Z" fill="#37D7FF"/>
<path d="M106.768 89.7143H103.624V91.4286H106.768V89.7143Z" fill="#37D7FF"/>
<path d="M101.528 78.1429H98.384V80.2857H101.528V78.1429Z" fill="#37D7FF"/>
<path d="M93.144 67H90V69.1429H93.144V67Z" fill="#37D7FF"/>
<path d="M93.144 95.7143H90V97.8572H93.144V95.7143Z" fill="#37D7FF"/>
<path d="M93.144 101.714H90V103.857H93.144V101.714Z" fill="#37D7FF"/>
<path d="M93.144 105.143H90V106.857H93.144V105.143Z" fill="#37D7FF"/>
<path d="M93.144 70H90V70.4286H93.144V70Z" fill="#37D7FF"/>
<path d="M93.144 85H90V85.4286H93.144V85Z" fill="#37D7FF"/>
<path d="M93.144 87.5714H90V88H93.144V87.5714Z" fill="#37D7FF"/>
<path d="M102.576 108.143H98.384V108.571H102.576V108.143Z" fill="#37D7FF"/>
<path d="M90 72.5714V72.9999H91.2574V73.8572H90V74.2857H93.144V72.5714H90Z" fill="#37D7FF"/>
<path d="M98.384 69.1429V69.5714H99.6415V70.4286H98.384V70.8572H101.528V69.1429H98.384Z" fill="#37D7FF"/>
<path d="M108.864 72.1429V72.5715H110.121V73.4287H108.864V73.8572H112.008V72.1429H108.864Z" fill="#37D7FF"/>
<path d="M108.864 81.1429V81.6786H110.121V82.7501H108.864V83.2857H112.008V81.1429H108.864Z" fill="#37D7FF"/>
<path d="M108.864 84.1429V84.6787H110.121V85.7501H108.864V86.2857H112.008V84.1429H108.864Z" fill="#37D7FF"/>
<path d="M108.864 75.1429V75.5714H110.121V76.4285H108.864V76.8572H112.008V75.1429H108.864Z" fill="#37D7FF"/>
<path d="M103.624 66.5714V67.0001H104.882V67.8571H103.624V68.2857H106.768V66.5714H103.624Z" fill="#37D7FF"/>
<path d="M106.768 81.1429H103.624V83.2857H106.768V81.1429Z" fill="#37D7FF"/>
<path d="M106.768 86.7143H103.624V88.4286H106.768V86.7143Z" fill="#37D7FF"/>
<path d="M103.624 84.1429V84.5714H104.882V85.4285H103.624V85.8572H106.768V84.1429H103.624Z" fill="#37D7FF"/>
<path d="M98.384 72.1429V72.5715H99.6415V73.4287H98.384V73.8572H101.528V72.1429H98.384Z" fill="#37D7FF"/>
<path d="M98.384 75.1429V75.5715H99.6415V76.4285H98.384V76.8572H101.528V75.1429H98.384Z" fill="#37D7FF"/>
<path d="M101.528 84.1429H98.384V86.2857H101.528V84.1429Z" fill="#37D7FF"/>
<path d="M98.384 81.1429V81.6786H99.6415V82.7501H98.384V83.2857H101.528V81.1429H98.384Z" fill="#37D7FF"/>
<path d="M101.528 90.5714H98.384V92.2857H101.528V90.5714Z" fill="#37D7FF"/>
<path d="M98.384 87.1429V87.5714H99.6415V88.4285H98.384V88.8572H101.528V87.1429H98.384Z" fill="#37D7FF"/>
<path d="M101.528 96.1429H98.384V98.2857H101.528V96.1429Z" fill="#37D7FF"/>
<path d="M106.768 95.7143H103.624V97.8572H106.768V95.7143Z" fill="#37D7FF"/>
<path d="M98.384 93.1429V93.5715H99.6415V94.4287H98.384V94.8572H101.528V93.1429H98.384Z" fill="#37D7FF"/>
<path d="M108.864 93.1429V93.5715H110.121V94.4287H108.864V94.8572H112.008V93.1429H108.864Z" fill="#37D7FF"/>
<path d="M137.16 66.5714H136.112V68.2857H137.16V66.5714Z" fill="#37D7FF"/>
<path d="M137.16 69.5714H136.112V71.2857H137.16V69.5714Z" fill="#37D7FF"/>
<path d="M137.16 78.1429H136.112V80.2857H137.16V78.1429Z" fill="#37D7FF"/>
<path d="M136.112 72.1429V72.5715H136.531V73.4287H136.112V73.8572H137.16V72.1429H136.112Z" fill="#37D7FF"/>
<path d="M136.112 81.1429V81.6786H136.531V82.7501H136.112V83.2857H137.16V81.1429H136.112Z" fill="#37D7FF"/>
<path d="M136.112 84.1429V84.6787H136.531V85.7501H136.112V86.2857H137.16V84.1429H136.112Z" fill="#37D7FF"/>
<path d="M136.112 75.1429V75.5714H136.531V76.4285H136.112V76.8572H137.16V75.1429H136.112Z" fill="#37D7FF"/>
<path d="M136.112 93.1429V93.5715H136.531V94.4287H136.112V94.8572H137.16V93.1429H136.112Z" fill="#37D7FF"/>
<path d="M101.528 102.571H98.384V104.286H101.528V102.571Z" fill="#37D7FF"/>
<path d="M106.768 98.7143H103.624V100.857H106.768V98.7143Z" fill="#37D7FF"/>
<path d="M101.528 110.286H98.384V112H101.528V110.286Z" fill="#37D7FF"/>
<path d="M106.768 104.714H103.624V106.429H106.768V104.714Z" fill="#37D7FF"/>
<path d="M98.384 99.1429V99.6785H99.6415V100.75H98.384V101.286H101.528V99.1429H98.384Z" fill="#37D7FF"/>
<path d="M98.384 113.286V113.714H99.6415V114.571H98.384V115H101.528V113.286H98.384Z" fill="#37D7FF"/>
<path d="M129.824 64H127.728V65.7143H129.824V64Z" fill="#37D7FF"/>
<path d="M129.824 78.1429H127.728V80.2857H129.824V78.1429Z" fill="#37D7FF"/>
<path d="M131.92 108.143H127.728V108.571H131.92V108.143Z" fill="#37D7FF"/>
<path d="M127.728 69.1429V69.5714H128.567V70.4286H127.728V70.8572H129.824V69.1429H127.728Z" fill="#37D7FF"/>
<path d="M127.728 72.1429V72.5715H128.567V73.4287H127.728V73.8572H129.824V72.1429H127.728Z" fill="#37D7FF"/>
<path d="M127.728 75.1429V75.5715H128.567V76.4285H127.728V76.8572H129.824V75.1429H127.728Z" fill="#37D7FF"/>
<path d="M129.824 84.1429H127.728V86.2857H129.824V84.1429Z" fill="#37D7FF"/>
<path d="M127.728 81.1429V81.6786H128.567V82.7501H127.728V83.2857H129.824V81.1429H127.728Z" fill="#37D7FF"/>
<path d="M129.824 90.5714H127.728V92.2857H129.824V90.5714Z" fill="#37D7FF"/>
<path d="M127.728 87.1429V87.5714H128.567V88.4285H127.728V88.8572H129.824V87.1429H127.728Z" fill="#37D7FF"/>
<path d="M129.824 96.1429H127.728V98.2857H129.824V96.1429Z" fill="#37D7FF"/>
<path d="M127.728 93.1429V93.5715H128.567V94.4287H127.728V94.8572H129.824V93.1429H127.728Z" fill="#37D7FF"/>
<path d="M129.824 102.571H127.728V104.286H129.824V102.571Z" fill="#37D7FF"/>
<path d="M129.824 110.286H127.728V112H129.824V110.286Z" fill="#37D7FF"/>
<path d="M127.728 99.1429V99.6785H128.567V100.75H127.728V101.286H129.824V99.1429H127.728Z" fill="#37D7FF"/>
<path d="M127.728 113.286V113.714H128.567V114.571H127.728V115H129.824V113.286H127.728Z" fill="#37D7FF"/>
<path d="M142.4 64H140.304V65.7143H142.4V64Z" fill="#37D7FF"/>
<path d="M142.4 78.1429H140.304V80.2857H142.4V78.1429Z" fill="#37D7FF"/>
<path d="M144.496 108.143H140.304V108.571H144.496V108.143Z" fill="#37D7FF"/>
<path d="M140.304 69.1429V69.5714H141.143V70.4286H140.304V70.8572H142.4V69.1429H140.304Z" fill="#37D7FF"/>
<path d="M140.304 72.1429V72.5715H141.143V73.4287H140.304V73.8572H142.4V72.1429H140.304Z" fill="#37D7FF"/>
<path d="M140.304 75.1429V75.5715H141.143V76.4285H140.304V76.8572H142.4V75.1429H140.304Z" fill="#37D7FF"/>
<path d="M142.4 84.1429H140.304V86.2857H142.4V84.1429Z" fill="#37D7FF"/>
<path d="M140.304 81.1429V81.6786H141.143V82.7501H140.304V83.2857H142.4V81.1429H140.304Z" fill="#37D7FF"/>
<path d="M142.4 90.5714H140.304V92.2857H142.4V90.5714Z" fill="#37D7FF"/>
<path d="M140.304 87.1429V87.5714H141.143V88.4285H140.304V88.8572H142.4V87.1429H140.304Z" fill="#37D7FF"/>
<path d="M142.4 96.1429H140.304V98.2857H142.4V96.1429Z" fill="#37D7FF"/>
<path d="M140.304 93.1429V93.5715H141.143V94.4287H140.304V94.8572H142.4V93.1429H140.304Z" fill="#37D7FF"/>
<path d="M142.4 102.571H140.304V104.286H142.4V102.571Z" fill="#37D7FF"/>
<path d="M142.4 110.286H140.304V112H142.4V110.286Z" fill="#37D7FF"/>
<path d="M140.304 99.1429V99.6785H141.143V100.75H140.304V101.286H142.4V99.1429H140.304Z" fill="#37D7FF"/>
<path d="M140.304 113.286V113.714H141.143V114.571H140.304V115H142.4V113.286H140.304Z" fill="#37D7FF"/>
<path d="M103.624 110.286V110.714H104.882V111.571H103.624V112H106.768V110.286H103.624Z" fill="#37D7FF"/>
<path d="M103.624 112.857V113.393H104.882V114.464H103.624V115H106.768V112.857H103.624Z" fill="#37D7FF"/>
<path d="M90 78.1429V78.6785H91.2574V79.7499H90V80.2857H93.144V78.1429H90Z" fill="#37D7FF"/>
<path d="M90 90.1429V90.5714H91.2574V91.4286H90V91.8572H93.144V90.1429H90Z" fill="#37D7FF"/>
<path d="M90 93.1429V93.5715H91.2574V94.4287H90V94.8572H93.144V93.1429H90Z" fill="#37D7FF"/>
<path d="M90 99.1429V99.5714H91.2574V100.429H90V100.857H93.144V99.1429H90Z" fill="#37D7FF"/>
<path d="M90 107.714V108.143H91.2574V109H90V109.429H93.144V107.714H90Z" fill="#37D7FF"/>
<path d="M90 110.286V110.714H91.2574V111.571H90V112H93.144V110.286H90Z" fill="#37D7FF"/>
<path d="M119.344 64H117.248V66.1429H119.344V64Z" fill="#37D7FF"/>
<path d="M119.344 67H117.248V69.1429H119.344V67Z" fill="#37D7FF"/>
<path d="M119.344 70H117.248V70.4286H119.344V70Z" fill="#37D7FF"/>
<path d="M119.344 85H117.248V85.4286H119.344V85Z" fill="#37D7FF"/>
<path d="M119.344 87.5714H117.248V88H119.344V87.5714Z" fill="#37D7FF"/>
<path d="M117.248 72.5714V72.9999H118.086V73.8572H117.248V74.2857H119.344V72.5714H117.248Z" fill="#37D7FF"/>
<path d="M117.248 78.1429V78.6785H118.086V79.7499H117.248V80.2857H119.344V78.1429H117.248Z" fill="#37D7FF"/>
<path d="M117.248 90.1429V90.5714H118.086V91.4286H117.248V91.8572H119.344V90.1429H117.248Z" fill="#37D7FF"/>
<path d="M148.688 84.1429H146.592V86.2857H148.688V84.1429Z" fill="#37D7FF"/>
<path d="M148.688 87.1429H146.592V88.8572H148.688V87.1429Z" fill="#37D7FF"/>
<path d="M148.688 107.714H145.544V108.143H148.688V107.714Z" fill="#37D7FF"/>
<path d="M146.592 92.2857V92.8213H147.43V93.8928H146.592V94.4286H148.688V92.2857H146.592Z" fill="#37D7FF"/>
<path d="M146.592 98.2857V98.7143H147.43V99.5713H146.592V100H148.688V98.2857H146.592Z" fill="#37D7FF"/>
<path d="M146.592 110.286V110.714H147.43V111.571H146.592V112H148.688V110.286H146.592Z" fill="#37D7FF"/>
<path d="M157.072 64H154.976V66.1429H157.072V64Z" fill="#37D7FF"/>
<path d="M165.456 64H163.36V65.7143H165.456V64Z" fill="#37D7FF"/>
<path d="M170.696 64H167.552V65.7143H170.696V64Z" fill="#37D7FF"/>
<path d="M170.696 69.1429H167.552V70.8572H170.696V69.1429Z" fill="#37D7FF"/>
<path d="M175.936 66.5714H172.792V68.2857H175.936V66.5714Z" fill="#37D7FF"/>
<path d="M175.936 69.5714H172.792V71.2857H175.936V69.5714Z" fill="#37D7FF"/>
<path d="M170.696 75.1429H167.552V76.8572H170.696V75.1429Z" fill="#37D7FF"/>
<path d="M175.936 78.1429H172.792V80.2857H175.936V78.1429Z" fill="#37D7FF"/>
<path d="M170.696 89.7143H167.552V91.4286H170.696V89.7143Z" fill="#37D7FF"/>
<path d="M165.456 78.1429H163.36V80.2857H165.456V78.1429Z" fill="#37D7FF"/>
<path d="M157.072 67H154.976V69.1429H157.072V67Z" fill="#37D7FF"/>
<path d="M157.072 95.7143H154.976V97.8572H157.072V95.7143Z" fill="#37D7FF"/>
<path d="M157.072 101.714H154.976V103.857H157.072V101.714Z" fill="#37D7FF"/>
<path d="M157.072 105.143H154.976V106.857H157.072V105.143Z" fill="#37D7FF"/>
<path d="M157.072 70H153.928V70.4286H157.072V70Z" fill="#37D7FF"/>
<path d="M157.072 85H153.928V85.4286H157.072V85Z" fill="#37D7FF"/>
<path d="M157.072 87.5714H153.928V88H157.072V87.5714Z" fill="#37D7FF"/>
<path d="M167.552 108.143H163.36V108.571H167.552V108.143Z" fill="#37D7FF"/>
<path d="M154.976 72.5714V72.9999H155.815V73.8572H154.976V74.2857H157.072V72.5714H154.976Z" fill="#37D7FF"/>
<path d="M163.36 69.1429V69.5714H164.198V70.4286H163.36V70.8572H165.456V69.1429H163.36Z" fill="#37D7FF"/>
<path d="M172.792 72.1429V72.5715H174.049V73.4287H172.792V73.8572H175.936V72.1429H172.792Z" fill="#37D7FF"/>
<path d="M172.792 81.1429V81.6786H174.049V82.7501H172.792V83.2857H175.936V81.1429H172.792Z" fill="#37D7FF"/>
<path d="M172.792 84.1429V84.6787H174.049V85.7501H172.792V86.2857H175.936V84.1429H172.792Z" fill="#37D7FF"/>
<path d="M172.792 75.1429V75.5714H174.049V76.4285H172.792V76.8572H175.936V75.1429H172.792Z" fill="#37D7FF"/>
<path d="M167.552 66.5714V67.0001H168.809V67.8571H167.552V68.2857H170.696V66.5714H167.552Z" fill="#37D7FF"/>
<path d="M170.696 81.1429H167.552V83.2857H170.696V81.1429Z" fill="#37D7FF"/>
<path d="M170.696 86.7143H167.552V88.4286H170.696V86.7143Z" fill="#37D7FF"/>
<path d="M167.552 84.1429V84.5714H168.809V85.4285H167.552V85.8572H170.696V84.1429H167.552Z" fill="#37D7FF"/>
<path d="M163.36 72.1429V72.5715H164.198V73.4287H163.36V73.8572H165.456V72.1429H163.36Z" fill="#37D7FF"/>
<path d="M163.36 75.1429V75.5715H164.198V76.4285H163.36V76.8572H165.456V75.1429H163.36Z" fill="#37D7FF"/>
<path d="M165.456 84.1429H163.36V86.2857H165.456V84.1429Z" fill="#37D7FF"/>
<path d="M163.36 81.1429V81.6786H164.198V82.7501H163.36V83.2857H165.456V81.1429H163.36Z" fill="#37D7FF"/>
<path d="M165.456 90.5714H163.36V92.2857H165.456V90.5714Z" fill="#37D7FF"/>
<path d="M163.36 87.1429V87.5714H164.198V88.4285H163.36V88.8572H165.456V87.1429H163.36Z" fill="#37D7FF"/>
<path d="M165.456 96.1429H163.36V98.2857H165.456V96.1429Z" fill="#37D7FF"/>
<path d="M170.696 95.7143H167.552V97.8572H170.696V95.7143Z" fill="#37D7FF"/>
<path d="M163.36 93.1429V93.5715H164.198V94.4287H163.36V94.8572H165.456V93.1429H163.36Z" fill="#37D7FF"/>
<path d="M172.792 93.1429V93.5715H174.049V94.4287H172.792V94.8572H175.936V93.1429H172.792Z" fill="#37D7FF"/>
<path d="M201.088 66.5714H198.992V68.2857H201.088V66.5714Z" fill="#37D7FF"/>
<path d="M201.088 69.5714H198.992V71.2857H201.088V69.5714Z" fill="#37D7FF"/>
<path d="M201.088 78.1429H198.992V80.2857H201.088V78.1429Z" fill="#37D7FF"/>
<path d="M198.992 72.1429V72.5715H199.83V73.4287H198.992V73.8572H201.088V72.1429H198.992Z" fill="#37D7FF"/>
<path d="M198.992 81.1429V81.6786H199.83V82.7501H198.992V83.2857H201.088V81.1429H198.992Z" fill="#37D7FF"/>
<path d="M198.992 84.1429V84.6787H199.83V85.7501H198.992V86.2857H201.088V84.1429H198.992Z" fill="#37D7FF"/>
<path d="M198.992 75.1429V75.5714H199.83V76.4285H198.992V76.8572H201.088V75.1429H198.992Z" fill="#37D7FF"/>
<path d="M198.992 93.1429V93.5715H199.83V94.4287H198.992V94.8572H201.088V93.1429H198.992Z" fill="#37D7FF"/>
<path d="M165.456 102.571H163.36V104.286H165.456V102.571Z" fill="#37D7FF"/>
<path d="M170.696 98.7143H167.552V100.857H170.696V98.7143Z" fill="#37D7FF"/>
<path d="M165.456 110.286H163.36V112H165.456V110.286Z" fill="#37D7FF"/>
<path d="M170.696 104.714H167.552V106.429H170.696V104.714Z" fill="#37D7FF"/>
<path d="M163.36 99.1429V99.6785H164.198V100.75H163.36V101.286H165.456V99.1429H163.36Z" fill="#37D7FF"/>
<path d="M163.36 113.286V113.714H164.198V114.571H163.36V115H165.456V113.286H163.36Z" fill="#37D7FF"/>
<path d="M193.752 64H191.656V65.7143H193.752V64Z" fill="#37D7FF"/>
<path d="M193.752 78.1429H191.656V80.2857H193.752V78.1429Z" fill="#37D7FF"/>
<path d="M194.8 108.143H191.656V108.571H194.8V108.143Z" fill="#37D7FF"/>
<path d="M191.656 69.1429V69.5714H192.495V70.4286H191.656V70.8572H193.752V69.1429H191.656Z" fill="#37D7FF"/>
<path d="M191.656 72.1429V72.5715H192.495V73.4287H191.656V73.8572H193.752V72.1429H191.656Z" fill="#37D7FF"/>
<path d="M191.656 75.1429V75.5715H192.495V76.4285H191.656V76.8572H193.752V75.1429H191.656Z" fill="#37D7FF"/>
<path d="M193.752 84.1429H191.656V86.2857H193.752V84.1429Z" fill="#37D7FF"/>
<path d="M191.656 81.1429V81.6786H192.495V82.7501H191.656V83.2857H193.752V81.1429H191.656Z" fill="#37D7FF"/>
<path d="M193.752 90.5714H191.656V92.2857H193.752V90.5714Z" fill="#37D7FF"/>
<path d="M191.656 87.1429V87.5714H192.495V88.4285H191.656V88.8572H193.752V87.1429H191.656Z" fill="#37D7FF"/>
<path d="M193.752 96.1429H191.656V98.2857H193.752V96.1429Z" fill="#37D7FF"/>
<path d="M191.656 93.1429V93.5715H192.495V94.4287H191.656V94.8572H193.752V93.1429H191.656Z" fill="#37D7FF"/>
<path d="M193.752 102.571H191.656V104.286H193.752V102.571Z" fill="#37D7FF"/>
<path d="M193.752 110.286H191.656V112H193.752V110.286Z" fill="#37D7FF"/>
<path d="M191.656 99.1429V99.6785H192.495V100.75H191.656V101.286H193.752V99.1429H191.656Z" fill="#37D7FF"/>
<path d="M191.656 113.286V113.714H192.495V114.571H191.656V115H193.752V113.286H191.656Z" fill="#37D7FF"/>
<path d="M207.376 64H204.232V65.7143H207.376V64Z" fill="#37D7FF"/>
<path d="M207.376 78.1429H204.232V80.2857H207.376V78.1429Z" fill="#37D7FF"/>
<path d="M207.376 108.143H204.232V108.571H207.376V108.143Z" fill="#37D7FF"/>
<path d="M204.232 69.1429V69.5714H205.49V70.4286H204.232V70.8572H207.376V69.1429H204.232Z" fill="#37D7FF"/>
<path d="M204.232 72.1429V72.5715H205.49V73.4287H204.232V73.8572H207.376V72.1429H204.232Z" fill="#37D7FF"/>
<path d="M204.232 75.1429V75.5715H205.49V76.4285H204.232V76.8572H207.376V75.1429H204.232Z" fill="#37D7FF"/>
<path d="M207.376 84.1429H204.232V86.2857H207.376V84.1429Z" fill="#37D7FF"/>
<path d="M204.232 81.1429V81.6786H205.49V82.7501H204.232V83.2857H207.376V81.1429H204.232Z" fill="#37D7FF"/>
<path d="M207.376 90.5714H204.232V92.2857H207.376V90.5714Z" fill="#37D7FF"/>
<path d="M204.232 87.1429V87.5714H205.49V88.4285H204.232V88.8572H207.376V87.1429H204.232Z" fill="#37D7FF"/>
<path d="M207.376 96.1429H204.232V98.2857H207.376V96.1429Z" fill="#37D7FF"/>
<path d="M204.232 93.1429V93.5715H205.49V94.4287H204.232V94.8572H207.376V93.1429H204.232Z" fill="#37D7FF"/>
<path d="M207.376 102.571H204.232V104.286H207.376V102.571Z" fill="#37D7FF"/>
<path d="M207.376 110.286H204.232V112H207.376V110.286Z" fill="#37D7FF"/>
<path d="M204.232 99.1429V99.6785H205.49V100.75H204.232V101.286H207.376V99.1429H204.232Z" fill="#37D7FF"/>
<path d="M204.232 113.286V113.714H205.49V114.571H204.232V115H207.376V113.286H204.232Z" fill="#37D7FF"/>
<path d="M167.552 110.286V110.714H168.809V111.571H167.552V112H170.696V110.286H167.552Z" fill="#37D7FF"/>
<path d="M167.552 112.857V113.393H168.809V114.464H167.552V115H170.696V112.857H167.552Z" fill="#37D7FF"/>
<path d="M154.976 78.1429V78.6785H155.815V79.7499H154.976V80.2857H157.072V78.1429H154.976Z" fill="#37D7FF"/>
<path d="M154.976 90.1429V90.5714H155.815V91.4286H154.976V91.8572H157.072V90.1429H154.976Z" fill="#37D7FF"/>
<path d="M154.976 93.1429V93.5715H155.815V94.4287H154.976V94.8572H157.072V93.1429H154.976Z" fill="#37D7FF"/>
<path d="M154.976 99.1429V99.5714H155.815V100.429H154.976V100.857H157.072V99.1429H154.976Z" fill="#37D7FF"/>
<path d="M154.976 107.714V108.143H155.815V109H154.976V109.429H157.072V107.714H154.976Z" fill="#37D7FF"/>
<path d="M154.976 110.286V110.714H155.815V111.571H154.976V112H157.072V110.286H154.976Z" fill="#37D7FF"/>
<path d="M184.32 64H181.176V66.1429H184.32V64Z" fill="#37D7FF"/>
<path d="M184.32 67H181.176V69.1429H184.32V67Z" fill="#37D7FF"/>
<path d="M184.32 70H180.128V70.4286H184.32V70Z" fill="#37D7FF"/>
<path d="M184.32 85H180.128V85.4286H184.32V85Z" fill="#37D7FF"/>
<path d="M184.32 87.5714H180.128V88H184.32V87.5714Z" fill="#37D7FF"/>
<path d="M181.176 72.5714V72.9999H182.434V73.8572H181.176V74.2857H184.32V72.5714H181.176Z" fill="#37D7FF"/>
<path d="M181.176 78.1429V78.6785H182.434V79.7499H181.176V80.2857H184.32V78.1429H181.176Z" fill="#37D7FF"/>
<path d="M181.176 90.1429V90.5714H182.434V91.4286H181.176V91.8572H184.32V90.1429H181.176Z" fill="#37D7FF"/>
<path d="M213.664 84.1429H210.52V86.2857H213.664V84.1429Z" fill="#37D7FF"/>
<path d="M213.664 87.1429H210.52V88.8572H213.664V87.1429Z" fill="#37D7FF"/>
<path d="M213.664 107.714H209.472V108.143H213.664V107.714Z" fill="#37D7FF"/>
<path d="M210.52 92.2857V92.8213H211.778V93.8928H210.52V94.4286H213.664V92.2857H210.52Z" fill="#37D7FF"/>
<path d="M210.52 98.2857V98.7143H211.778V99.5713H210.52V100H213.664V98.2857H210.52Z" fill="#37D7FF"/>
<path d="M210.52 110.286V110.714H211.778V111.571H210.52V112H213.664V110.286H210.52Z" fill="#37D7FF"/>
<path d="M221 64H218.904V66.1429H221V64Z" fill="#37D7FF"/>
<path d="M221 67H218.904V69.1429H221V67Z" fill="#37D7FF"/>
<path d="M221 95.7143H218.904V97.8572H221V95.7143Z" fill="#37D7FF"/>
<path d="M221 101.714H218.904V103.857H221V101.714Z" fill="#37D7FF"/>
<path d="M221 105.143H218.904V106.857H221V105.143Z" fill="#37D7FF"/>
<path d="M221 70H217.856V70.4286H221V70Z" fill="#37D7FF"/>
<path d="M221 85H217.856V85.4286H221V85Z" fill="#37D7FF"/>
<path d="M221 87.5714H217.856V88H221V87.5714Z" fill="#37D7FF"/>
<path d="M218.904 72.5714V72.9999H219.742V73.8572H218.904V74.2857H221V72.5714H218.904Z" fill="#37D7FF"/>
<path d="M218.904 78.1429V78.6785H219.742V79.7499H218.904V80.2857H221V78.1429H218.904Z" fill="#37D7FF"/>
<path d="M218.904 90.1429V90.5714H219.742V91.4286H218.904V91.8572H221V90.1429H218.904Z" fill="#37D7FF"/>
<path d="M218.904 93.1429V93.5715H219.742V94.4287H218.904V94.8572H221V93.1429H218.904Z" fill="#37D7FF"/>
<path d="M218.904 99.1429V99.5714H219.742V100.429H218.904V100.857H221V99.1429H218.904Z" fill="#37D7FF"/>
<path d="M218.904 107.714V108.143H219.742V109H218.904V109.429H221V107.714H218.904Z" fill="#37D7FF"/>
<path d="M218.904 110.286V110.714H219.742V111.571H218.904V112H221V110.286H218.904Z" fill="#37D7FF"/>
<defs>
<linearGradient id="paint0_linear" x1="1384.07" y1="6490.53" x2="1569.86" y2="6490.53" gradientUnits="userSpaceOnUse">
<stop stop-color="#808080" stop-opacity="0.25"/>
<stop offset="0.54" stop-color="#808080" stop-opacity="0.12"/>
<stop offset="1" stop-color="#808080" stop-opacity="0.1"/>
</linearGradient>
</defs>
</svg>