<svg width="608" height="356" viewBox="0 0 608 356" fill="none" xmlns="http://www.w3.org/2000/svg">
<path d="M482.272 332.699L482.254 332.688L402.587 288.007L394 190.683L393.852 189.006L473.479 145.334L562.731 183.074L562.724 184.101L561.958 280.47L482.272 332.699Z" fill="#37D7FF"/>
<path opacity="0.3" d="M482.254 332.688L402.587 288.007L394 190.683L480.787 228.172L482.254 332.688Z" fill="black"/>
<path opacity="0.1" d="M482.272 332.699L480.787 228.172L562.724 184.101L561.958 280.47L482.272 332.699Z" fill="black"/>
<path d="M449.033 159.013L449.335 158.306L539.121 196.752L538.289 296.239L537.52 296.232L538.348 197.256L449.033 159.013Z" fill="#F2F2F2"/>
<path d="M421.978 173.844L422.294 173.144L509.804 212.514L509.813 212.753L513.377 311.651L512.609 311.678L509.054 213.019L421.978 173.844Z" fill="#F2F2F2"/>
<path d="M396.816 224.895L397.16 224.208L481.317 266.372L562.262 216.564L562.664 217.218L481.355 267.251L396.816 224.895Z" fill="#F2F2F2"/>
<path d="M399.904 259.87L400.244 259.181L481.774 299.475L561.995 250.111L562.398 250.766L481.815 300.352L399.904 259.87Z" fill="#F2F2F2"/>
<path d="M453.277 316.669L448.717 214.267L448.928 214.153L530.799 169.313L531.167 169.987L449.507 214.711L454.045 316.635L453.277 316.669Z" fill="#F2F2F2"/>
<path d="M425.128 300.89L418.237 201.105L418.454 200.987L500.629 156.554L500.995 157.23L419.037 201.546L425.894 300.838L425.128 300.89Z" fill="#F2F2F2"/>
<path opacity="0.1" d="M542.829 112.643C537.334 100.107 529.928 88.4996 520.874 78.2358L216.255 75.2959L467.059 40.654C450.834 34.3024 433.595 30.9392 416.173 30.7269C392.014 11.5342 360.987 0 327.138 0C296.767 0 268.684 9.3097 245.788 25.0382C225.57 14.8303 203.231 9.5356 180.584 9.5841C112.901 9.5841 56.5044 55.6916 43.8516 116.832L542.829 112.643Z" fill="#37D7FF"/>
<path opacity="0.1" d="M342.323 165.899L375.555 170.97L376.662 171.137L377.416 171.259L378.803 171.465L384.323 172.308L443.536 181.338L462.9 184.278L549.065 197.429C537.627 239.607 505.111 273.671 462.9 288.738C461.091 289.391 459.267 290.004 457.429 290.576C444.325 316.976 422.409 338.594 395.315 351.99H267.533C258.219 347.397 249.446 341.782 241.375 335.247C239.742 333.941 238.158 332.6 236.623 331.225C236.019 330.689 235.424 330.152 234.84 329.613C234.063 330.318 233.276 331.014 232.479 331.7C230.617 333.307 228.71 334.867 226.757 336.379C218.899 342.463 210.418 347.696 201.457 351.99H76.6422C70.5914 349.086 64.7555 345.754 59.179 342.019C25.6976 319.622 3.01259 283.5 0 242.194L59.13 236.016L75.7556 234.276L125.965 229.029L167.221 224.717L109.021 216.181L73.3063 210.953L59.13 208.871L3.72777 200.752C6.51414 190.023 10.6713 179.699 16.0965 170.034L59.13 165.585L94.6443 161.92L130.281 158.245L191.116 151.993L191.948 151.9L373.532 133.158L381.668 132.286L462.9 123.897L544.03 115.524C550.308 130.885 553.532 147.324 553.523 163.919C553.523 164.586 553.523 165.237 553.523 165.879L342.323 165.899Z" fill="#37D7FF"/>
<path d="M462.91 104.465V341.024C462.911 342.466 462.628 343.893 462.077 345.225C461.526 346.557 460.718 347.767 459.7 348.787C458.681 349.806 457.472 350.615 456.141 351.168C454.81 351.72 453.383 352.004 451.942 352.005H70.1223C67.387 352.004 64.7508 350.981 62.7308 349.136C60.7108 347.291 59.4527 344.758 59.2035 342.034C59.1698 341.698 59.1535 341.361 59.1545 341.024V104.465C59.1545 104.225 59.1545 103.975 59.179 103.759H462.876C462.89 103.975 462.91 104.215 462.91 104.465Z" fill="#4C4C78"/>
<path d="M451.942 93.9741H70.1223C68.196 93.9735 66.3035 94.4804 64.6353 95.4438C62.9671 96.4072 61.5819 97.793 60.6192 99.462C59.7738 100.922 59.2807 102.56 59.179 104.244H462.876C462.698 101.464 461.469 98.8549 459.438 96.9476C457.408 95.0402 454.728 93.9771 451.942 93.9741V93.9741Z" fill="#37D7FF"/>
<path d="M70.0978 102.206C71.6128 102.206 72.841 100.977 72.841 99.462C72.841 97.9465 71.6128 96.718 70.0978 96.718C68.5828 96.718 67.3546 97.9465 67.3546 99.462C67.3546 100.977 68.5828 102.206 70.0978 102.206Z" fill="#EDEDF4"/>
<path d="M78.3224 102.206C79.8374 102.206 81.0656 100.977 81.0656 99.462C81.0656 97.9465 79.8374 96.718 78.3224 96.718C76.8074 96.718 75.5793 97.9465 75.5793 99.462C75.5793 100.977 76.8074 102.206 78.3224 102.206Z" fill="#EDEDF4"/>
<path d="M86.5519 102.206C88.067 102.206 89.2951 100.977 89.2951 99.462C89.2951 97.9465 88.067 96.718 86.5519 96.718C85.0369 96.718 83.8088 97.9465 83.8088 99.462C83.8088 100.977 85.0369 102.206 86.5519 102.206Z" fill="#EDEDF4"/>
<path d="M130.276 112.99H73.3064V118.238H130.276V112.99Z" fill="#37D7FF"/>
<path opacity="0.5" d="M130.276 138.582H73.3064V143.83H130.276V138.582Z" fill="#37D7FF"/>
<path opacity="0.5" d="M130.276 156.668H73.3064V161.915H130.276V156.668Z" fill="#37D7FF"/>
<path opacity="0.5" d="M130.276 174.758H73.3064V180.006H130.276V174.758Z" fill="#37D7FF"/>
<path opacity="0.5" d="M130.276 192.848H73.3064V198.096H130.276V192.848Z" fill="#37D7FF"/>
<path opacity="0.5" d="M130.276 210.938H73.3064V216.186H130.276V210.938Z" fill="#37D7FF"/>
<path opacity="0.5" d="M130.276 229.029H73.3064V234.276H130.276V229.029Z" fill="#37D7FF"/>
<path opacity="0.5" d="M130.276 247.119H73.3064V252.367H130.276V247.119Z" fill="#37D7FF"/>
<path opacity="0.5" d="M443.541 132.286H191.101V133.129H443.541V132.286Z" fill="#DCE0ED"/>
<path opacity="0.5" d="M443.541 151.876H191.101V152.718H443.541V151.876Z" fill="#DCE0ED"/>
<path opacity="0.5" d="M443.541 171.465H191.101V172.308H443.541V171.465Z" fill="#DCE0ED"/>
<path opacity="0.5" d="M443.541 191.055H191.101V191.898H443.541V191.055Z" fill="#DCE0ED"/>
<path opacity="0.5" d="M443.541 210.644H191.101V211.487H443.541V210.644Z" fill="#DCE0ED"/>
<path opacity="0.5" d="M443.541 211.477H190.787V172.955L213.972 184.381L237.96 187.635L259.009 181.289L284.403 161.587L297.178 154.208L306.515 152.41L315.45 152.89L330.145 160.147L350.117 172.871L365.787 174.89L378.22 170.603L404.559 149.019L418.01 144.227L432.084 146.402L443.541 153.022V211.477Z" fill="#37D7FF"/>
<path d="M234.845 187.649C212.081 187.649 191.052 173.724 190.787 173.548L191.414 172.612C191.738 172.827 224.117 194.254 251.622 183.519C261.649 179.599 268.796 173.523 275.703 167.634C282.914 161.489 289.728 155.683 299.01 153.164C309.665 150.278 321.304 152.89 330.145 160.161C337.704 166.374 352.762 176.331 368.662 173.391C376.774 171.867 383.608 165.943 390.843 159.671C404.691 147.627 419.054 135.197 443.879 153.032L443.213 153.953C419.122 136.632 405.117 148.769 391.578 160.509C384.23 166.879 377.279 172.901 368.873 174.479C352.512 177.551 337.141 167.374 329.43 161.033C320.868 153.997 309.606 151.464 299.309 154.257C290.267 156.707 283.546 162.435 276.433 168.496C269.453 174.444 262.227 180.594 252.034 184.572C246.546 186.662 240.716 187.706 234.845 187.649Z" fill="#37D7FF"/>
<path d="M312.57 158.554C316.024 158.554 318.825 155.753 318.825 152.297C318.825 148.841 316.024 146.04 312.57 146.04C309.115 146.04 306.314 148.841 306.314 152.297C306.314 155.753 309.115 158.554 312.57 158.554Z" fill="#37D7FF"/>
<g opacity="0.5">
<path opacity="0.5" d="M250.515 255.365H213.409V263.239H250.515V255.365Z" fill="#DCE0ED"/>
<path opacity="0.5" d="M335.72 255.365H298.614V263.239H335.72V255.365Z" fill="#DCE0ED"/>
<path opacity="0.5" d="M420.92 255.365H383.814V263.239H420.92V255.365Z" fill="#DCE0ED"/>
</g>
<path d="M210.783 310.351C210.783 298.856 220.135 290.027 231.627 290.027H231.773V284.779H231.607C217.23 284.779 205.537 295.956 205.537 310.337C205.537 314.057 206.334 317.734 207.874 321.119C209.415 324.505 211.663 327.522 214.467 329.965L218.17 326.256C215.855 324.303 213.995 321.868 212.719 319.121C211.443 316.373 210.782 313.381 210.783 310.351V310.351Z" fill="#37D7FF"/>
<path opacity="0.5" d="M232.312 284.779V290.012C235.663 290.031 238.959 290.857 241.923 292.421C244.886 293.985 247.428 296.241 249.335 298.997C251.242 301.752 252.456 304.927 252.875 308.252C253.294 311.577 252.906 314.955 251.743 318.098C250.58 321.241 248.676 324.057 246.194 326.308C243.712 328.558 240.723 330.178 237.483 331.028C234.242 331.878 230.844 331.934 227.576 331.191C224.309 330.448 221.269 328.929 218.714 326.761L215.011 330.465C218.176 333.235 221.965 335.198 226.054 336.185C230.143 337.172 234.409 337.155 238.49 336.135C242.57 335.114 246.343 333.121 249.487 330.325C252.63 327.53 255.05 324.014 256.54 320.08C258.03 316.146 258.545 311.909 258.043 307.732C257.54 303.555 256.035 299.561 253.654 296.093C251.274 292.624 248.089 289.783 244.373 287.813C240.656 285.843 236.518 284.802 232.312 284.779Z" fill="#37D7FF"/>
<path opacity="0.5" d="M403.222 289.767C414.713 289.767 423.541 299.116 423.541 310.611V310.778H428.767C428.767 310.724 428.767 310.67 428.767 310.611C428.767 296.235 417.594 284.534 403.217 284.534C399.502 284.537 395.832 285.336 392.452 286.876C389.072 288.417 386.061 290.664 383.623 293.466L387.326 297.176C389.276 294.857 391.709 292.993 394.455 291.713C397.2 290.434 400.192 289.769 403.222 289.767V289.767Z" fill="#37D7FF"/>
<path d="M428.772 311.302H423.546C423.526 314.653 422.699 317.95 421.135 320.914C419.571 323.877 417.316 326.42 414.561 328.326C411.805 330.233 408.631 331.447 405.307 331.866C401.983 332.284 398.607 331.896 395.465 330.732C392.324 329.568 389.508 327.664 387.259 325.181C385.009 322.698 383.39 319.709 382.541 316.467C381.691 313.226 381.635 309.827 382.378 306.559C383.12 303.291 384.64 300.251 386.807 297.695L383.103 293.991C380.335 297.158 378.374 300.949 377.388 305.039C376.402 309.129 376.421 313.397 377.442 317.478C378.463 321.56 380.456 325.334 383.251 328.477C386.046 331.621 389.561 334.041 393.494 335.532C397.428 337.022 401.663 337.538 405.839 337.036C410.015 336.533 414.008 335.028 417.476 332.647C420.944 330.267 423.784 327.082 425.755 323.365C427.725 319.648 428.767 315.509 428.792 311.302H428.772Z" fill="#37D7FF"/>
<path opacity="0.5" d="M327.466 286.332L326.427 291.536C334.079 294.628 338.968 302.129 338.968 310.876C338.966 314.633 337.95 318.321 336.025 321.548C334.101 324.776 331.34 327.423 328.035 329.209C324.73 330.996 321.003 331.856 317.25 331.699C313.496 331.541 309.855 330.371 306.712 328.314C303.568 326.256 301.039 323.387 299.392 320.01C297.744 316.632 297.04 312.872 297.354 309.128C297.668 305.383 298.987 301.793 301.173 298.736C303.359 295.68 306.33 293.272 309.772 291.766L307.431 287.087C303.156 289.011 299.479 292.053 296.787 295.892C294.095 299.73 292.487 304.224 292.134 308.9C291.78 313.576 292.694 318.26 294.778 322.461C296.862 326.661 300.04 330.221 303.977 332.767C307.914 335.312 312.464 336.749 317.149 336.925C321.833 337.102 326.478 336.012 330.596 333.769C334.713 331.527 338.149 328.216 340.543 324.184C342.937 320.153 344.2 315.55 344.199 310.861C344.199 299.591 337.518 289.958 327.466 286.332Z" fill="#37D7FF"/>
<path d="M318.781 289.723C321.277 289.721 323.747 290.235 326.036 291.232L327.074 286.029C324.428 285.009 321.616 284.488 318.781 284.49C315.093 284.487 311.447 285.273 308.087 286.793L310.424 291.477C313.057 290.318 315.904 289.72 318.781 289.723V289.723Z" fill="#37D7FF"/>
<g opacity="0.1">
<path opacity="0.1" d="M74.3938 208.018C74.1929 208.381 72.7528 209.243 70.9991 210.194C70.8374 208.92 70.7199 207.949 70.6954 207.655C70.5876 206.558 72.9242 201.668 72.9242 201.668C72.9242 201.668 77.3868 195.675 77.2839 194.779C77.181 193.882 79.0082 191.285 79.0082 191.285L83.0495 184.719C82.8298 185.22 82.753 185.773 82.8273 186.315C82.9017 186.857 83.1243 187.368 83.4707 187.791C84.6905 189.389 83.6716 192.584 83.6716 192.584L83.9165 196.611L83.941 197.008C83.794 197.15 83.1474 197.772 81.7073 199.071C80.3749 200.271 80.6149 200.634 80.7619 200.732C80.463 201.271 80.8353 201.364 80.8353 201.364C80.9529 201.364 81.0705 201.364 81.1831 201.34L80.8647 201.634C78.3616 203.961 74.7563 207.362 74.3938 208.018Z" fill="url(#paint0_linear)"/>
</g>
<g opacity="0.1">
<path opacity="0.1" d="M48.6913 139.984L47.8243 139.739C48.0922 139.882 48.388 139.966 48.6913 139.984V139.984Z" fill="black"/>
<path opacity="0.1" d="M48.6913 139.984L49.671 140.263C49.4988 140.145 49.3129 140.048 49.1175 139.974C48.9759 139.989 48.8334 139.993 48.6913 139.984Z" fill="black"/>
<path opacity="0.1" d="M80.1251 162.827C78.7388 163.101 77.2742 163.282 75.9271 162.851C74.2224 162.303 72.9488 160.837 72.1258 159.245C71.4015 157.829 70.9652 156.284 70.8424 154.698C70.6024 151.538 71.5919 148.147 70.1909 145.305C69.9386 144.727 69.5233 144.235 68.9957 143.889C68.3785 143.521 67.629 143.482 66.9481 143.267C65.7724 142.899 64.827 142.032 63.9257 141.189L60.6829 138.166C59.955 137.408 59.1015 136.781 58.1601 136.314C56.4359 135.584 54.403 136 52.7718 136.912C51.748 137.485 50.6115 138.264 49.5192 138.381C49.7151 138.454 49.9011 138.551 50.0727 138.671L49.093 138.391C48.7915 138.375 48.4971 138.294 48.2308 138.151L49.093 138.391C49.2348 138.403 49.3774 138.403 49.5192 138.391C48.1378 137.857 46.3498 138.391 45.0272 137.612C44.3038 137.141 43.7642 136.435 43.4989 135.613C43.1246 134.597 43.0117 133.504 43.1707 132.433C42.5708 133.963 42.5465 135.659 43.1021 137.206C43.3674 138.027 43.907 138.733 44.6304 139.205C45.953 139.964 47.7361 139.45 49.1224 139.984C50.2148 139.861 51.3512 139.087 52.375 138.514C54.0111 137.597 56.044 137.181 57.7634 137.916C58.705 138.38 59.5574 139.007 60.2812 139.768L63.524 142.791C64.4302 143.629 65.3757 144.496 66.5513 144.869C67.2322 145.084 67.9817 145.124 68.5989 145.486C69.1265 145.832 69.5419 146.324 69.7941 146.902C71.1951 149.749 70.2056 153.135 70.4456 156.295C70.5648 157.882 71.0012 159.428 71.729 160.842C72.5471 162.44 73.8207 163.905 75.5303 164.454C76.8774 164.885 78.342 164.703 79.7283 164.429C83.1083 163.756 86.3614 162.556 89.3686 160.872C89.1482 160.534 88.9277 160.191 88.7122 159.843C86.0025 161.232 83.1122 162.236 80.1251 162.827Z" fill="black"/>
<path opacity="0.1" d="M83.6716 140.439C83.3897 141.11 83.1604 141.801 82.9859 142.507C82.9565 142.664 82.9369 142.816 82.9222 142.973C83.2845 142.166 83.5366 141.314 83.6716 140.439Z" fill="black"/>
</g>
<defs>
<linearGradient id="paint0_linear" x1="2721.78" y1="12763.7" x2="3087.15" y2="12763.7" gradientUnits="userSpaceOnUse">
<stop stop-color="#808080" stop-opacity="0.25"/>
<stop offset="0.54" stop-color="#808080" stop-opacity="0.12"/>
<stop offset="1" stop-color="#808080" stop-opacity="0.1"/>
</linearGradient>
</defs>
</svg>