<svg width="199" height="156" viewBox="0 0 199 156" fill="none" xmlns="http://www.w3.org/2000/svg">
<path opacity="0.25" d="M138.031 88.1235C138.743 88.1235 139.32 87.5389 139.32 86.8178C139.32 86.0967 138.743 85.5121 138.031 85.5121C137.32 85.5121 136.743 86.0967 136.743 86.8178C136.743 87.5389 137.32 88.1235 138.031 88.1235Z" fill="#535461"/>
<path opacity="0.25" d="M155.565 121.378C156.277 121.378 156.854 120.794 156.854 120.072C156.854 119.351 156.277 118.767 155.565 118.767C154.853 118.767 154.276 119.351 154.276 120.072C154.276 120.794 154.853 121.378 155.565 121.378Z" fill="#535461"/>
<path opacity="0.25" d="M168.492 139.944C169.203 139.944 169.78 139.36 169.78 138.639C169.78 137.918 169.203 137.333 168.492 137.333C167.78 137.333 167.203 137.918 167.203 138.639C167.203 139.36 167.78 139.944 168.492 139.944Z" fill="#535461"/>
<path opacity="0.25" d="M199 76.4386H197.853V75.2789H197.385V76.4386H196.238V76.9148H197.385V78.0745H197.853V76.9148H199V76.4386Z" fill="#535461"/>
<path opacity="0.25" d="M179.247 56.9802H178.1V55.8204H177.633V56.9802H176.485V57.4563H177.633V58.6161H178.1V57.4563H179.247V56.9802Z" fill="#535461"/>
<path opacity="0.25" d="M157.448 91.147H156.301V89.9873H155.833V91.147H154.688V91.6232H155.833V92.7829H156.301V91.6232H157.448V91.147Z" fill="#535461"/>
<path opacity="0.25" d="M1.28871 18.8879C2.00044 18.8879 2.57742 18.3033 2.57742 17.5822C2.57742 16.8611 2.00044 16.2765 1.28871 16.2765C0.576974 16.2765 0 16.8611 0 17.5822C0 18.3033 0.576974 18.8879 1.28871 18.8879Z" fill="#535461"/>
<path opacity="0.25" d="M62.5382 10.6611H61.391V9.50135H60.9235V10.6611H59.7763V11.1347H60.9235V12.297H61.391V11.1347H62.5382V10.6611Z" fill="#535461"/>
<path opacity="0.25" d="M92.7481 20.1624H91.6009V19.0027H91.1334V20.1624H89.9862V20.6361H91.1334V21.7983H91.6009V20.6361H92.7481V20.1624Z" fill="#535461"/>
<path opacity="0.25" d="M35.802 59.1448H34.6548V57.9851H34.1873V59.1448H33.0401V59.6184H34.1873V60.7807H34.6548V59.6184H35.802V59.1448Z" fill="#535461"/>
<path opacity="0.25" d="M18.7813 113.061H17.6341V111.901H17.1666V113.061H16.0194V113.534H17.1666V114.697H17.6341V113.534H18.7813V113.061Z" fill="#535461"/>
<path opacity="0.25" d="M78.364 73.3126H77.2169V72.1503H76.7494V73.3126H75.6047V73.7862H76.7494V74.9485H77.2169V73.7862H78.364V73.3126Z" fill="#535461"/>
<g opacity="0.4">
<path opacity="0.4" d="M87.8146 48.2745C87.3876 47.7022 86.8525 47.2218 86.2404 46.8613C85.5383 46.4472 84.7516 46.2027 83.9411 46.1467C83.1307 46.0906 82.3184 46.2245 81.5673 46.538C80.8163 46.8516 80.1466 47.3362 79.6104 47.9544C79.0741 48.5726 78.6857 49.3077 78.4753 50.1026C78.2649 50.8975 78.2381 51.7309 78.397 52.538C78.556 53.3451 78.8963 54.1042 79.3918 54.7564C79.8872 55.4086 80.5243 55.9364 81.2536 56.2988C81.983 56.6611 82.7849 56.8483 83.5973 56.8458C83.7084 56.8458 83.8222 56.8458 83.9308 56.8458C84.883 56.7841 85.801 56.4624 86.5873 55.9149C87.3737 55.3674 87.9991 54.6145 88.3973 53.736C88.7955 52.8575 88.9515 51.8862 88.849 50.9251C88.7464 49.964 88.389 49.049 87.8146 48.277V48.2745Z" fill="url(#paint0_linear)"/>
</g>
<path opacity="0.2" d="M88.5904 51.5003C88.5904 52.7872 88.1064 54.0258 87.2371 54.9641C86.3678 55.9025 85.1783 56.47 83.9106 56.5514C83.807 56.5514 83.7009 56.5514 83.5947 56.5514C82.8289 56.5506 82.0734 56.3714 81.3868 56.0277C80.7002 55.684 80.1008 55.1849 79.6348 54.569C79.1689 53.9532 78.849 53.237 78.6999 52.476C78.5507 51.7149 78.5762 50.9292 78.7745 50.1797C78.9727 49.4302 79.3384 48.737 79.8433 48.1535C80.3482 47.57 80.9787 47.112 81.6862 46.8147C82.3936 46.5175 83.1591 46.389 83.9233 46.4393C84.6876 46.4895 85.4302 46.7172 86.0938 47.1045V47.1045C86.6722 47.445 87.1781 47.8984 87.5822 48.4384V48.4384C88.2407 49.3193 88.595 50.3952 88.5904 51.5003V51.5003Z" fill="#37D7FF"/>
<path opacity="0.1" d="M82.3641 48.2898C82.1015 48.4018 81.848 48.5345 81.606 48.6866C81.4474 48.7744 81.3108 48.8979 81.2068 49.0476C81.1586 49.1241 81.1331 49.2129 81.1331 49.3036C81.1331 49.3943 81.1586 49.4832 81.2068 49.5597C81.2802 49.6327 81.3684 49.6888 81.4652 49.7241C81.562 49.7595 81.6652 49.7732 81.7677 49.7645C81.9509 49.8025 82.1407 49.791 82.3181 49.7312C82.4955 49.6715 82.6542 49.5655 82.7785 49.424L83.208 49.0297C83.3571 48.8915 83.5214 48.7046 83.4607 48.5177C83.4268 48.447 83.3756 48.3863 83.3118 48.3414C83.2481 48.2966 83.1741 48.2691 83.0969 48.2617C82.7278 48.1885 82.345 48.2569 82.0229 48.4537" fill="#F55F44"/>
<path opacity="0.1" d="M80.5697 53.7634C80.7147 53.7634 80.8322 53.6442 80.8322 53.4972C80.8322 53.3501 80.7147 53.2309 80.5697 53.2309C80.4248 53.2309 80.3073 53.3501 80.3073 53.4972C80.3073 53.6442 80.4248 53.7634 80.5697 53.7634Z" fill="#F55F44"/>
<path opacity="0.1" d="M85.917 52.7881C86.4501 52.7881 86.8823 52.3502 86.8823 51.8101C86.8823 51.27 86.4501 50.8321 85.917 50.8321C85.3839 50.8321 84.9517 51.27 84.9517 51.8101C84.9517 52.3502 85.3839 52.7881 85.917 52.7881Z" fill="#F55F44"/>
<path opacity="0.1" d="M87.5821 48.4614C87.579 48.7164 87.5035 48.9651 87.3648 49.1779C87.2261 49.3908 87.03 49.5588 86.7998 49.6619C86.5696 49.7651 86.315 49.7991 86.0663 49.7599C85.8175 49.7207 85.5851 49.6099 85.3968 49.4408C85.2084 49.2716 85.0719 49.0512 85.0036 48.8057C84.9353 48.5603 84.938 48.3001 85.0114 48.0562C85.0849 47.8122 85.2259 47.5948 85.4178 47.4297C85.6097 47.2646 85.8443 47.1589 86.0938 47.125V47.125C86.6724 47.4662 87.1783 47.9204 87.5821 48.4614V48.4614Z" fill="#F55F44"/>
<path opacity="0.1" d="M87.6807 54.4163C87.2511 55.0361 86.6895 55.55 86.0373 55.9201C85.3851 56.2901 84.6591 56.5068 83.9131 56.554C83.9131 56.4848 83.9131 56.4132 83.9131 56.3415C83.9117 55.8951 84.0332 55.4572 84.264 55.077C84.4949 54.6968 84.8258 54.3894 85.2196 54.1894C85.6135 53.9893 86.0546 53.9046 86.4934 53.9447C86.9322 53.9847 87.3512 54.1481 87.7034 54.4163H87.6807Z" fill="#F55F44"/>
<path d="M78.6034 121.01L62.3072 104.515L35.2482 145.892C35.0477 146.199 35.0877 146.606 35.3438 146.867C35.5877 147.115 35.9666 147.162 36.262 146.981L78.6034 121.01Z" fill="url(#paint1_linear)"/>
<path d="M69.619 90.01C69.1679 89.6898 68.6859 89.4172 68.1804 89.1966C56.9167 84.2777 36.0302 105.772 36.0302 105.772L33.6596 103.364C33.6596 103.364 41.9342 93.4395 51.5517 77.0574C60.2006 62.3148 82.5972 63.9823 87.0059 64.4628C87.4998 64.5192 87.7683 64.5558 87.7683 64.5558C95.4311 81.3695 69.619 90.01 69.619 90.01Z" fill="#AFC0E0"/>
<path opacity="0.2" d="M88.2837 65.8216C88.1327 65.4077 87.9668 64.9908 87.7726 64.5662C87.7726 64.5662 87.507 64.5327 87.0102 64.4732C82.6015 63.9927 60.2049 62.3252 51.556 77.0679C41.9385 93.4499 33.6593 103.364 33.6593 103.364L34.9925 104.718C34.9925 104.718 43.2746 94.8014 52.8846 78.4118C61.4918 63.7358 83.7332 65.3244 88.2837 65.8216Z" fill="white"/>
<path d="M106.896 133.296C90.7651 143.06 81.0126 151.477 81.0126 151.477L78.6374 149.063C78.6374 149.063 100.756 126.894 94.5899 115.645C94.4592 115.399 94.3136 115.161 94.1539 114.933C94.1539 114.933 102.653 88.7017 119.203 96.4951C119.203 96.4951 119.235 96.7119 119.278 97.1166C119.728 101.219 121.573 124.405 106.896 133.296Z" fill="#AFC0E0"/>
<path opacity="0.1" d="M69.6188 90.0098C69.1677 89.6896 68.6856 89.4171 68.1801 89.1964C73.8395 80.4878 80.1312 72.2212 87.0027 64.4656C87.4965 64.5221 87.7651 64.5586 87.7651 64.5586C95.4309 81.3693 69.6188 90.0098 69.6188 90.0098Z" fill="black"/>
<path opacity="0.1" d="M119.279 97.1241C111.555 103.97 103.296 110.168 94.5853 115.659C94.4546 115.412 94.309 115.174 94.1492 114.946C94.1492 114.946 102.649 88.7153 119.198 96.5086C119.2 96.498 119.231 96.7148 119.279 97.1241Z" fill="black"/>
<path d="M90.2648 117.598C86.135 120.095 81.776 122.533 77.1876 124.911C77.1876 124.911 66.3078 125.13 58.9749 106.406C58.9749 106.406 61.3108 101.418 66.0543 93.7226C76.48 76.7985 98.5483 46.7829 133.015 27.941C143.354 22.2539 154.361 17.9181 165.774 15.0368C165.774 15.0368 164.776 29.8711 154.842 50.1091C144.908 70.3471 126.028 95.9858 90.2648 117.598Z" fill="#E3E8F4"/>
<path d="M112.406 71.4602C118.312 77.4607 127.881 77.4672 133.778 71.4748C139.676 65.4824 139.67 55.7602 133.764 49.7597C127.858 43.7592 118.29 43.7527 112.392 49.7451C106.494 55.7375 106.501 65.4597 112.406 71.4602Z" fill="#AFC0E0"/>
<path d="M130.663 68.3213C129.228 69.7785 127.416 70.7914 125.436 71.2421C123.456 71.6929 121.39 71.5631 119.479 70.8677C117.567 70.1723 115.888 68.94 114.638 67.3141C113.387 65.6882 112.616 63.7356 112.414 61.6834C112.318 60.6795 112.358 59.6671 112.533 58.6746C112.611 58.2303 112.715 57.7915 112.847 57.3607C113.363 55.6813 114.272 54.1547 115.497 52.9121C115.558 52.85 115.618 52.7895 115.677 52.7289C117.336 51.1228 119.457 50.0994 121.732 49.8086C124.006 49.5177 126.313 49.9747 128.315 51.1126C129.075 51.5515 129.781 52.0801 130.419 52.6874L130.646 52.918C131.643 53.9295 132.434 55.1304 132.975 56.452C133.515 57.7736 133.794 59.1901 133.795 60.6205C133.797 62.051 133.521 63.4673 132.983 64.7886C132.446 66.1099 131.657 67.3104 130.663 68.3213Z" fill="#37D7FF"/>
<path d="M154.841 50.1076C136.907 43.6745 133.012 27.9289 133.012 27.9289C143.353 22.2457 154.36 17.914 165.774 15.0368C165.774 15.0368 164.776 29.8711 154.841 50.1076Z" fill="#AFC0E0"/>
<path d="M90.2649 117.598C87.4674 119.287 84.5668 120.95 81.5634 122.586C80.1327 123.368 78.6752 124.141 77.1908 124.905C77.1908 124.905 66.311 125.124 58.9781 106.4C58.9781 106.4 59.7364 104.781 61.2606 101.958C62.4169 99.8303 64.0113 97.0242 66.0529 93.7121C66.0529 93.7121 68.804 100.661 75.6099 107.576C79.8 111.862 84.7801 115.268 90.2649 117.598V117.598Z" fill="#AFC0E0"/>
<path d="M81.5633 122.586C80.1326 123.368 78.6751 124.141 77.1908 124.905C77.1908 124.905 66.3109 125.124 58.978 106.4C58.978 106.4 59.7363 104.78 61.2606 101.958C61.2591 101.956 70.6154 119.127 81.5633 122.586Z" fill="#E3E8F4"/>
<path opacity="0.2" d="M128.33 51.1065L128.301 51.1019L115.691 52.7213C115.631 52.7818 115.571 52.8424 115.51 52.9045C114.285 54.1471 113.376 55.6737 112.861 57.3531L130.437 52.6843L128.33 51.1065Z" fill="white"/>
<path opacity="0.2" d="M123.678 59.4068L112.42 61.6774C112.324 60.6735 112.364 59.6611 112.539 58.6686L123.674 58.2761L123.678 59.4068Z" fill="white"/>
<path opacity="0.2" d="M61.8592 109.331C61.8592 109.331 64.1966 104.341 68.9386 96.6472C79.3658 79.7215 101.434 49.7059 135.901 30.864C145.213 25.7515 155.067 21.7288 165.273 18.8731C165.678 16.4087 165.768 15.0339 165.768 15.0339C154.356 17.9124 143.351 22.2451 133.012 27.929C98.5454 46.7709 76.4771 76.7865 66.0499 93.7121C61.308 101.406 58.9706 106.396 58.9706 106.396C61.8696 113.792 65.3202 118.231 68.434 120.898C66.1691 118.218 63.8826 114.492 61.8592 109.331Z" fill="white"/>
<defs>
<linearGradient id="paint0_linear" x1="4202.86" y1="4831.97" x2="4202.86" y2="4383.79" gradientUnits="userSpaceOnUse">
<stop stop-color="#808080" stop-opacity="0.25"/>
<stop offset="0.54" stop-color="#808080" stop-opacity="0.12"/>
<stop offset="1" stop-color="#808080" stop-opacity="0.1"/>
</linearGradient>
<linearGradient id="paint1_linear" x1="70.4518" y1="112.759" x2="25.9655" y2="156.708" gradientUnits="userSpaceOnUse">
<stop stop-color="#E0E0E0"/>
<stop offset="0.31" stop-color="#FCCC63"/>
<stop offset="0.77" stop-color="#F55F44"/>
</linearGradient>
</defs>
</svg>