<svg width="199" height="156" viewBox="0 0 199 156" fill="none" xmlns="http://www.w3.org/2000/svg">
<path d="M61.1235 86.4158L52.925 91.4459L57.897 82.697C56.4919 81.6034 54.7488 80.9974 52.9462 80.976H52.8193C52.249 80.9817 51.6792 80.9406 51.1161 80.853L48.3445 82.5536L49.5293 80.5047C47.5626 79.8374 45.8634 78.5863 44.6737 76.9294L39.7123 80.0027L42.8859 74.4809C41.5663 72.8281 39.8825 71.4813 37.9573 70.5384C36.0321 69.5956 33.9139 69.0806 31.7571 69.0309C26.5948 69.0309 21.993 72.0018 19.0628 76.6426C18.1808 78.0357 16.9324 79.1767 15.4454 79.949C13.9583 80.7212 12.2861 81.0968 10.5998 81.0374H10.3248C4.62287 81.0374 0 87.3071 0 95.0315C0 102.756 4.62287 109.015 10.3248 109.015C11.5788 109.011 12.8131 108.712 13.9215 108.144C15.8633 107.229 17.9875 106.734 20.1467 106.693C22.3059 106.652 24.4484 107.067 26.4255 107.909C28.0906 108.626 29.8926 108.996 31.7148 108.996C33.5371 108.996 35.339 108.626 37.0042 107.909C38.9655 107.085 41.087 106.679 43.2245 106.72C45.362 106.761 47.4654 107.247 49.3918 108.144C50.4908 108.695 51.7087 108.987 52.9462 108.995C58.6481 108.995 63.271 102.735 63.271 95.011C63.3111 92.0168 62.5726 89.061 61.1235 86.4158V86.4158Z" fill="#F2F2F2"/>
<path opacity="0.03" d="M45.9036 106.989C42.9117 106.433 39.8168 106.759 37.018 107.925C35.3456 108.64 33.5382 109.012 31.71 109.015C29.8611 109.015 28.0335 108.632 26.3489 107.894C24.3636 107.052 22.2134 106.639 20.0469 106.681C17.8804 106.724 15.7493 107.222 13.8008 108.141C12.6923 108.711 11.4571 109.011 10.202 109.015C5.11691 109.015 0.881128 104.046 0 97.5034C1.01434 96.7823 1.87881 95.8817 2.54785 94.8492C5.52033 90.189 10.1383 87.2056 15.2871 87.2056C20.4358 87.2056 25.0325 90.1581 28.0263 94.7567C28.9184 96.155 30.1703 97.3046 31.6592 98.0927C33.1481 98.8809 34.8228 99.2805 36.5191 99.2523H36.6571C40.6593 99.2523 44.1944 102.4 45.9036 106.989Z" fill="black"/>
<path d="M197.652 64.6393L192.507 67.8403L195.627 62.2729C194.745 61.5769 193.652 61.1913 192.521 61.1776H192.441C192.083 61.1813 191.726 61.1551 191.372 61.0994L189.633 62.1816L190.377 60.8777C189.143 60.4531 188.077 59.6569 187.33 58.6025L184.217 60.5583L186.208 57.0444C185.38 55.9926 184.324 55.1355 183.116 54.5356C181.908 53.9356 180.579 53.6078 179.226 53.5762C175.986 53.5762 173.099 55.4668 171.261 58.42C170.707 59.3065 169.924 60.0327 168.991 60.5241C168.058 61.0155 167.008 61.2546 165.95 61.2167H165.778C162.2 61.2167 159.3 65.2065 159.3 70.1221C159.3 75.0376 162.2 79.0208 165.778 79.0208C166.565 79.0183 167.339 78.8281 168.035 78.4667C169.253 77.8841 170.586 77.569 171.941 77.5431C173.295 77.5172 174.64 77.7812 175.88 78.3167C176.925 78.7728 178.056 79.0085 179.199 79.0085C180.342 79.0085 181.473 78.7728 182.518 78.3167C183.748 77.7924 185.08 77.5344 186.421 77.5603C187.762 77.5861 189.082 77.8953 190.29 78.4667C190.98 78.8172 191.744 79.0026 192.521 79.0077C196.098 79.0077 198.999 75.0245 198.999 70.109C199.024 68.2036 198.561 66.3227 197.652 64.6393V64.6393Z" fill="#F2F2F2"/>
<path opacity="0.03" d="M187.834 77.7823C185.974 77.4429 184.051 77.6422 182.311 78.3544C181.271 78.7917 180.148 79.0186 179.011 79.0208C177.862 79.0205 176.726 78.7868 175.679 78.3355C174.444 77.8213 173.108 77.5685 171.761 77.5945C170.414 77.6206 169.09 77.9249 167.878 78.4864C167.189 78.8349 166.422 79.0184 165.641 79.0208C162.48 79.0208 159.847 75.9842 159.3 71.9858C159.93 71.5451 160.467 70.9947 160.883 70.3638C162.731 67.5159 165.602 65.6927 168.802 65.6927C172.003 65.6927 174.86 67.497 176.721 70.3072C177.276 71.1618 178.054 71.8643 178.98 72.3459C179.905 72.8276 180.946 73.0718 182.001 73.0546H182.086C184.574 73.0546 186.772 74.9783 187.834 77.7823Z" fill="black"/>
<path d="M173.467 10.7634L170.147 12.8192L172.158 9.24035C171.589 8.79571 170.884 8.54944 170.155 8.54046H170.102C169.872 8.54486 169.641 8.52808 169.414 8.49032L168.291 9.18812L168.771 8.33153C167.976 8.05827 167.288 7.54653 166.807 6.86907L164.797 8.12261L166.066 5.86206C164.891 4.48108 163.307 3.63494 161.562 3.63494C159.471 3.63494 157.609 4.85087 156.407 6.7479C156.05 7.31598 155.546 7.78151 154.946 8.09712C154.346 8.41272 153.671 8.56714 152.99 8.54464H152.879C150.57 8.54464 148.699 11.1039 148.699 14.2629C148.699 17.4218 150.57 19.9811 152.879 19.9811C153.386 19.9795 153.885 19.8569 154.333 19.6238C155.119 19.2508 155.978 19.049 156.852 19.0324C157.725 19.0158 158.592 19.1848 159.392 19.5277C160.068 19.8248 160.8 19.9793 161.541 19.9811C162.282 19.9829 163.016 19.832 163.693 19.5382C164.487 19.2017 165.345 19.036 166.21 19.0522C167.074 19.0684 167.925 19.2662 168.705 19.6322C169.15 19.8594 169.645 19.9791 170.147 19.9811C172.455 19.9811 174.326 17.4218 174.326 14.2629C174.344 13.0444 174.049 11.841 173.467 10.7634V10.7634Z" fill="#F2F2F2"/>
<path opacity="0.03" d="M167.221 19.1308C166.015 18.9075 164.769 19.0399 163.64 19.511C162.964 19.8072 162.231 19.9603 161.49 19.9603C160.749 19.9603 160.017 19.8072 159.341 19.511C158.541 19.1671 157.674 18.9976 156.8 19.0142C155.927 19.0308 155.067 19.2331 154.282 19.6071C153.833 19.8395 153.333 19.962 152.825 19.9644C150.775 19.9644 149.069 17.942 148.714 15.2761C149.125 14.9847 149.473 14.6178 149.739 14.196C150.942 12.3011 152.804 11.0851 154.895 11.0851C156.985 11.0851 158.828 12.276 160.028 14.1563C160.388 14.7246 160.891 15.1921 161.49 15.5132C162.089 15.8343 162.762 15.9981 163.445 15.9885H163.499C165.12 15.9844 166.533 17.263 167.221 19.1308Z" fill="black"/>
<path d="M150.848 54.1429C150.848 82.6034 126.531 105.674 100.639 105.674C74.7464 105.674 48.2076 82.6034 48.2076 54.1429C48.2076 25.6824 74.7464 2.61231 100.639 2.61231C126.531 2.61231 150.848 25.6842 150.848 54.1429Z" fill="url(#paint0_linear)"/>
<path d="M148.445 54.143C148.445 81.27 125.266 103.262 100.585 103.262C75.9036 103.262 50.6114 81.2718 50.6114 54.143C50.6114 27.0141 75.9055 5.02429 100.587 5.02429C125.268 5.02429 148.445 27.0232 148.445 54.143Z" fill="#37D7FF"/>
<path d="M114.615 129.496H83.2374V156H114.615V129.496Z" fill="url(#paint1_linear)"/>
<path d="M113.903 129.496H84.1672V154.621H113.903V129.496Z" fill="#F5F5F5"/>
<path d="M113.536 129.496L114.777 106.537" stroke="#AD7676" stroke-width="2" stroke-miterlimit="10"/>
<path d="M84.9013 129.496L83.2225 106.537" stroke="#AD7676" stroke-width="2" stroke-miterlimit="10"/>
<path opacity="0.2" d="M100.197 118.695C100.282 118.688 100.367 118.707 100.44 118.749C100.513 118.791 100.572 118.855 100.607 118.93C100.944 118.201 101.74 117.768 102.545 117.666C103.35 117.564 104.162 117.753 104.93 118.01C105.912 118.338 106.871 118.792 107.611 119.502C108.266 120.11 108.673 120.929 108.757 121.808C108.818 120.823 108.332 119.852 107.611 119.158C106.89 118.464 105.912 117.994 104.93 117.666C104.162 117.409 103.348 117.22 102.545 117.322C101.742 117.424 100.944 117.868 100.607 118.586C100.572 118.51 100.513 118.447 100.44 118.405C100.367 118.363 100.282 118.344 100.197 118.351C100.197 118.498 100.197 118.642 100.197 118.781C100.195 118.752 100.195 118.722 100.197 118.695Z" fill="white"/>
<path d="M104.024 104.985H92.9189V108.776H104.024V104.985Z" fill="#37D7FF"/>
<g opacity="0.2">
<path opacity="0.2" d="M100.586 4.85302C99.9977 4.85302 99.4108 4.86941 98.822 4.89492C122.832 5.90779 144.921 27.4841 144.921 53.9717C144.921 80.4593 122.83 102.036 98.822 103.048C99.4108 103.074 99.9995 103.09 100.586 103.09C125.266 103.09 148.447 81.0987 148.447 53.9717C148.447 26.8447 125.266 4.85302 100.586 4.85302Z" fill="black"/>
</g>
<g opacity="0.2">
<path opacity="0.2" d="M53.4304 54.143C53.4304 27.404 78.0071 5.6546 102.347 5.03887C101.995 5.03887 101.643 5.02429 101.291 5.02429C76.6116 5.02429 51.3156 27.0232 51.3156 54.143C51.3156 81.2627 76.6116 103.262 101.291 103.262C101.643 103.262 101.995 103.262 102.347 103.247C78.009 102.624 53.4304 80.8838 53.4304 54.143Z" fill="white"/>
</g>
<path d="M114.954 96.3683H83.0472V106.537H114.954V96.3683Z" fill="#37D7FF"/>
<path opacity="0.2" d="M83.0455 8.60212C83.0455 8.60212 45.1463 50.955 83.0455 99.6875L95.5612 99.6456C95.5612 99.6456 61.0103 59.3858 93.9755 5.5453L87.8062 6.92069L83.0455 8.60212Z" fill="white"/>
<path opacity="0.2" d="M116.011 7.95537C116.011 7.95537 153.91 50.9476 116.011 99.6856L103.495 99.6437C103.495 99.6437 138.046 59.0415 105.081 5.19913L111.246 6.40328L116.011 7.95537Z" fill="white"/>
<g opacity="0.2">
<path opacity="0.2" d="M147.068 15.7778C147.064 15.8007 147.064 15.8241 147.068 15.847C147.067 15.8549 147.067 15.8628 147.068 15.8707C147.078 15.8406 147.078 15.8079 147.068 15.7778V15.7778Z" fill="white"/>
<path opacity="0.2" d="M146.978 15.4645C146.973 15.5019 146.973 15.5399 146.978 15.5774C146.983 15.5399 146.983 15.502 146.978 15.4645V15.4645Z" fill="white"/>
</g>
<g opacity="0.2">
<path opacity="0.2" d="M142.363 6.11911C142.363 2.78721 145.426 0.0765117 148.458 0H148.326C145.251 0 142.099 2.73256 142.099 6.12093C142.099 9.50931 145.251 12.2419 148.326 12.2419H148.458C145.425 12.1599 142.363 9.45101 142.363 6.11911Z" fill="white"/>
</g>
<defs>
<linearGradient id="paint0_linear" x1="99.528" y1="105.675" x2="99.528" y2="2.61231" gradientUnits="userSpaceOnUse">
<stop stop-color="#808080" stop-opacity="0.25"/>
<stop offset="0.54" stop-color="#808080" stop-opacity="0.12"/>
<stop offset="1" stop-color="#808080" stop-opacity="0.1"/>
</linearGradient>
<linearGradient id="paint1_linear" x1="22832.1" y1="22869.9" x2="22832.1" y2="19013.9" gradientUnits="userSpaceOnUse">
<stop stop-color="#808080" stop-opacity="0.25"/>
<stop offset="0.54" stop-color="#808080" stop-opacity="0.12"/>
<stop offset="1" stop-color="#808080" stop-opacity="0.1"/>
</linearGradient>
</defs>
</svg>