<svg width="226" height="256" viewBox="0 0 226 256" fill="none" xmlns="http://www.w3.org/2000/svg">
<path d="M225.095 196.039L225.071 196.051L118.599 255.335L2.00913 197.043L0 196.039L6.05093 75.0272L111.337 0L112.499 0.726333L221.465 68.9767L225.095 196.039Z" fill="#37D7FF"/>
<path opacity="0.3" d="M225.071 196.051L118.599 255.335L2.00916 197.043L105.286 124.642L225.071 196.051Z" fill="black"/>
<path opacity="0.1" d="M225.095 196.039L105.286 124.642L112.499 0.726349L221.465 68.9767L225.095 196.039Z" fill="black"/>
<path d="M4.50106 112.368L3.90936 111.531L110.371 36.3903L222.833 106.896L222.288 107.765L110.404 37.6214L4.50106 112.368Z" fill="#F2F2F2"/>
<path d="M2.43744 153.479L1.86194 152.632L107.783 80.7231L108.061 80.8806L222.928 145.978L222.421 146.87L107.832 81.9292L2.43744 153.479Z" fill="#F2F2F2"/>
<path d="M42.8518 217.764L42.3116 216.893L149.063 150.749V23.9492H150.088V151.32L42.8518 217.764Z" fill="#F2F2F2"/>
<path d="M84.7513 238.71L84.2067 237.841L186.995 173.374V47.7077H188.02V173.942L84.7513 238.71Z" fill="#F2F2F2"/>
<path d="M186.608 217.776L67.0643 151.36L67.0813 151.041L73.3743 26.6624L74.398 26.7147L68.1211 150.773L187.106 216.88L186.608 217.776Z" fill="#F2F2F2"/>
<path d="M148.998 238.73L30.7963 176.791L30.8147 176.462L37.7826 52.0223L38.8063 52.0797L31.8576 176.19L149.474 237.822L148.998 238.73Z" fill="#F2F2F2"/>
</svg>