<svg width="130" height="127" viewBox="0 0 130 127" fill="none" xmlns="http://www.w3.org/2000/svg">
<path d="M27.4009 74.7271C28.378 72.1816 28.5195 69.8705 27.717 69.5651C26.9144 69.2596 25.4717 71.0755 24.4945 73.621C23.5174 76.1665 23.3758 78.4776 24.1784 78.783C24.981 79.0884 26.4237 77.2725 27.4009 74.7271Z" fill="#2F2E41"/>
<path d="M106.659 126.585C118.438 126.585 127.987 125.292 127.987 123.697C127.987 122.101 118.438 120.808 106.659 120.808C94.8799 120.808 85.3311 122.101 85.3311 123.697C85.3311 125.292 94.8799 126.585 106.659 126.585Z" fill="#3F3D56"/>
<path d="M92.7066 116.344L93.5088 119.234L98.7085 117.802L97.9062 114.913L92.7066 116.344Z" fill="#2F2E41"/>
<path d="M93.0649 119.745C93.5658 119.607 93.6725 118.417 93.3033 117.087C92.9341 115.757 92.2287 114.791 91.7279 114.928C91.227 115.066 91.1202 116.256 91.4895 117.586C91.8587 118.916 92.564 119.882 93.0649 119.745Z" fill="#2F2E41"/>
<path d="M109.119 106.406C109.486 103.705 109.094 101.423 108.243 101.308C107.391 101.193 106.403 103.289 106.035 105.99C105.668 108.69 106.06 110.972 106.911 111.087C107.763 111.202 108.751 109.106 109.119 106.406Z" fill="#2F2E41"/>
<path d="M106.607 125.303C112.081 125.303 116.518 120.885 116.518 115.435C116.518 109.985 112.081 105.567 106.607 105.567C101.133 105.567 96.6957 109.985 96.6957 115.435C96.6957 120.885 101.133 125.303 106.607 125.303Z" fill="#2F2E41"/>
<path d="M92.7066 114.595L93.5088 117.485L98.7085 116.054L97.9062 113.164L92.7066 114.595Z" fill="#2F2E41"/>
<path d="M93.0649 117.996C93.5658 117.858 93.6725 116.668 93.3033 115.338C92.9341 114.008 92.2287 113.042 91.7279 113.18C91.227 113.318 91.1202 114.507 91.4895 115.837C91.8587 117.167 92.564 118.134 93.0649 117.996Z" fill="#2F2E41"/>
<path d="M109.209 113.154C111.08 113.154 112.597 111.644 112.597 109.782C112.597 107.919 111.08 106.409 109.209 106.409C107.339 106.409 105.822 107.919 105.822 109.782C105.822 111.644 107.339 113.154 109.209 113.154Z" fill="white"/>
<path d="M110.293 109.416C110.916 109.416 111.422 108.913 111.422 108.292C111.422 107.671 110.916 107.168 110.293 107.168C109.669 107.168 109.163 107.671 109.163 108.292C109.163 108.913 109.669 109.416 110.293 109.416Z" fill="#3F3D56"/>
<path d="M118.052 122.216C121.72 122.034 124.529 118.618 124.326 114.587C124.124 110.556 120.986 107.437 117.319 107.62C113.651 107.802 113.075 110.669 113.278 114.7C113.481 118.731 114.385 122.399 118.052 122.216Z" fill="#37D7FF"/>
<path d="M102.556 111.26C101.959 111.308 101.368 111.117 100.912 110.731C100.455 110.345 100.172 109.794 100.124 109.2C100.075 108.606 100.266 108.016 100.654 107.562C101.042 107.108 101.595 106.826 102.192 106.777C103.435 106.677 103.774 107.66 103.875 108.898C103.975 110.135 103.799 111.159 102.556 111.26Z" fill="white"/>
<path d="M6.20563 68.0839H61.7198L70.3266 72.2589L84.0399 78.9109L93.0061 62.1957H118.379" stroke="#3F3D56" stroke-width="2" stroke-miterlimit="10"/>
<path d="M27.9534 71.5423C28.9016 71.5423 29.6703 70.7769 29.6703 69.8328C29.6703 68.8887 28.9016 68.1233 27.9534 68.1233C27.0051 68.1233 26.2365 68.8887 26.2365 69.8328C26.2365 70.7769 27.0051 71.5423 27.9534 71.5423Z" fill="#37D7FF"/>
<path d="M43.9781 69.7935C44.9263 69.7935 45.695 69.0282 45.695 68.084C45.695 67.1399 44.9263 66.3745 43.9781 66.3745C43.0299 66.3745 42.2612 67.1399 42.2612 68.084C42.2612 69.0282 43.0299 69.7935 43.9781 69.7935Z" fill="#37D7FF"/>
<path d="M70.3045 73.9722C71.2527 73.9722 72.0214 73.2069 72.0214 72.2627C72.0214 71.3186 71.2527 70.5532 70.3045 70.5532C69.3562 70.5532 68.5875 71.3186 68.5875 72.2627C68.5875 73.2069 69.3562 73.9722 70.3045 73.9722Z" fill="#37D7FF"/>
<path d="M107.314 63.9051C108.262 63.9051 109.031 63.1397 109.031 62.1956C109.031 61.2515 108.262 60.4861 107.314 60.4861C106.366 60.4861 105.597 61.2515 105.597 62.1956C105.597 63.1397 106.366 63.9051 107.314 63.9051Z" fill="#37D7FF"/>
<path d="M89.3815 70.5533C90.3297 70.5533 91.0984 69.7879 91.0984 68.8438C91.0984 67.8997 90.3297 67.1343 89.3815 67.1343C88.4333 67.1343 87.6646 67.8997 87.6646 68.8438C87.6646 69.7879 88.4333 70.5533 89.3815 70.5533Z" fill="#37D7FF"/>
<path d="M21.3278 126.986C33.1068 126.986 42.6556 125.693 42.6556 124.097C42.6556 122.502 33.1068 121.208 21.3278 121.208C9.54879 121.208 0 122.502 0 124.097C0 125.693 9.54879 126.986 21.3278 126.986Z" fill="#3F3D56"/>
<path d="M20.1742 119.85C25.6479 119.85 30.0853 115.432 30.0853 109.982C30.0853 104.532 25.6479 100.114 20.1742 100.114C14.7004 100.114 10.263 104.532 10.263 109.982C10.263 115.432 14.7004 119.85 20.1742 119.85Z" fill="#2F2E41"/>
<path d="M18.6687 117.727H15.6577V123.098H18.6687V117.727Z" fill="#2F2E41"/>
<path d="M24.6907 117.727H21.6797V123.098H24.6907V117.727Z" fill="#2F2E41"/>
<path d="M18.1669 124.097C19.5526 124.097 20.676 123.678 20.676 123.16C20.676 122.643 19.5526 122.224 18.1669 122.224C16.7811 122.224 15.6577 122.643 15.6577 123.16C15.6577 123.678 16.7811 124.097 18.1669 124.097Z" fill="#2F2E41"/>
<path d="M24.1888 123.972C25.5746 123.972 26.698 123.553 26.698 123.035C26.698 122.518 25.5746 122.099 24.1888 122.099C22.8031 122.099 21.6797 122.518 21.6797 123.035C21.6797 123.553 22.8031 123.972 24.1888 123.972Z" fill="#2F2E41"/>
<path d="M20.4251 110.856C22.2959 110.856 23.8124 109.346 23.8124 107.484C23.8124 105.621 22.2959 104.111 20.4251 104.111C18.5543 104.111 17.0377 105.621 17.0377 107.484C17.0377 109.346 18.5543 110.856 20.4251 110.856Z" fill="white"/>
<path d="M20.4251 108.608C21.0487 108.608 21.5542 108.105 21.5542 107.484C21.5542 106.863 21.0487 106.359 20.4251 106.359C19.8015 106.359 19.296 106.863 19.296 107.484C19.296 108.105 19.8015 108.608 20.4251 108.608Z" fill="#3F3D56"/>
<path d="M10.56 100.805C9.75976 97.2362 12.3179 93.6303 16.2739 92.7508C20.2298 91.8713 24.0855 94.0512 24.8858 97.6197C25.6861 101.188 23.0643 102.504 19.1084 103.384C15.1524 104.263 11.3603 104.373 10.56 100.805Z" fill="#37D7FF"/>
<path d="M16.7868 91.4944C22.2606 91.4944 26.698 87.0762 26.698 81.6261C26.698 76.176 22.2606 71.7578 16.7868 71.7578C11.313 71.7578 6.87567 76.176 6.87567 81.6261C6.87567 87.0762 11.313 91.4944 16.7868 91.4944Z" fill="#2F2E41"/>
<path d="M15.2813 89.3708H12.2703V94.7422H15.2813V89.3708Z" fill="#2F2E41"/>
<path d="M21.3033 89.3708H18.2923V94.7422H21.3033V89.3708Z" fill="#2F2E41"/>
<path d="M14.7795 95.7414C16.1652 95.7414 17.2886 95.322 17.2886 94.8045C17.2886 94.2871 16.1652 93.8677 14.7795 93.8677C13.3937 93.8677 12.2703 94.2871 12.2703 94.8045C12.2703 95.322 13.3937 95.7414 14.7795 95.7414Z" fill="#2F2E41"/>
<path d="M20.8015 95.6166C22.1872 95.6166 23.3106 95.1972 23.3106 94.6798C23.3106 94.1624 22.1872 93.7429 20.8015 93.7429C19.4157 93.7429 18.2923 94.1624 18.2923 94.6798C18.2923 95.1972 19.4157 95.6166 20.8015 95.6166Z" fill="#2F2E41"/>
<path d="M17.0377 82.5006C18.9085 82.5006 20.4251 80.9905 20.4251 79.1278C20.4251 77.2651 18.9085 75.7551 17.0377 75.7551C15.167 75.7551 13.6504 77.2651 13.6504 79.1278C13.6504 80.9905 15.167 82.5006 17.0377 82.5006Z" fill="white"/>
<path d="M17.0377 80.2521C17.6613 80.2521 18.1669 79.7488 18.1669 79.1279C18.1669 78.507 17.6613 78.0037 17.0377 78.0037C16.4142 78.0037 15.9086 78.507 15.9086 79.1279C15.9086 79.7488 16.4142 80.2521 17.0377 80.2521Z" fill="#3F3D56"/>
<path d="M7.17265 72.4489C6.37237 68.8803 8.93054 65.2745 12.8865 64.395C16.8424 63.5155 20.6981 65.6954 21.4984 69.2639C22.2987 72.8324 19.6769 74.1486 15.721 75.0281C11.765 75.9076 7.97292 76.0174 7.17265 72.4489Z" fill="#37D7FF"/>
<path d="M10.101 79.1616C10.4692 78.3886 8.76307 76.8154 6.29021 75.6476C3.81735 74.4798 1.51423 74.1598 1.14604 74.9327C0.777847 75.7057 2.48402 77.2789 4.95687 78.4467C7.42973 79.6145 9.73286 79.9345 10.101 79.1616Z" fill="#2F2E41"/>
<path d="M11.9185 85.1863C11.9185 86.1521 14.4161 88.0593 17.1877 88.0593C19.9592 88.0593 22.5578 85.3402 22.5578 84.3743C22.5578 83.4085 19.9592 84.5617 17.1877 84.5617C14.4161 84.5617 11.9185 84.2204 11.9185 85.1863Z" fill="white"/>
<path d="M112.38 95H96.5563V103.015H112.38V95Z" fill="#37D7FF"/>
<path d="M111.142 96.3016H95.3179V104.316H111.142V96.3016Z" stroke="#3F3D56" stroke-width="2" stroke-miterlimit="10"/>
<path d="M113.671 56.5224C119.145 56.5224 123.582 52.1042 123.582 46.6541C123.582 41.204 119.145 36.7858 113.671 36.7858C108.197 36.7858 103.76 41.204 103.76 46.6541C103.76 52.1042 108.197 56.5224 113.671 56.5224Z" fill="#2F2E41"/>
<path d="M117.499 59.2928L120.462 58.7588L119.501 53.4733L116.538 54.0074L117.499 59.2928Z" fill="#2F2E41"/>
<path d="M111.574 60.3614L114.536 59.8274L113.575 54.5419L110.613 55.076L111.574 60.3614Z" fill="#2F2E41"/>
<path d="M113.146 61.4737C114.204 60.582 114.789 59.539 114.453 59.1442C114.117 58.7493 112.988 59.1521 111.93 60.0438C110.873 60.9356 110.288 61.9785 110.624 62.3734C110.959 62.7682 112.089 62.3654 113.146 61.4737Z" fill="#2F2E41"/>
<path d="M118.949 60.4279C120.006 59.5362 120.591 58.4933 120.255 58.0984C119.919 57.7036 118.79 58.1064 117.732 58.9981C116.675 59.8898 116.09 60.9328 116.426 61.3276C116.762 61.7224 117.891 61.3197 118.949 60.4279Z" fill="#2F2E41"/>
<path d="M112.977 47.6129C114.848 47.6129 116.365 46.1028 116.365 44.2401C116.365 42.3774 114.848 40.8674 112.977 40.8674C111.107 40.8674 109.59 42.3774 109.59 44.2401C109.59 46.1028 111.107 47.6129 112.977 47.6129Z" fill="white"/>
<path d="M111.585 44.1555C112.209 44.1555 112.714 43.6521 112.714 43.0312C112.714 42.4103 112.209 41.907 111.585 41.907C110.962 41.907 110.456 42.4103 110.456 43.0312C110.456 43.6521 110.962 44.1555 111.585 44.1555Z" fill="#3F3D56"/>
<path d="M121.49 35.9184C121.639 32.265 118.476 29.1706 114.426 29.0068C110.376 28.843 106.972 31.6718 106.823 35.3252C106.674 38.9786 109.489 39.8087 113.54 39.9725C117.59 40.1363 121.341 39.5718 121.49 35.9184Z" fill="#37D7FF"/>
<path d="M109.35 45.9586C109.542 45.1248 107.535 43.9553 104.867 43.3464C102.2 42.7376 99.8813 42.92 99.6893 43.7538C99.4974 44.5877 101.504 45.7572 104.172 46.3661C106.84 46.9749 109.158 46.7925 109.35 45.9586Z" fill="#2F2E41"/>
<path d="M128.805 49.18C128.997 48.3461 126.99 47.1766 124.322 46.5677C121.655 45.9589 119.337 46.1413 119.145 46.9752C118.953 47.809 120.96 48.9785 123.627 49.5874C126.295 50.1962 128.613 50.0138 128.805 49.18Z" fill="#2F2E41"/>
<path d="M116.393 50.543C116.446 50.8335 116.441 51.1316 116.378 51.4202C116.315 51.7087 116.196 51.9821 116.027 52.2248C115.858 52.4674 115.643 52.6745 115.393 52.8343C115.144 52.9941 114.865 53.1034 114.574 53.156C114.282 53.2086 113.982 53.2035 113.693 53.1409C113.403 53.0783 113.128 52.9595 112.884 52.7912C112.641 52.6229 112.433 52.4085 112.272 52.1602C112.112 51.9119 112.002 51.6346 111.949 51.344C111.727 50.1221 112.676 49.6897 113.903 49.4685C115.13 49.2473 116.171 49.321 116.393 50.543Z" fill="white"/>
<path d="M105.399 108.75C105.766 106.05 105.374 103.768 104.523 103.653C103.671 103.538 102.683 105.634 102.315 108.334C101.948 111.035 102.34 113.317 103.191 113.432C104.043 113.547 105.031 111.451 105.399 108.75Z" fill="#2F2E41"/>
<path d="M8.63295 122.883C9.58119 122.883 10.3499 122.117 10.3499 121.173C10.3499 120.229 9.58119 119.464 8.63295 119.464C7.68471 119.464 6.91602 120.229 6.91602 121.173C6.91602 122.117 7.68471 122.883 8.63295 122.883Z" fill="#37D7FF"/>
<path d="M32.2189 123.882C33.1672 123.882 33.9359 123.117 33.9359 122.172C33.9359 121.228 33.1672 120.463 32.2189 120.463C31.2707 120.463 30.502 121.228 30.502 122.172C30.502 123.117 31.2707 123.882 32.2189 123.882Z" fill="#37D7FF"/>
<path d="M87.0548 122.858V113.563" stroke="#3F3D56" stroke-width="2" stroke-miterlimit="10"/>
<path d="M87.0548 114.877C87.7839 114.877 88.375 114.289 88.375 113.563C88.375 112.837 87.7839 112.248 87.0548 112.248C86.3257 112.248 85.7346 112.837 85.7346 113.563C85.7346 114.289 86.3257 114.877 87.0548 114.877Z" fill="#3F3D56"/>
<path d="M87.0548 119.292C87.0548 119.292 86.8662 115.253 83 115.722Z" fill="#3F3D56"/>
<g clip-path="url(#clip0)">
<rect x="46.25" y="19.25" width="33.5" height="31.5" stroke="#37D7FF" stroke-width="0.5"/>
<g opacity="0.8">
<path opacity="0.8" d="M95 0H59.8799V38.8438H95V0Z" fill="url(#paint0_linear)"/>
</g>
<path d="M94.4189 25.9346H60.4601V37.9979H94.4189V25.9346Z" fill="white"/>
<path d="M64.5634 28.7959H63.2475V34.9775H64.5634V28.7959Z" fill="#64FFDA"/>
<g opacity="0.7">
<path opacity="0.7" d="M67.1611 28.7959H65.8452V34.9775H67.1611V28.7959Z" fill="#64FFDA"/>
</g>
<g opacity="0.6">
<path opacity="0.6" d="M69.7597 28.7959H68.4437V34.9775H69.7597V28.7959Z" fill="#64FFDA"/>
</g>
<g opacity="0.5">
<path opacity="0.5" d="M72.3574 28.7959H71.0414V34.9775H72.3574V28.7959Z" fill="#64FFDA"/>
</g>
<g opacity="0.5">
<path opacity="0.5" d="M74.9551 28.7959H73.6391V34.9775H74.9551V28.7959Z" fill="#64FFDA"/>
</g>
<g opacity="0.4">
<path opacity="0.4" d="M77.5528 28.7959H76.2368V34.9775H77.5528V28.7959Z" fill="#64FFDA"/>
</g>
<g opacity="0.3">
<path opacity="0.3" d="M80.1513 28.7959H78.8354V34.9775H80.1513V28.7959Z" fill="#64FFDA"/>
</g>
<path d="M89.6115 34.9935C91.3652 34.9935 92.7868 33.5847 92.7868 31.8469C92.7868 30.109 91.3652 28.7002 89.6115 28.7002C87.8578 28.7002 86.4362 30.109 86.4362 31.8469C86.4362 33.5847 87.8578 34.9935 89.6115 34.9935Z" fill="#37D7FF"/>
<path d="M94.4189 13.4012H60.4601V25.4646H94.4189V13.4012Z" fill="white"/>
<path d="M64.5634 16.2626H63.2475V22.4441H64.5634V16.2626Z" fill="#64FFDA"/>
<g opacity="0.7">
<path opacity="0.7" d="M67.1611 16.2626H65.8452V22.4441H67.1611V16.2626Z" fill="#64FFDA"/>
</g>
<g opacity="0.6">
<path opacity="0.6" d="M69.7597 16.2626H68.4437V22.4441H69.7597V16.2626Z" fill="#64FFDA"/>
</g>
<g opacity="0.5">
<path opacity="0.5" d="M72.3574 16.2626H71.0414V22.4441H72.3574V16.2626Z" fill="#64FFDA"/>
</g>
<g opacity="0.5">
<path opacity="0.5" d="M74.9551 16.2626H73.6391V22.4441H74.9551V16.2626Z" fill="#64FFDA"/>
</g>
<g opacity="0.4">
<path opacity="0.4" d="M77.5528 16.2626H76.2368V22.4441H77.5528V16.2626Z" fill="#64FFDA"/>
</g>
<g opacity="0.3">
<path opacity="0.3" d="M80.1513 16.2626H78.8354V22.4441H80.1513V16.2626Z" fill="#64FFDA"/>
</g>
<path d="M89.6115 22.4611C91.3652 22.4611 92.7868 21.0522 92.7868 19.3144C92.7868 17.5765 91.3652 16.1677 89.6115 16.1677C87.8578 16.1677 86.4362 17.5765 86.4362 19.3144C86.4362 21.0522 87.8578 22.4611 89.6115 22.4611Z" fill="#37D7FF"/>
<path d="M94.4189 0.86792H60.4601V12.9312H94.4189V0.86792Z" fill="white"/>
<path d="M64.5634 3.7301H63.2475V9.91165H64.5634V3.7301Z" fill="#64FFDA"/>
<g opacity="0.7">
<path opacity="0.7" d="M67.1611 3.7301H65.8452V9.91165H67.1611V3.7301Z" fill="#64FFDA"/>
</g>
<g opacity="0.6">
<path opacity="0.6" d="M69.7597 3.7301H68.4437V9.91165H69.7597V3.7301Z" fill="#64FFDA"/>
</g>
<g opacity="0.5">
<path opacity="0.5" d="M72.3574 3.7301H71.0414V9.91165H72.3574V3.7301Z" fill="#64FFDA"/>
</g>
<g opacity="0.5">
<path opacity="0.5" d="M74.9551 3.7301H73.6391V9.91165H74.9551V3.7301Z" fill="#64FFDA"/>
</g>
<g opacity="0.4">
<path opacity="0.4" d="M77.5528 3.7301H76.2368V9.91165H77.5528V3.7301Z" fill="#64FFDA"/>
</g>
<g opacity="0.3">
<path opacity="0.3" d="M80.1513 3.7301H78.8354V9.91165H80.1513V3.7301Z" fill="#64FFDA"/>
</g>
<path d="M89.6115 10.1734C91.502 10.1734 93.0346 8.65462 93.0346 6.78114C93.0346 4.90767 91.502 3.38892 89.6115 3.38892C87.7209 3.38892 86.1884 4.90767 86.1884 6.78114C86.1884 8.65462 87.7209 10.1734 89.6115 10.1734Z" fill="url(#paint1_linear)"/>
<path d="M89.6115 22.7904C91.502 22.7904 93.0346 21.2717 93.0346 19.3982C93.0346 17.5247 91.502 16.006 89.6115 16.006C87.7209 16.006 86.1884 17.5247 86.1884 19.3982C86.1884 21.2717 87.7209 22.7904 89.6115 22.7904Z" fill="url(#paint2_linear)"/>
<path d="M89.6115 35.3228C91.502 35.3228 93.0346 33.804 93.0346 31.9306C93.0346 30.0571 91.502 28.5383 89.6115 28.5383C87.7209 28.5383 86.1884 30.0571 86.1884 31.9306C86.1884 33.804 87.7209 35.3228 89.6115 35.3228Z" fill="url(#paint3_linear)"/>
<path d="M89.6115 9.92772C91.3652 9.92772 92.7868 8.51892 92.7868 6.78106C92.7868 5.04321 91.3652 3.6344 89.6115 3.6344C87.8578 3.6344 86.4362 5.04321 86.4362 6.78106C86.4362 8.51892 87.8578 9.92772 89.6115 9.92772Z" fill="#37D7FF"/>
<g opacity="0.8">
<path opacity="0.8" d="M70.8286 58.883H23.8258V29.1455C23.8258 28.9698 23.8608 28.7959 23.9286 28.6335C23.9965 28.4712 24.0959 28.3237 24.2213 28.1995C24.3466 28.0752 24.4955 27.9767 24.6593 27.9095C24.8231 27.8422 24.9987 27.8076 25.176 27.8076H69.4777C69.655 27.8076 69.8305 27.8422 69.9943 27.9095C70.1581 27.9767 70.307 28.0752 70.4324 28.1995C70.5577 28.3237 70.6572 28.4712 70.725 28.6335C70.7929 28.7959 70.8278 28.9698 70.8278 29.1455L70.8286 58.883Z" fill="url(#paint4_linear)"/>
</g>
<path d="M25.8237 28.3546H68.8308C69.1889 28.3546 69.5323 28.4956 69.7855 28.7465C70.0387 28.9974 70.1809 29.3377 70.1809 29.6925V58.883H24.4736V29.6925C24.4736 29.3377 24.6158 28.9974 24.869 28.7465C25.1222 28.4956 25.4656 28.3546 25.8237 28.3546V28.3546Z" fill="white"/>
<path d="M68.7095 30.1304H25.945V57.9262H68.7095V30.1304Z" fill="#F5F5F5"/>
<path opacity="0.8" d="M68.6924 31.4801H26.1091V56.4874H68.6924V31.4801Z" fill="#E0E0E0"/>
<path d="M68.6924 30.1515H26.1091V31.4801H68.6924V30.1515Z" fill="#F5F5F5"/>
<path d="M27.0217 31.1169C27.201 31.1169 27.3464 30.9729 27.3464 30.7952C27.3464 30.6175 27.201 30.4734 27.0217 30.4734C26.8424 30.4734 26.697 30.6175 26.697 30.7952C26.697 30.9729 26.8424 31.1169 27.0217 31.1169Z" fill="#FF5252"/>
<path d="M27.9155 31.1169C28.0948 31.1169 28.2402 30.9729 28.2402 30.7952C28.2402 30.6175 28.0948 30.4734 27.9155 30.4734C27.7362 30.4734 27.5908 30.6175 27.5908 30.7952C27.5908 30.9729 27.7362 31.1169 27.9155 31.1169Z" fill="#FFFF00"/>
<path d="M28.8102 31.1169C28.9895 31.1169 29.1349 30.9729 29.1349 30.7952C29.1349 30.6175 28.9895 30.4734 28.8102 30.4734C28.6308 30.4734 28.4854 30.6175 28.4854 30.7952C28.4854 30.9729 28.6308 31.1169 28.8102 31.1169Z" fill="#69F0AE"/>
<g opacity="0.8">
<path opacity="0.8" d="M72.1437 60.8807C69.5273 61.0771 24.594 60.9984 23.0235 60.8807C20.965 59.8975 21 56.0836 21 56.0836L41.6064 55.9473L41.6756 57.1082H50.4975L50.8393 56.0836H73.6784C73.6784 56.0836 74.1322 59.5834 72.1437 60.8807Z" fill="url(#paint5_linear)"/>
</g>
<path d="M73.3435 56.391H50.9503C51.0384 56.4893 51.0957 56.6109 51.1153 56.7409C51.1348 56.871 51.1157 57.0039 51.0604 57.1233C51.005 57.2428 50.9158 57.3438 50.8036 57.4139C50.6913 57.484 50.5609 57.5202 50.4282 57.5181H41.8832C41.7506 57.5202 41.6202 57.484 41.5079 57.4139C41.3957 57.3438 41.3064 57.2428 41.2511 57.1233C41.1957 57.0039 41.1766 56.871 41.1962 56.7409C41.2157 56.6109 41.273 56.4893 41.3611 56.391H21.3102C21.3102 56.391 21.276 59.7036 23.3089 60.5572C24.8598 60.6597 69.2436 60.7266 71.8276 60.5572C73.7921 59.4301 73.3435 56.391 73.3435 56.391Z" fill="#F5F5F5"/>
<path d="M25.9621 57.3809C26.1145 57.3809 26.2381 57.2584 26.2381 57.1074C26.2381 56.9563 26.1145 56.8339 25.9621 56.8339C25.8097 56.8339 25.6861 56.9563 25.6861 57.1074C25.6861 57.2584 25.8097 57.3809 25.9621 57.3809Z" fill="#E0E0E0"/>
<path d="M26.7893 57.3809C26.9417 57.3809 27.0653 57.2584 27.0653 57.1074C27.0653 56.9563 26.9417 56.8339 26.7893 56.8339C26.6368 56.8339 26.5133 56.9563 26.5133 57.1074C26.5133 57.2584 26.6368 57.3809 26.7893 57.3809Z" fill="#E0E0E0"/>
<path d="M27.6164 57.3809C27.7689 57.3809 27.8924 57.2584 27.8924 57.1074C27.8924 56.9563 27.7689 56.8339 27.6164 56.8339C27.464 56.8339 27.3404 56.9563 27.3404 57.1074C27.3404 57.2584 27.464 57.3809 27.6164 57.3809Z" fill="#E0E0E0"/>
<path d="M53.0773 47.5063L53.0758 47.507L46.7248 51.0222L39.7703 47.5658L39.6504 47.5063L40.0113 40.331L46.2916 35.8823L46.361 35.9254L52.8607 39.9722L53.0773 47.5063Z" fill="#37D7FF"/>
<path opacity="0.3" d="M53.0758 47.5071L46.7248 51.0222L39.7703 47.5659L45.9307 43.2729L53.0758 47.5071Z" fill="black"/>
<path opacity="0.1" d="M53.0773 47.5063L45.9307 43.2729L46.361 35.9254L52.8607 39.9723L53.0773 47.5063Z" fill="black"/>
<path d="M39.9189 42.5451L39.8836 42.4954L46.234 38.04L52.9423 42.2206L52.9098 42.2722L46.236 38.113L39.9189 42.5451Z" fill="#F2F2F2"/>
<path d="M39.7958 44.9827L39.7615 44.9324L46.0797 40.6687L46.0962 40.678L52.948 44.5379L52.9178 44.5908L46.0826 40.7402L39.7958 44.9827Z" fill="#F2F2F2"/>
<path d="M42.2065 48.7944L42.1743 48.7428L48.5419 44.8209V37.3024H48.6031V44.8547L42.2065 48.7944Z" fill="#F2F2F2"/>
<path d="M44.7058 50.0364L44.6733 49.9849L50.8046 46.1624V38.7111H50.8658V46.196L44.7058 50.0364Z" fill="#F2F2F2"/>
<path d="M50.7815 48.7952L43.6508 44.8571L43.6518 44.8382L44.0271 37.4633L44.0882 37.4664L43.7138 44.8223L50.8112 48.742L50.7815 48.7952Z" fill="#F2F2F2"/>
<path d="M48.5381 50.0377L41.4874 46.3651L41.4885 46.3456L41.9041 38.967L41.9652 38.9704L41.5507 46.3295L48.5665 49.9838L48.5381 50.0377Z" fill="#F2F2F2"/>
</g>
<defs>
<linearGradient id="paint0_linear" x1="77.44" y1="38.8438" x2="77.44" y2="0" gradientUnits="userSpaceOnUse">
<stop stop-color="#808080" stop-opacity="0.25"/>
<stop offset="0.54" stop-color="#808080" stop-opacity="0.12"/>
<stop offset="1" stop-color="#808080" stop-opacity="0.1"/>
</linearGradient>
<linearGradient id="paint1_linear" x1="5583.34" y1="818.473" x2="5583.34" y2="274.903" gradientUnits="userSpaceOnUse">
<stop stop-color="#808080" stop-opacity="0.25"/>
<stop offset="0.54" stop-color="#808080" stop-opacity="0.12"/>
<stop offset="1" stop-color="#808080" stop-opacity="0.1"/>
</linearGradient>
<linearGradient id="paint2_linear" x1="5583.34" y1="1841.98" x2="5583.34" y2="1298.41" gradientUnits="userSpaceOnUse">
<stop stop-color="#808080" stop-opacity="0.25"/>
<stop offset="0.54" stop-color="#808080" stop-opacity="0.12"/>
<stop offset="1" stop-color="#808080" stop-opacity="0.1"/>
</linearGradient>
<linearGradient id="paint3_linear" x1="5583.34" y1="2858.61" x2="5583.34" y2="2315.04" gradientUnits="userSpaceOnUse">
<stop stop-color="#808080" stop-opacity="0.25"/>
<stop offset="0.54" stop-color="#808080" stop-opacity="0.12"/>
<stop offset="1" stop-color="#808080" stop-opacity="0.1"/>
</linearGradient>
<linearGradient id="paint4_linear" x1="22354.9" y1="24427.6" x2="22354.9" y2="13023.8" gradientUnits="userSpaceOnUse">
<stop stop-color="#808080" stop-opacity="0.25"/>
<stop offset="0.54" stop-color="#808080" stop-opacity="0.12"/>
<stop offset="1" stop-color="#808080" stop-opacity="0.1"/>
</linearGradient>
<linearGradient id="paint5_linear" x1="25090.8" y1="4149.84" x2="25090.8" y2="3848.22" gradientUnits="userSpaceOnUse">
<stop stop-color="#808080" stop-opacity="0.25"/>
<stop offset="0.54" stop-color="#808080" stop-opacity="0.12"/>
<stop offset="1" stop-color="#808080" stop-opacity="0.1"/>
</linearGradient>
<clipPath id="clip0">
<rect width="74" height="61" fill="white" transform="translate(21)"/>
</clipPath>
</defs>
</svg>