<svg width="206" height="132" viewBox="0 0 206 132" fill="none" xmlns="http://www.w3.org/2000/svg">
<path d="M205.316 5.3588V125.653C205.316 126.386 205.172 127.112 204.892 127.789C204.612 128.466 204.201 129.082 203.684 129.6C203.166 130.119 202.551 130.53 201.874 130.811C201.197 131.092 200.471 131.237 199.739 131.237H5.57731C4.18639 131.236 2.84582 130.716 1.81861 129.778C0.791389 128.84 0.151665 127.552 0.0249349 126.166C0.00781198 125.996 -0.000503842 125.824 2.35942e-05 125.653V5.3588C2.35942e-05 5.23671 2.43543e-05 5.10963 0.0124792 5H205.299C205.306 5.10963 205.316 5.23172 205.316 5.3588Z" fill="#4C4C78"/>
<path d="M199.726 2.57716e-07H5.56483C4.58528 -0.000297526 3.62293 0.25747 2.77461 0.747358C1.92628 1.23725 1.2219 1.94198 0.732347 2.79065C0.302463 3.53326 0.0517014 4.36594 0 5.2225H205.286C205.196 3.80852 204.571 2.48195 203.538 1.51204C202.506 0.542123 201.143 0.00153728 199.726 2.57716e-07V2.57716e-07Z" fill="#37D7FF"/>
<path d="M5.39495 3.79064C6.16536 3.79064 6.78989 3.16594 6.78989 2.39532C6.78989 1.62471 6.16536 1 5.39495 1C4.62454 1 4 1.62471 4 2.39532C4 3.16594 4.62454 3.79064 5.39495 3.79064Z" fill="#EDEDF4"/>
<path d="M9.57731 3.79064C10.3477 3.79064 10.9723 3.16594 10.9723 2.39532C10.9723 1.62471 10.3477 1 9.57731 1C8.80691 1 8.18237 1.62471 8.18237 2.39532C8.18237 3.16594 8.80691 3.79064 9.57731 3.79064Z" fill="#EDEDF4"/>
<path d="M13.7622 3.79064C14.5326 3.79064 15.1571 3.16594 15.1571 2.39532C15.1571 1.62471 14.5326 1 13.7622 1C12.9918 1 12.3672 1.62471 12.3672 2.39532C12.3672 3.16594 12.9918 3.79064 13.7622 3.79064Z" fill="#EDEDF4"/>
<path d="M115 75.7728L114.997 75.7742L103.172 82.3585L90.2231 75.8844L90 75.7728L90.672 62.3328L102.366 54L102.495 54.0807L114.597 61.6608L115 75.7728Z" fill="#37D7FF"/>
<path opacity="0.3" d="M114.997 75.7742L103.172 82.3585L90.2231 75.8844L101.694 67.8433L114.997 75.7742Z" fill="black"/>
<path opacity="0.1" d="M115 75.7728L101.694 67.8433L102.495 54.0807L114.597 61.6608L115 75.7728Z" fill="black"/>
<path d="M90.4999 66.4801L90.4342 66.3871L102.258 58.0417L114.749 65.8723L114.688 65.9689L102.262 58.1784L90.4999 66.4801Z" fill="#F2F2F2"/>
<path d="M90.2708 71.046L90.2068 70.9519L101.971 62.9654L102.002 62.9829L114.759 70.2129L114.703 70.312L101.976 63.0994L90.2708 71.046Z" fill="#F2F2F2"/>
<path d="M94.7593 78.1857L94.6993 78.089L106.556 70.7428V56.6599H106.669V70.8062L94.7593 78.1857Z" fill="#F2F2F2"/>
<path d="M99.4128 80.5121L99.3524 80.4156L110.768 73.2557V59.2986H110.882V73.3187L99.4128 80.5121Z" fill="#F2F2F2"/>
<path d="M110.725 78.1871L97.4485 70.8106L97.4504 70.7752L98.1493 56.9612L98.263 56.967L97.5659 70.7455L110.781 78.0876L110.725 78.1871Z" fill="#F2F2F2"/>
<path d="M106.548 80.5143L93.4203 73.6351L93.4224 73.5986L94.1963 59.7778L94.31 59.7842L93.5382 73.5684L106.601 80.4134L106.548 80.5143Z" fill="#F2F2F2"/>
<path d="M102.205 106.713H163.836V74.6311" stroke="#37D7FF" stroke-width="2" stroke-miterlimit="10"/>
<path d="M106.426 29.8853H43.9508V61.9672" stroke="#37D7FF" stroke-width="2" stroke-miterlimit="10"/>
<path d="M174.988 43.3934L158.164 41.2429C157.401 34.8109 158.553 28.5315 160.52 22.2869L177.344 24.4374C174.845 30.4134 174.029 36.9754 174.988 43.3934V43.3934Z" fill="#F2F2F2"/>
<path d="M173.452 25.8694L163.096 24.563L162.956 25.6764L173.312 26.9828L173.452 25.8694Z" fill="#37D7FF"/>
<path opacity="0.3" d="M174.738 28.7726L160.703 27.0019L160.632 27.5587L174.668 29.3293L174.738 28.7726Z" fill="#37D7FF"/>
<path opacity="0.3" d="M174.512 30.5713L160.476 28.8006L160.406 29.3573L174.442 31.128L174.512 30.5713Z" fill="#37D7FF"/>
<path opacity="0.3" d="M174.285 32.3699L160.25 30.5993L160.179 31.156L174.215 32.9267L174.285 32.3699Z" fill="#37D7FF"/>
<path opacity="0.3" d="M174.059 34.1686L160.023 32.3979L159.953 32.9547L173.989 34.7253L174.059 34.1686Z" fill="#37D7FF"/>
<path opacity="0.3" d="M173.832 35.9673L159.796 34.1966L159.726 34.7534L173.762 36.524L173.832 35.9673Z" fill="#37D7FF"/>
<path opacity="0.3" d="M173.606 37.766L159.57 35.9954L159.5 36.5521L173.535 38.3228L173.606 37.766Z" fill="#37D7FF"/>
<path opacity="0.3" d="M173.379 39.5647L159.343 37.794L159.273 38.3508L173.309 40.1214L173.379 39.5647Z" fill="#37D7FF"/>
<path d="M166.943 36.6393L151.172 30.3725C152.041 24.0852 154.728 18.4237 158.196 13L173.967 19.2669C170.05 24.302 167.619 30.3159 166.943 36.6393Z" fill="#E6E6E6"/>
<path d="M169.892 19.6689L160.203 15.7826L159.786 16.8243L169.474 20.7106L169.892 19.6689Z" fill="#37D7FF"/>
<path opacity="0.3" d="M170.402 22.8033L157.271 17.5359L157.062 18.0568L170.193 23.3242L170.402 22.8033Z" fill="#37D7FF"/>
<path opacity="0.3" d="M169.728 24.4861L156.597 19.2187L156.388 19.7396L169.519 25.007L169.728 24.4861Z" fill="#37D7FF"/>
<path opacity="0.3" d="M169.054 26.1689L155.923 20.9015L155.714 21.4224L168.845 26.6898L169.054 26.1689Z" fill="#37D7FF"/>
<path opacity="0.3" d="M168.38 27.8517L155.249 22.5843L155.04 23.1051L168.171 28.3725L168.38 27.8517Z" fill="#37D7FF"/>
<path opacity="0.3" d="M167.706 29.5345L154.575 24.267L154.366 24.7879L167.497 30.0553L167.706 29.5345Z" fill="#37D7FF"/>
<path opacity="0.3" d="M167.032 31.2173L153.901 25.9498L153.692 26.4707L166.824 31.7381L167.032 31.2173Z" fill="#37D7FF"/>
<path opacity="0.3" d="M166.358 32.9L153.227 27.6326L153.018 28.1535L166.15 33.4209L166.358 32.9Z" fill="#37D7FF"/>
<path d="M162.992 38.3279H146.276C144.749 32.2182 145.112 26.0196 146.276 19.7541H162.992C161.274 25.8261 161.274 32.2558 162.992 38.3279V38.3279Z" fill="#F2F2F2"/>
<path d="M159.615 21.4426H148.639V22.2869H159.615V21.4426Z" fill="#37D7FF"/>
<path opacity="0.3" d="M161.303 23.9754H146.951V24.8197H161.303V23.9754Z" fill="#37D7FF"/>
<path opacity="0.3" d="M161.303 25.6639H146.951V26.5082H161.303V25.6639Z" fill="#37D7FF"/>
<path opacity="0.3" d="M161.303 31.5738H146.951V32.418H161.303V31.5738Z" fill="#37D7FF"/>
<path opacity="0.3" d="M161.303 33.2623H146.951V34.1066H161.303V33.2623Z" fill="#37D7FF"/>
<path opacity="0.3" d="M161.303 34.9508H146.951V35.7951H161.303V34.9508Z" fill="#37D7FF"/>
<path d="M152.016 34.8535L146.237 30.226C146.179 30.1225 146.095 30.0364 145.995 29.9766C145.895 29.9168 145.781 29.8853 145.665 29.8853H142.545C142.37 29.8853 142.202 29.9568 142.078 30.0843C141.955 30.2117 141.885 30.3845 141.885 30.5647V58.919C141.885 59.5036 142.111 60.0641 142.512 60.4774C142.913 60.8908 143.458 61.123 144.025 61.123H176.048C176.329 61.123 176.608 61.066 176.867 60.9552C177.127 60.8444 177.363 60.6821 177.562 60.4774C177.76 60.2728 177.918 60.0298 178.026 59.7624C178.133 59.4951 178.189 59.2085 178.189 58.919V36.8567C178.189 36.5936 178.138 36.3331 178.04 36.0901C177.943 35.847 177.799 35.6262 177.619 35.4402C177.438 35.2542 177.224 35.1066 176.988 35.006C176.752 34.9053 176.499 34.8535 176.243 34.8535L152.016 34.8535Z" fill="#3F3D56"/>
<path d="M177.344 40.8607H171.434V43.3934H177.344V40.8607Z" fill="#37D7FF"/>
<path d="M61.5496 116H26.352C25.1978 116 24.0909 115.541 23.2747 114.725C22.4585 113.908 22 112.801 22 111.646V95.5147C22 95.2804 22.0477 95.0486 22.1402 94.8334C22.2327 94.6182 22.3681 94.4241 22.538 94.263L41.1892 76.5767C41.9349 75.8696 42.9233 75.4754 43.9508 75.4754C44.9783 75.4754 45.9667 75.8696 46.7124 76.5767L64.4954 93.4396C64.9396 93.8609 65.2934 94.3682 65.5352 94.9307C65.7769 95.4933 65.9016 96.0992 65.9016 96.7115V111.646C65.9016 112.801 65.4431 113.908 64.627 114.725C63.8108 115.541 62.7038 116 61.5496 116V116Z" fill="#3F3D56"/>
<path opacity="0.1" d="M22 95.7377H65.9016V109.916C65.9016 111.529 65.2568 113.077 64.109 114.218C62.9612 115.359 61.4044 116 59.7811 116H28.1205C27.3168 116 26.5209 115.843 25.7783 115.537C25.0357 115.231 24.361 114.783 23.7927 114.218C23.2243 113.653 22.7735 112.982 22.4659 112.244C22.1583 111.506 22 110.715 22 109.916V95.7377Z" fill="black"/>
<path d="M57.6191 81.3852H30.2826C28.9722 81.3852 27.9099 82.4755 27.9099 83.8204V111.876C27.9099 113.221 28.9722 114.311 30.2826 114.311H57.6191C58.9295 114.311 59.9918 113.221 59.9918 111.876V83.8204C59.9918 82.4755 58.9295 81.3852 57.6191 81.3852Z" fill="#37D7FF"/>
<path opacity="0.1" d="M59.9918 96.582V114.311H27.9099V96.582L43.9508 104.378L59.9918 96.582Z" fill="black"/>
<path d="M43.9508 105.192L23.2079 94.9789C23.0796 94.9157 22.9376 94.8868 22.7953 94.8947C22.653 94.9027 22.5151 94.9474 22.3944 95.0245C22.2736 95.1017 22.1741 95.2088 22.1052 95.3358C22.0362 95.4628 22 95.6056 22 95.7508V113.323C22 113.675 22.068 114.023 22.2 114.347C22.3321 114.672 22.5257 114.967 22.7697 115.216C23.0137 115.465 23.3034 115.662 23.6222 115.796C23.9411 115.931 24.2828 116 24.6279 116H63.2737C63.6188 116 63.9605 115.931 64.2794 115.796C64.5982 115.662 64.8879 115.465 65.1319 115.216C65.376 114.967 65.5695 114.672 65.7016 114.347C65.8337 114.023 65.9016 113.675 65.9016 113.323V96.0518C65.9016 95.8747 65.8575 95.7004 65.7733 95.5454C65.6891 95.3904 65.5677 95.2597 65.4204 95.1656C65.2731 95.0714 65.1048 95.0169 64.9311 95.0072C64.7575 94.9975 64.5843 95.0328 64.4277 95.1099L43.9508 105.192Z" fill="#3F3D56"/>
<path d="M39.7295 84.7623H30.4426V85.6066H39.7295V84.7623Z" fill="#F2F2F2"/>
<path d="M56.6148 88.9836H29.5984V89.8279H56.6148V88.9836Z" fill="#F2F2F2"/>
<path d="M56.6148 91.5164H29.5984V92.3607H56.6148V91.5164Z" fill="#F2F2F2"/>
<path d="M56.6148 94.0492H29.5984V94.8934H56.6148V94.0492Z" fill="#F2F2F2"/>
<path d="M29.1763 85.6066C31.2745 85.6066 32.9754 83.9056 32.9754 81.8074C32.9754 79.7091 31.2745 78.0082 29.1763 78.0082C27.078 78.0082 25.3771 79.7091 25.3771 81.8074C25.3771 83.9056 27.078 85.6066 29.1763 85.6066Z" fill="white"/>
<path d="M29.1762 78.0082C28.2578 78.0082 27.3601 78.2558 26.5965 78.7196C25.8328 79.1835 25.2377 79.8427 24.8862 80.6141C24.5348 81.3854 24.4428 82.2342 24.622 83.053C24.8012 83.8719 25.2434 84.6241 25.8928 85.2144C26.5422 85.8048 27.3696 86.2068 28.2703 86.3697C29.1711 86.5326 30.1047 86.449 30.9532 86.1295C31.8017 85.81 32.5269 85.2689 33.0371 84.5747C33.5473 83.8805 33.8197 83.0644 33.8197 82.2295C33.8161 81.111 33.3257 80.0391 32.4556 79.2482C31.5856 78.4573 30.4066 78.0115 29.1762 78.0082V78.0082ZM28.223 84.4802L25.8432 82.3168L26.5107 81.71L28.2252 83.2686L31.844 79.9788L32.5114 80.5856L28.223 84.4802V84.4802Z" fill="#57B894"/>
</svg>