<svg width="199" height="156" viewBox="0 0 199 156" fill="none" xmlns="http://www.w3.org/2000/svg">
<path d="M38.2743 91.7608C40.1009 92.4545 43.3092 93.0249 47.0223 93.4835C57.1183 94.7322 70.9536 95.1754 70.9536 95.1754C70.9536 95.1754 142.076 101.255 195.382 78.6438C195.382 78.6438 203.135 74.4545 195.943 68.8161C194.835 67.9736 193.658 67.2333 192.424 66.6039L192.336 66.5133C191.518 65.734 190.634 65.0317 189.694 64.4148C186.933 62.5746 182.27 60.3932 176.594 61.3818L36.5916 84.7196C36.5916 84.7196 31.4781 89.1728 38.2743 91.7608Z" fill="#3F3D56"/>
<path d="M65.2804 81.0378L36.0479 61.1351L23.164 63.2736L35.7793 84.3215C35.7793 84.3215 64.9447 84.5451 65.2804 81.0378Z" fill="#3F3D56"/>
<path d="M140.037 68.1194L81.0979 51.6487L71.5978 53.6273L98.2219 65.5614L106.542 74.8378L140.037 68.1194Z" fill="#3F3D56"/>
<path d="M46.328 93.5511C56.4702 94.7651 70.3687 95.196 70.3687 95.196C70.3687 95.196 141.816 101.107 195.365 79.1227C195.365 79.1227 203.154 75.0496 195.929 69.5676L195.904 69.6687C195.904 69.6687 184.35 77.459 129.142 83.9622L46.328 93.5511Z" fill="#37D7FF"/>
<path d="M56.7277 93.5414L29.9029 103.297L23.1641 102.632L39.209 91.8898C39.209 91.8898 58.6166 88.2014 56.7277 93.5414Z" fill="#3F3D56"/>
<path d="M186.378 70.6215C187.715 70.6451 190.778 68.248 192.682 66.6343C191.804 65.7664 190.855 64.9843 189.846 64.2973C188.311 65.557 185.579 67.5956 184.059 67.5162C181.865 67.4197 184.364 70.5828 186.378 70.6215Z" fill="#37D7FF"/>
<path d="M67.3862 129.8L84.1429 130.703L131.255 97.9815L140.001 91.906L144.249 88.9539C136.279 82.0214 103.762 91.5824 103.762 91.5824C103.139 92.1236 102.941 93.0228 102.969 94.0165C103.023 95.8767 103.872 98.0604 104.199 98.8461C104.278 99.0387 104.326 99.1407 104.326 99.1407L67.3862 129.8Z" fill="#3F3D56"/>
<path d="M122.879 112.3L125.744 114.289L124.008 110.827C124.5 110.397 125.108 110.159 125.737 110.15H125.783C125.981 110.155 126.18 110.138 126.376 110.102L127.345 110.777L126.931 109.948C127.617 109.684 128.21 109.189 128.626 108.534L130.36 109.746L129.265 107.56C130.278 106.224 131.646 105.405 133.151 105.405C134.955 105.405 136.562 106.581 137.599 108.416C137.907 108.966 138.341 109.416 138.859 109.721C139.377 110.027 139.959 110.176 140.547 110.154H140.643C142.635 110.154 144.249 112.63 144.249 115.685C144.249 118.741 142.635 121.216 140.643 121.216C140.205 121.215 139.774 121.096 139.388 120.871C138.71 120.51 137.968 120.315 137.215 120.299C136.461 120.283 135.713 120.446 135.023 120.778C134.439 121.063 133.807 121.211 133.168 121.211C132.528 121.211 131.896 121.063 131.312 120.778C130.627 120.452 129.887 120.292 129.141 120.308C128.395 120.323 127.661 120.515 126.988 120.869C126.604 121.088 126.177 121.204 125.744 121.206C123.752 121.206 122.138 118.731 122.138 115.675C122.124 114.5 122.378 113.34 122.879 112.3Z" fill="#F2F2F2"/>
<path opacity="0.03" d="M127.402 120.425C128.5 120.213 129.635 120.338 130.662 120.786C131.278 121.067 131.944 121.212 132.619 121.212C133.293 121.212 133.96 121.067 134.575 120.786C135.304 120.459 136.093 120.298 136.888 120.314C137.683 120.33 138.465 120.522 139.181 120.877C139.589 121.098 140.044 121.214 140.506 121.216C142.373 121.216 143.926 119.296 144.249 116.764C143.875 116.487 143.558 116.139 143.316 115.738C142.221 113.939 140.526 112.784 138.623 112.784C136.72 112.784 135.042 113.915 133.949 115.7C133.623 116.239 133.167 116.682 132.623 116.987C132.08 117.291 131.469 117.448 130.849 117.44H130.8C129.315 117.437 128.028 118.651 127.402 120.425Z" fill="black"/>
<path d="M40.7518 110.327L43.617 112.05L41.8813 109.05C42.3728 108.678 42.9809 108.471 43.6096 108.464H43.6557C43.8544 108.467 44.053 108.453 44.249 108.422L45.2181 109.006L44.8036 108.288C45.4902 108.059 46.0833 107.63 46.4987 107.062L48.2325 108.113L47.1381 106.218C48.1515 105.061 49.5186 104.351 51.024 104.351C52.8279 104.351 54.4346 105.371 55.4719 106.961C55.7795 107.437 56.2144 107.827 56.7322 108.092C57.2501 108.356 57.8324 108.486 58.42 108.467H58.5158C60.5076 108.467 62.1216 110.612 62.1216 113.261C62.1216 115.909 60.5076 118.054 58.5158 118.054C58.0781 118.053 57.6474 117.95 57.261 117.755C56.5829 117.442 55.8414 117.273 55.0878 117.259C54.3342 117.245 53.5864 117.387 52.896 117.674C52.3122 117.922 51.6799 118.05 51.0406 118.05C50.4012 118.05 49.769 117.922 49.1851 117.674C48.5004 117.392 47.76 117.253 47.0139 117.267C46.2678 117.28 45.5335 117.446 44.8607 117.753C44.4766 117.943 44.0502 118.044 43.617 118.045C41.6252 118.045 40.0111 115.9 40.0111 113.252C39.9968 112.233 40.2515 111.228 40.7518 110.327V110.327Z" fill="#F2F2F2"/>
<path opacity="0.03" d="M46.328 117.361C47.3571 117.176 48.4209 117.286 49.3843 117.677C49.9613 117.923 50.5864 118.051 51.2186 118.051C51.8508 118.051 52.4759 117.923 53.053 117.677C53.7356 117.392 54.4754 117.251 55.2209 117.265C55.9665 117.278 56.6999 117.446 57.3704 117.757C57.7535 117.95 58.18 118.052 58.6134 118.054C60.3629 118.054 61.8191 116.374 62.1216 114.158C61.7716 113.916 61.4744 113.611 61.2469 113.261C60.2208 111.686 58.6316 110.676 56.8474 110.676C55.0632 110.676 53.4904 111.665 52.4661 113.228C52.1597 113.7 51.7299 114.088 51.2189 114.355C50.7078 114.622 50.1329 114.758 49.5501 114.75H49.5046C48.1213 114.747 46.9148 115.809 46.328 117.361Z" fill="black"/>
<path d="M40.7519 49.0572L43.6171 51.0456L41.8814 47.584C42.3729 47.1539 42.981 46.9157 43.6097 46.907H43.6558C43.8545 46.9113 44.0531 46.8951 44.2491 46.8585L45.2182 47.5335L44.8037 46.7049C45.4903 46.4406 46.0834 45.9457 46.4988 45.2904L48.2326 46.5029L47.1382 44.3163C48.1515 42.9806 49.5187 42.1622 51.0241 42.1622C52.8279 42.1622 54.4346 43.3383 55.4719 45.1732C55.7796 45.7227 56.2144 46.1729 56.7323 46.4782C57.2501 46.7835 57.8324 46.9328 58.42 46.9111H58.5158C60.5076 46.9111 62.1216 49.3866 62.1216 52.442C62.1216 55.4975 60.5076 57.973 58.5158 57.973C58.0781 57.9714 57.6474 57.8528 57.261 57.6274C56.5829 57.2666 55.8414 57.0714 55.0879 57.0554C54.3343 57.0393 53.5865 57.2028 52.8961 57.5344C52.3129 57.8218 51.681 57.9712 51.0416 57.973C50.4023 57.9747 49.7697 57.8287 49.1852 57.5446C48.5005 57.2191 47.7601 57.0588 47.014 57.0745C46.2679 57.0902 45.5336 57.2815 44.8608 57.6355C44.4767 57.8553 44.0503 57.971 43.6171 57.973C41.6253 57.973 40.0112 55.4975 40.0112 52.442C39.9954 51.2635 40.2501 50.0995 40.7519 49.0572V49.0572Z" fill="#F2F2F2"/>
<path opacity="0.03" d="M46.328 56.9834C47.3571 56.7184 48.4209 56.8755 49.3843 57.4348C49.9613 57.7864 50.5864 57.9681 51.2186 57.9681C51.8508 57.9681 52.4759 57.7864 53.053 57.4348C53.7356 57.0266 54.4754 56.8254 55.2209 56.8451C55.9665 56.8648 56.6999 57.1049 57.3704 57.5489C57.7535 57.8247 58.18 57.9702 58.6134 57.973C60.3629 57.973 61.8191 55.5722 62.1216 52.4076C61.7716 52.0616 61.4744 51.6261 61.2469 51.1253C60.2208 48.8759 58.6316 47.4324 56.8474 47.4324C55.0632 47.4324 53.4904 48.8461 52.4661 51.0782C52.1597 51.7528 51.7299 52.3078 51.2189 52.689C50.7078 53.0702 50.1329 53.2646 49.5501 53.2533H49.5046C48.1213 53.2483 46.9148 54.7662 46.328 56.9834Z" fill="black"/>
<path d="M46.8576 5.05633L48.9041 6.51454L47.6643 3.97601C48.0154 3.66062 48.4498 3.48593 48.8988 3.47956H48.9317C49.0737 3.48268 49.2156 3.47078 49.3555 3.444L50.0478 3.93896L49.7517 3.33137C50.2421 3.13754 50.6658 2.77455 50.9625 2.29402L52.2009 3.18317L51.4191 1.57973C52.143 0.600178 53.1195 0 54.1948 0C55.4833 0 56.6309 0.862482 57.3719 2.20807C57.5916 2.61102 57.9022 2.94123 58.2721 3.16509C58.642 3.38896 59.0579 3.49849 59.4776 3.48253H59.546C60.9687 3.48253 62.1216 5.29788 62.1216 7.53856C62.1216 9.77923 60.9687 11.5946 59.546 11.5946C59.2334 11.5935 58.9258 11.5065 58.6498 11.3412C58.1654 11.0766 57.6358 10.9335 57.0975 10.9217C56.5592 10.9099 56.0251 11.0298 55.5319 11.273C55.1154 11.4837 54.664 11.5933 54.2073 11.5946C53.7507 11.5959 53.2988 11.4888 52.8813 11.2804C52.3923 11.0417 51.8634 10.9242 51.3305 10.9357C50.7975 10.9472 50.273 11.0875 49.7925 11.3471C49.5181 11.5083 49.2135 11.5932 48.9041 11.5946C47.4814 11.5946 46.3285 9.77923 46.3285 7.53856C46.3172 6.67428 46.4991 5.82067 46.8576 5.05633V5.05633Z" fill="#F2F2F2"/>
<path opacity="0.03" d="M50.5396 10.9019C51.2943 10.7164 52.0744 10.8264 52.7809 11.2179C53.2041 11.464 53.6625 11.5912 54.1261 11.5912C54.5897 11.5912 55.0481 11.464 55.4713 11.2179C55.9719 10.9321 56.5144 10.7913 57.0611 10.8051C57.6078 10.8188 58.1457 10.987 58.6374 11.2977C58.9183 11.4908 59.2311 11.5927 59.5489 11.5946C60.8319 11.5946 61.8998 9.91406 62.1216 7.69881C61.8649 7.45664 61.647 7.15177 61.4801 6.80126C60.7277 5.22662 59.5623 4.21622 58.2538 4.21622C56.9454 4.21622 55.792 5.20579 55.0409 6.76827C54.8162 7.24048 54.5011 7.62897 54.1263 7.89581C53.7515 8.16266 53.3299 8.29875 52.9025 8.29082H52.8691C51.8547 8.28735 50.97 9.34983 50.5396 10.9019Z" fill="black"/>
<path d="M107.438 16.437L111.668 19.3534L109.106 14.2764C109.831 13.6456 110.729 13.2962 111.657 13.2835H111.725C112.018 13.2897 112.312 13.2659 112.601 13.2123L114.031 14.2023L113.419 12.9871C114.433 12.5994 115.309 11.8734 115.922 10.9124L118.481 12.6907L116.866 9.4838C118.362 7.5247 120.38 6.32434 122.602 6.32434C125.265 6.32434 127.637 8.0493 129.168 10.7405C129.622 11.5464 130.264 12.2068 131.028 12.6545C131.793 13.1023 132.652 13.3213 133.52 13.2894H133.661C136.601 13.2894 138.984 16.9201 138.984 21.4015C138.984 25.8828 136.601 29.5135 133.661 29.5135C133.015 29.5113 132.379 29.3373 131.809 29.0067C130.808 28.4775 129.713 28.1912 128.601 28.1677C127.488 28.1442 126.385 28.3839 125.365 28.8703C124.504 29.2918 123.572 29.511 122.628 29.5135C121.684 29.5161 120.75 29.302 119.887 28.8852C118.877 28.4078 117.784 28.1727 116.682 28.1957C115.581 28.2187 114.497 28.4993 113.504 29.0185C112.937 29.3409 112.307 29.5107 111.668 29.5135C108.728 29.5135 106.345 25.8828 106.345 21.4015C106.322 19.6729 106.698 17.9657 107.438 16.437V16.437Z" fill="#F2F2F2"/>
<path opacity="0.03" d="M115.82 28.0292C117.329 27.6317 118.89 27.8673 120.303 28.7062C121.149 29.2336 122.066 29.5062 122.993 29.5062C123.92 29.5062 124.837 29.2336 125.683 28.7062C126.685 28.0939 127.77 27.7921 128.863 27.8216C129.957 27.8512 131.032 28.2114 132.016 28.8774C132.578 29.2911 133.203 29.5094 133.839 29.5135C136.405 29.5135 138.54 25.9124 138.984 21.1654C138.471 20.6465 138.035 19.9932 137.701 19.2421C136.196 15.8679 133.865 13.7027 131.249 13.7027C128.632 13.7027 126.325 15.8232 124.823 19.1714C124.373 20.1833 123.743 21.0157 122.993 21.5875C122.244 22.1594 121.401 22.451 120.546 22.434H120.479C118.45 22.4265 116.681 24.7033 115.82 28.0292Z" fill="black"/>
<path d="M18.3584 150.651L20.1321 151.844L19.0576 149.767C19.3619 149.509 19.7383 149.366 20.1275 149.36H20.156C20.279 149.363 20.402 149.353 20.5233 149.331L21.1233 149.736L20.8666 149.239C21.2917 149.081 21.6589 148.784 21.916 148.39L22.9893 149.118L22.3118 147.806C22.9391 147.005 23.7855 146.514 24.7173 146.514C25.834 146.514 26.8286 147.219 27.4708 148.32C27.6612 148.65 27.9304 148.92 28.251 149.103C28.5716 149.286 28.9321 149.376 29.2958 149.363H29.3551C30.5881 149.363 31.5873 150.848 31.5873 152.681C31.5873 154.515 30.5881 156 29.3551 156C29.0842 155.999 28.8175 155.928 28.5783 155.793C28.1585 155.576 27.6995 155.459 27.233 155.449C26.7665 155.44 26.3036 155.538 25.8762 155.737C25.5152 155.909 25.124 155.999 24.7282 156C24.3324 156.001 23.9409 155.913 23.579 155.743C23.1552 155.548 22.6968 155.451 22.2349 155.461C21.7731 155.47 21.3185 155.585 20.902 155.798C20.6642 155.929 20.4002 155.999 20.1321 156C18.8991 156 17.8999 154.515 17.8999 152.681C17.8901 151.974 18.0477 151.276 18.3584 150.651V150.651Z" fill="#F2F2F2"/>
<path opacity="0.03" d="M22.1111 155.406C22.7286 155.247 23.3668 155.342 23.9449 155.677C24.2911 155.888 24.6661 155.997 25.0455 155.997C25.4248 155.997 25.7999 155.888 26.1461 155.677C26.5557 155.432 26.9995 155.311 27.4469 155.323C27.8942 155.335 28.3342 155.479 28.7365 155.746C28.9664 155.911 29.2223 155.998 29.4823 156C30.5321 156 31.4058 154.56 31.5873 152.661C31.3772 152.453 31.199 152.192 31.0624 151.891C30.4468 150.542 29.4932 149.676 28.4227 149.676C27.3522 149.676 26.4085 150.524 25.794 151.863C25.6101 152.268 25.3523 152.601 25.0456 152.83C24.739 153.058 24.394 153.175 24.0444 153.168H24.017C23.1871 153.165 22.4632 154.076 22.1111 155.406Z" fill="black"/>
<path d="M164.713 131.678L166.487 132.871L165.412 130.794C165.716 130.536 166.093 130.393 166.482 130.387H166.511C166.634 130.39 166.757 130.38 166.878 130.358L167.478 130.763L167.221 130.266C167.646 130.108 168.013 129.811 168.271 129.417L169.344 130.145L168.666 128.833C169.294 128.032 170.14 127.541 171.072 127.541C172.189 127.541 173.183 128.246 173.825 129.347C174.016 129.677 174.285 129.947 174.606 130.13C174.926 130.313 175.287 130.403 175.65 130.39H175.71C176.943 130.39 177.942 131.875 177.942 133.708C177.942 135.542 176.943 137.027 175.71 137.027C175.439 137.026 175.172 136.955 174.933 136.82C174.513 136.603 174.054 136.486 173.588 136.476C173.121 136.467 172.658 136.565 172.231 136.764C171.87 136.936 171.479 137.026 171.083 137.027C170.687 137.028 170.295 136.94 169.934 136.77C169.51 136.575 169.051 136.479 168.589 136.488C168.128 136.497 167.673 136.612 167.257 136.825C167.019 136.956 166.755 137.026 166.487 137.027C165.254 137.027 164.254 135.542 164.254 133.708C164.245 133.001 164.402 132.303 164.713 131.678V131.678Z" fill="#F2F2F2"/>
<path opacity="0.03" d="M168.466 136.433C169.083 136.274 169.721 136.369 170.299 136.704C170.646 136.915 171.021 137.024 171.4 137.024C171.779 137.024 172.154 136.915 172.501 136.704C172.91 136.459 173.354 136.338 173.801 136.35C174.249 136.362 174.689 136.506 175.091 136.773C175.321 136.938 175.577 137.025 175.837 137.027C176.887 137.027 177.76 135.587 177.942 133.688C177.732 133.48 177.554 133.219 177.417 132.918C176.801 131.569 175.848 130.703 174.777 130.703C173.707 130.703 172.763 131.551 172.149 132.89C171.965 133.295 171.707 133.628 171.4 133.857C171.094 134.085 170.749 134.202 170.399 134.195H170.372C169.542 134.192 168.818 135.103 168.466 136.433Z" fill="black"/>
<path d="M161.453 42.2081L162.817 43.1363L161.99 41.5218C162.224 41.32 162.514 41.2082 162.814 41.2043H162.835C162.93 41.2053 163.024 41.1977 163.118 41.1816L163.579 41.4954L163.382 41.1173C163.709 40.9942 163.992 40.7633 164.19 40.4575L165.016 41.0247L164.488 40.0057C164.707 39.7007 164.988 39.4522 165.308 39.2782C165.628 39.1042 165.981 39.0092 166.34 39C167.199 39 167.964 39.5482 168.452 40.4046C168.599 40.6617 168.807 40.8722 169.054 41.0147C169.302 41.1572 169.58 41.2266 169.86 41.2156H169.906C170.855 41.2156 171.624 42.3725 171.624 43.7979C171.624 45.2233 170.855 46.3784 169.906 46.3784C169.698 46.3777 169.492 46.3225 169.308 46.2177C168.985 46.0488 168.631 45.9574 168.272 45.9499C167.912 45.9424 167.556 46.0189 167.227 46.1742C166.95 46.3065 166.65 46.3748 166.347 46.3748C166.043 46.3748 165.744 46.3065 165.467 46.1742C165.14 46.0222 164.787 45.9474 164.431 45.9549C164.076 45.9624 163.726 46.052 163.405 46.2177C163.222 46.3193 163.02 46.3731 162.814 46.3746C161.865 46.3746 161.095 45.2195 161.095 43.7942C161.089 43.2416 161.212 42.6962 161.453 42.2081Z" fill="#F2F2F2"/>
<path opacity="0.03" d="M164.254 45.9866C164.734 45.8793 165.231 45.9423 165.681 46.1676C165.949 46.3059 166.239 46.3777 166.533 46.3784C166.83 46.3783 167.123 46.3044 167.394 46.1616C167.712 45.9989 168.058 45.919 168.406 45.9272C168.753 45.9354 169.096 46.0317 169.408 46.2093C169.586 46.3196 169.785 46.3776 169.986 46.3784C170.803 46.3784 171.483 45.4178 171.624 44.1529C171.461 44.0135 171.323 43.8394 171.215 43.6398C170.738 42.7389 169.997 42.1622 169.17 42.1622C168.343 42.1622 167.605 42.7329 167.124 43.6219C166.981 43.8923 166.78 44.1145 166.541 44.2669C166.302 44.4192 166.033 44.4965 165.761 44.491H165.739C165.096 44.491 164.528 45.0996 164.254 45.9866Z" fill="black"/>
<path d="M0.393342 55.9108L1.89407 56.839L0.983958 55.2245C1.24117 55.0227 1.56023 54.9109 1.89019 54.9069H1.91342C2.01782 54.908 2.12213 54.9004 2.22521 54.8843L2.73255 55.1981L2.51567 54.82C2.87568 54.6969 3.18671 54.466 3.40448 54.1602L4.31265 54.7274L3.73172 53.7084C3.97328 53.4034 4.2815 53.1549 4.63391 52.9809C4.98632 52.8069 5.37404 52.7119 5.76884 52.7027C6.71381 52.7027 7.55615 53.2509 8.09254 54.1073C8.25398 54.3644 8.48251 54.5749 8.75471 54.7174C9.02691 54.8599 9.33301 54.9293 9.64168 54.9183H9.69202C10.7358 54.9183 11.582 56.0752 11.582 57.5006C11.582 58.926 10.7358 60.0811 9.69202 60.0811C9.46247 60.0803 9.23653 60.0252 9.03364 59.9204C8.6782 59.7515 8.28937 59.6601 7.89412 59.6526C7.49888 59.6451 7.1067 59.7216 6.7448 59.8769C6.44 60.0092 6.11015 60.0775 5.77659 60.0775C5.44303 60.0775 5.11319 60.0092 4.80838 59.8769C4.44937 59.7249 4.06101 59.65 3.66975 59.6576C3.27848 59.6651 2.89347 59.7547 2.54085 59.9204C2.33967 60.022 2.1167 60.0758 1.89019 60.0773C0.84646 60.0773 0.000243008 58.9222 0.000243008 57.4969C-0.00710293 56.9443 0.128084 56.3989 0.393342 55.9108V55.9108Z" fill="#F2F2F2"/>
<path opacity="0.03" d="M3.15869 59.5913C3.70833 59.4572 4.2769 59.536 4.79108 59.8176C5.09831 59.9905 5.43037 60.0802 5.76622 60.0811C6.10261 60.0792 6.43489 59.9869 6.74137 59.8101C7.1061 59.6068 7.5011 59.5068 7.89911 59.5171C8.29712 59.5274 8.68864 59.6477 9.0466 59.8698C9.25025 60.0076 9.47717 60.0801 9.70775 60.0811C10.6419 60.0811 11.4201 58.8804 11.582 57.2993C11.3956 57.125 11.2368 56.9074 11.1139 56.6579C10.5678 55.5317 9.71944 54.8108 8.77355 54.8108C7.82766 54.8108 6.98319 55.5243 6.43321 56.6355C6.27016 56.9716 6.04172 57.2482 5.77006 57.4386C5.49839 57.6289 5.19272 57.7265 4.88274 57.7219H4.85738C4.12212 57.7219 3.47269 58.4826 3.15869 59.5913Z" fill="black"/>
</svg>